G04 #@! TF.FileFunction,Legend,Top*
%FSLAX46Y46*%
G04 Gerber Fmt 4.6, Leading zero omitted, Abs format (unit mm)*
G04 Created by KiCad (PCBNEW 4.0.2-stable) date 12/24/2016 3:16:37 PM*
%MOMM*%
G01*
G04 APERTURE LIST*
%ADD10C,0.100000*%
%ADD11C,0.150000*%
%ADD12C,0.127000*%
%ADD13C,0.050000*%
%ADD14C,0.030000*%
%ADD15C,1.000000*%
%ADD16C,0.250000*%
%ADD17C,0.125000*%
%ADD18C,0.060960*%
G04 APERTURE END LIST*
D10*
D11*
X128993000Y-110888400D02*
X128993000Y-109888400D01*
X127293000Y-109888400D02*
X127293000Y-110888400D01*
X103844800Y-97136000D02*
X103844800Y-96436000D01*
X105044800Y-96436000D02*
X105044800Y-97136000D01*
X134010620Y-97022724D02*
X135010620Y-97022724D01*
X135010620Y-95322724D02*
X134010620Y-95322724D01*
X134010620Y-94736724D02*
X135010620Y-94736724D01*
X135010620Y-93036724D02*
X134010620Y-93036724D01*
X131994200Y-112349800D02*
X131994200Y-113049800D01*
X130794200Y-113049800D02*
X130794200Y-112349800D01*
X115245400Y-112252200D02*
X115945400Y-112252200D01*
X115945400Y-113452200D02*
X115245400Y-113452200D01*
X137720620Y-85626124D02*
X137720620Y-84926124D01*
X138920620Y-84926124D02*
X138920620Y-85626124D01*
X132394400Y-118155200D02*
X132394400Y-117455200D01*
X133594400Y-117455200D02*
X133594400Y-118155200D01*
X109667600Y-103586800D02*
X109667600Y-104286800D01*
X108467600Y-104286800D02*
X108467600Y-103586800D01*
X133985220Y-86405524D02*
X134985220Y-86405524D01*
X134985220Y-84705524D02*
X133985220Y-84705524D01*
X107811200Y-98737800D02*
X107811200Y-99737800D01*
X109511200Y-99737800D02*
X109511200Y-98737800D01*
X133985220Y-84119524D02*
X134985220Y-84119524D01*
X134985220Y-82419524D02*
X133985220Y-82419524D01*
X139434200Y-112225200D02*
X139434200Y-113225200D01*
X141134200Y-113225200D02*
X141134200Y-112225200D01*
X141593200Y-112225200D02*
X141593200Y-113225200D01*
X143293200Y-113225200D02*
X143293200Y-112225200D01*
X111619400Y-99753800D02*
X111619400Y-98753800D01*
X109919400Y-98753800D02*
X109919400Y-99753800D01*
X124302000Y-102784200D02*
X123602000Y-102784200D01*
X123602000Y-101584200D02*
X124302000Y-101584200D01*
X131174600Y-98637600D02*
X131174600Y-96637600D01*
X129124600Y-96637600D02*
X129124600Y-98637600D01*
X128710800Y-98637600D02*
X128710800Y-96637600D01*
X126660800Y-96637600D02*
X126660800Y-98637600D01*
X156482700Y-90060708D02*
X157182700Y-90060708D01*
X157182700Y-91260708D02*
X156482700Y-91260708D01*
X104228000Y-89654000D02*
X104228000Y-88654000D01*
X102528000Y-88654000D02*
X102528000Y-89654000D01*
X152473500Y-86222108D02*
X152473500Y-85522108D01*
X153673500Y-85522108D02*
X153673500Y-86222108D01*
X150822500Y-86235508D02*
X150822500Y-85535508D01*
X152022500Y-85535508D02*
X152022500Y-86235508D01*
X156482700Y-88409708D02*
X157182700Y-88409708D01*
X157182700Y-89609708D02*
X156482700Y-89609708D01*
X156482700Y-86250708D02*
X157182700Y-86250708D01*
X157182700Y-87450708D02*
X156482700Y-87450708D01*
X139948400Y-94249800D02*
X139248400Y-94249800D01*
X139248400Y-93049800D02*
X139948400Y-93049800D01*
X90490040Y-92298520D02*
X90490040Y-101300280D01*
X86989920Y-92298520D02*
X86989920Y-101300280D01*
X86989920Y-101300280D02*
X101490780Y-101300280D01*
X101490780Y-101300280D02*
X101490780Y-92298520D01*
X101490780Y-92298520D02*
X86989920Y-92298520D01*
X110066000Y-107755600D02*
X108166000Y-107755600D01*
X110066000Y-108855600D02*
X108166000Y-108855600D01*
X109166000Y-108305600D02*
X108716000Y-108305600D01*
X109216000Y-108555600D02*
X109216000Y-108055600D01*
X109216000Y-108305600D02*
X108966000Y-108555600D01*
X108966000Y-108555600D02*
X108966000Y-108055600D01*
X108966000Y-108055600D02*
X109216000Y-108305600D01*
X141336957Y-82654143D02*
X141336957Y-84554143D01*
X142436957Y-82654143D02*
X142436957Y-84554143D01*
X141886957Y-83554143D02*
X141886957Y-84004143D01*
X142136957Y-83504143D02*
X141636957Y-83504143D01*
X141886957Y-83504143D02*
X142136957Y-83754143D01*
X142136957Y-83754143D02*
X141636957Y-83754143D01*
X141636957Y-83754143D02*
X141886957Y-83504143D01*
X143856800Y-117889200D02*
X143856800Y-115989200D01*
X142756800Y-117889200D02*
X142756800Y-115989200D01*
X143306800Y-116989200D02*
X143306800Y-116539200D01*
X143056800Y-117039200D02*
X143556800Y-117039200D01*
X143306800Y-117039200D02*
X143056800Y-116789200D01*
X143056800Y-116789200D02*
X143556800Y-116789200D01*
X143556800Y-116789200D02*
X143306800Y-117039200D01*
X148854800Y-76623800D02*
X148854800Y-75623800D01*
X150204800Y-75623800D02*
X150204800Y-76623800D01*
X151420200Y-76598400D02*
X151420200Y-75598400D01*
X152770200Y-75598400D02*
X152770200Y-76598400D01*
X105119800Y-99130800D02*
X105119800Y-100130800D01*
X103769800Y-100130800D02*
X103769800Y-99130800D01*
X136914000Y-115326800D02*
X137914000Y-115326800D01*
X137914000Y-116676800D02*
X136914000Y-116676800D01*
X107380400Y-96147000D02*
X107380400Y-97147000D01*
X106030400Y-97147000D02*
X106030400Y-96147000D01*
X107380400Y-93441200D02*
X107380400Y-94441200D01*
X106030400Y-94441200D02*
X106030400Y-93441200D01*
X111643800Y-111980600D02*
X111643800Y-110980600D01*
X112993800Y-110980600D02*
X112993800Y-111980600D01*
X109558200Y-111542200D02*
X110558200Y-111542200D01*
X110558200Y-112892200D02*
X109558200Y-112892200D01*
X137914000Y-118429400D02*
X136914000Y-118429400D01*
X136914000Y-117079400D02*
X137914000Y-117079400D01*
X132446400Y-113149000D02*
X132446400Y-112149000D01*
X133796400Y-112149000D02*
X133796400Y-113149000D01*
X115356000Y-109507400D02*
X115356000Y-110507400D01*
X114006000Y-110507400D02*
X114006000Y-109507400D01*
X115733200Y-110507400D02*
X115733200Y-109507400D01*
X117083200Y-109507400D02*
X117083200Y-110507400D01*
X119753000Y-108167800D02*
X118753000Y-108167800D01*
X118753000Y-106817800D02*
X119753000Y-106817800D01*
X118753000Y-108570400D02*
X119753000Y-108570400D01*
X119753000Y-109920400D02*
X118753000Y-109920400D01*
X106087800Y-108015400D02*
X105087800Y-108015400D01*
X105087800Y-106665400D02*
X106087800Y-106665400D01*
X104360600Y-104434000D02*
X103360600Y-104434000D01*
X103360600Y-103084000D02*
X104360600Y-103084000D01*
X108466000Y-109256200D02*
X109466000Y-109256200D01*
X109466000Y-110606200D02*
X108466000Y-110606200D01*
X107882000Y-103038400D02*
X107882000Y-105038400D01*
X105732000Y-105038400D02*
X105732000Y-103038400D01*
X135320400Y-117279800D02*
X135320400Y-118279800D01*
X133970400Y-118279800D02*
X133970400Y-117279800D01*
X133383400Y-114818800D02*
X134383400Y-114818800D01*
X134383400Y-116168800D02*
X133383400Y-116168800D01*
X139433957Y-84228743D02*
X139433957Y-83228743D01*
X140783957Y-83228743D02*
X140783957Y-84228743D01*
X141673200Y-116803800D02*
X140673200Y-116803800D01*
X140673200Y-115453800D02*
X141673200Y-115453800D01*
X122977400Y-98010400D02*
X124977400Y-98010400D01*
X124977400Y-100160400D02*
X122977400Y-100160400D01*
X101821456Y-88617230D02*
X101821456Y-90617230D01*
X99671456Y-90617230D02*
X99671456Y-88617230D01*
X139260400Y-96224800D02*
X139960400Y-96224800D01*
X139960400Y-97424800D02*
X139260400Y-97424800D01*
X139948400Y-95850000D02*
X139248400Y-95850000D01*
X139248400Y-94650000D02*
X139948400Y-94650000D01*
X100863400Y-110058200D02*
X100863400Y-115138200D01*
X105308400Y-110058200D02*
X105308400Y-115138200D01*
X98958400Y-115138200D02*
X98958400Y-110058200D01*
X98958400Y-115138200D02*
X105308400Y-115138200D01*
X98958400Y-110058200D02*
X105308400Y-110058200D01*
X162471867Y-114066621D02*
G75*
G03X162471500Y-109774208I-1092567J2146113D01*
G01*
X160235648Y-109774555D02*
G75*
G03X160236300Y-114066808I1143652J-2145953D01*
G01*
X158686900Y-109253508D02*
X160236300Y-109253508D01*
X164020900Y-109253508D02*
X162471500Y-109253508D01*
X163258900Y-114587508D02*
X162471500Y-114587508D01*
X159448900Y-114587508D02*
X160236300Y-114587508D01*
X158686900Y-109253508D02*
X158686900Y-113825508D01*
X158686900Y-113825508D02*
X159448900Y-114587508D01*
X163258900Y-114587508D02*
X164020900Y-113825508D01*
X164020900Y-113825508D02*
X164020900Y-109253508D01*
X162471867Y-104414621D02*
G75*
G03X162471500Y-100122208I-1092567J2146113D01*
G01*
X160235648Y-100122555D02*
G75*
G03X160236300Y-104414808I1143652J-2145953D01*
G01*
X158686900Y-99601508D02*
X160236300Y-99601508D01*
X164020900Y-99601508D02*
X162471500Y-99601508D01*
X163258900Y-104935508D02*
X162471500Y-104935508D01*
X159448900Y-104935508D02*
X160236300Y-104935508D01*
X158686900Y-99601508D02*
X158686900Y-104173508D01*
X158686900Y-104173508D02*
X159448900Y-104935508D01*
X163258900Y-104935508D02*
X164020900Y-104173508D01*
X164020900Y-104173508D02*
X164020900Y-99601508D01*
D12*
X111325600Y-101794800D02*
X111325600Y-101294800D01*
X111325600Y-101294800D02*
X111825600Y-101294800D01*
X111225600Y-101894800D02*
X111425600Y-101694800D01*
X111425600Y-101694800D02*
X111425600Y-101394800D01*
X111425600Y-101394800D02*
X111725600Y-101394800D01*
X111725600Y-101394800D02*
X111925600Y-101194800D01*
X111925600Y-101194800D02*
X111225600Y-101194800D01*
X111225600Y-101194800D02*
X111225600Y-101894800D01*
X111584740Y-107243880D02*
X111584740Y-101645720D01*
X115186460Y-101645720D02*
X115186460Y-107243880D01*
X115186460Y-107243880D02*
X111584740Y-107243880D01*
X111584740Y-101645720D02*
X115186460Y-101645720D01*
D13*
X153667700Y-88075708D02*
G75*
G03X153667700Y-88075708I-40000J0D01*
G01*
D14*
X153882700Y-88280708D02*
X153882700Y-91780708D01*
X153882700Y-91780708D02*
X150882700Y-91780708D01*
X150882700Y-91780708D02*
X150882700Y-88280708D01*
X150882700Y-88280708D02*
X153882700Y-88280708D01*
D11*
X151362900Y-104593508D02*
X151487900Y-104593508D01*
X151362900Y-99943508D02*
X151587900Y-99943508D01*
X156612900Y-99943508D02*
X156387900Y-99943508D01*
X156612900Y-104593508D02*
X156387900Y-104593508D01*
X151362900Y-104593508D02*
X151362900Y-99943508D01*
X156612900Y-104593508D02*
X156612900Y-99943508D01*
X151487900Y-104593508D02*
X151487900Y-105943508D01*
X171164300Y-95633308D02*
X166664300Y-95633308D01*
X166664300Y-95633308D02*
X166664300Y-83733308D01*
X166664300Y-83733308D02*
X171164300Y-83733308D01*
X171164300Y-83733308D02*
X171164300Y-95633308D01*
X166664300Y-93183308D02*
X167164300Y-93183308D01*
X167164300Y-93183308D02*
X167164300Y-95133308D01*
X167164300Y-95133308D02*
X170664300Y-95133308D01*
X170664300Y-95133308D02*
X170664300Y-84233308D01*
X170664300Y-84233308D02*
X167164300Y-84233308D01*
X167164300Y-84233308D02*
X167164300Y-86183308D01*
X167164300Y-86183308D02*
X166664300Y-86183308D01*
X167864300Y-95633308D02*
X167864300Y-95133308D01*
X169164300Y-95633308D02*
X169164300Y-95133308D01*
X167864300Y-84233308D02*
X167864300Y-83733308D01*
X169164300Y-84233308D02*
X169164300Y-83733308D01*
X166664300Y-93983308D02*
X166464300Y-93983308D01*
X166464300Y-93983308D02*
X166464300Y-94283308D01*
X166464300Y-94283308D02*
X166664300Y-94283308D01*
X166564300Y-93983308D02*
X166564300Y-94283308D01*
X170664300Y-92783308D02*
X170164300Y-92783308D01*
X170164300Y-92783308D02*
X170164300Y-92583308D01*
X170164300Y-92583308D02*
X170664300Y-92583308D01*
X170664300Y-92683308D02*
X170164300Y-92683308D01*
X170664300Y-90783308D02*
X170164300Y-90783308D01*
X170164300Y-90783308D02*
X170164300Y-90583308D01*
X170164300Y-90583308D02*
X170664300Y-90583308D01*
X170664300Y-90683308D02*
X170164300Y-90683308D01*
X170664300Y-88783308D02*
X170164300Y-88783308D01*
X170164300Y-88783308D02*
X170164300Y-88583308D01*
X170164300Y-88583308D02*
X170664300Y-88583308D01*
X170664300Y-88683308D02*
X170164300Y-88683308D01*
X170664300Y-86783308D02*
X170164300Y-86783308D01*
X170164300Y-86783308D02*
X170164300Y-86583308D01*
X170164300Y-86583308D02*
X170664300Y-86583308D01*
X170664300Y-86683308D02*
X170164300Y-86683308D01*
X171138900Y-115838508D02*
X166638900Y-115838508D01*
X166638900Y-115838508D02*
X166638900Y-107938508D01*
X166638900Y-107938508D02*
X171138900Y-107938508D01*
X171138900Y-107938508D02*
X171138900Y-115838508D01*
X166638900Y-113388508D02*
X167138900Y-113388508D01*
X167138900Y-113388508D02*
X167138900Y-115338508D01*
X167138900Y-115338508D02*
X170638900Y-115338508D01*
X170638900Y-115338508D02*
X170638900Y-108438508D01*
X170638900Y-108438508D02*
X167138900Y-108438508D01*
X167138900Y-108438508D02*
X167138900Y-110388508D01*
X167138900Y-110388508D02*
X166638900Y-110388508D01*
X167838900Y-115838508D02*
X167838900Y-115338508D01*
X169138900Y-115838508D02*
X169138900Y-115338508D01*
X167838900Y-108438508D02*
X167838900Y-107938508D01*
X169138900Y-108438508D02*
X169138900Y-107938508D01*
X166638900Y-114188508D02*
X166438900Y-114188508D01*
X166438900Y-114188508D02*
X166438900Y-114488508D01*
X166438900Y-114488508D02*
X166638900Y-114488508D01*
X166538900Y-114188508D02*
X166538900Y-114488508D01*
X170638900Y-112988508D02*
X170138900Y-112988508D01*
X170138900Y-112988508D02*
X170138900Y-112788508D01*
X170138900Y-112788508D02*
X170638900Y-112788508D01*
X170638900Y-112888508D02*
X170138900Y-112888508D01*
X170638900Y-110988508D02*
X170138900Y-110988508D01*
X170138900Y-110988508D02*
X170138900Y-110788508D01*
X170138900Y-110788508D02*
X170638900Y-110788508D01*
X170638900Y-110888508D02*
X170138900Y-110888508D01*
X171164300Y-106250508D02*
X166664300Y-106250508D01*
X166664300Y-106250508D02*
X166664300Y-98350508D01*
X166664300Y-98350508D02*
X171164300Y-98350508D01*
X171164300Y-98350508D02*
X171164300Y-106250508D01*
X166664300Y-103800508D02*
X167164300Y-103800508D01*
X167164300Y-103800508D02*
X167164300Y-105750508D01*
X167164300Y-105750508D02*
X170664300Y-105750508D01*
X170664300Y-105750508D02*
X170664300Y-98850508D01*
X170664300Y-98850508D02*
X167164300Y-98850508D01*
X167164300Y-98850508D02*
X167164300Y-100800508D01*
X167164300Y-100800508D02*
X166664300Y-100800508D01*
X167864300Y-106250508D02*
X167864300Y-105750508D01*
X169164300Y-106250508D02*
X169164300Y-105750508D01*
X167864300Y-98850508D02*
X167864300Y-98350508D01*
X169164300Y-98850508D02*
X169164300Y-98350508D01*
X166664300Y-104600508D02*
X166464300Y-104600508D01*
X166464300Y-104600508D02*
X166464300Y-104900508D01*
X166464300Y-104900508D02*
X166664300Y-104900508D01*
X166564300Y-104600508D02*
X166564300Y-104900508D01*
X170664300Y-103400508D02*
X170164300Y-103400508D01*
X170164300Y-103400508D02*
X170164300Y-103200508D01*
X170164300Y-103200508D02*
X170664300Y-103200508D01*
X170664300Y-103300508D02*
X170164300Y-103300508D01*
X170664300Y-101400508D02*
X170164300Y-101400508D01*
X170164300Y-101400508D02*
X170164300Y-101200508D01*
X170164300Y-101200508D02*
X170664300Y-101200508D01*
X170664300Y-101300508D02*
X170164300Y-101300508D01*
X117836200Y-103082800D02*
X118536200Y-103082800D01*
X118536200Y-104282800D02*
X117836200Y-104282800D01*
X114061800Y-97186000D02*
X114061800Y-97886000D01*
X112861800Y-97886000D02*
X112861800Y-97186000D01*
X152494900Y-96461508D02*
X153194900Y-96461508D01*
X153194900Y-97661508D02*
X152494900Y-97661508D01*
X115535200Y-97491600D02*
X115535200Y-97891600D01*
X115535200Y-100841600D02*
X115535200Y-100441600D01*
X120035200Y-100841600D02*
X120035200Y-100441600D01*
X120035200Y-97491600D02*
X120035200Y-97891600D01*
X116435200Y-100841600D02*
X116435200Y-100441600D01*
X116435200Y-100441600D02*
X116585200Y-100441600D01*
X116585200Y-100441600D02*
X116585200Y-100841600D01*
X116435200Y-97491600D02*
X116435200Y-97891600D01*
X116435200Y-97891600D02*
X116585200Y-97891600D01*
X116585200Y-97891600D02*
X116585200Y-97491600D01*
X115535200Y-97491600D02*
X120035200Y-97491600D01*
X120035200Y-100841600D02*
X115535200Y-100841600D01*
D15*
X171916145Y-65883200D02*
G75*
G03X171916145Y-65883200I-553173J0D01*
G01*
D11*
X111429800Y-66243200D02*
X111429800Y-64973200D01*
X111429800Y-64973200D02*
X169849800Y-64973200D01*
X169849800Y-64973200D02*
X169849800Y-66243200D01*
X169849800Y-76403200D02*
X169849800Y-77673200D01*
X169849800Y-77673200D02*
X111429800Y-77673200D01*
X111429800Y-77673200D02*
X111429800Y-76403200D01*
X111429800Y-76403200D02*
X111429800Y-66243200D01*
X169849800Y-66243200D02*
X169849800Y-76403200D01*
D16*
X91160600Y-61899800D02*
X91160600Y-91109800D01*
X108940600Y-61899800D02*
X91160600Y-61899800D01*
X108940600Y-91109800D02*
X108940600Y-61899800D01*
X91160600Y-91109800D02*
X108940600Y-91109800D01*
D13*
X138561310Y-111158200D02*
G75*
G03X138561310Y-111158200I-58310J0D01*
G01*
X138353000Y-114458200D02*
X138353000Y-111058200D01*
X135553000Y-114458200D02*
X138353000Y-114458200D01*
X135553000Y-114358200D02*
X135553000Y-114458200D01*
X135553000Y-111058200D02*
X135553000Y-114358200D01*
X138353000Y-111058200D02*
X135553000Y-111058200D01*
X115495000Y-90552200D02*
X115495000Y-97052200D01*
X115495000Y-90552200D02*
X121995000Y-90552200D01*
X115545000Y-97052200D02*
X122045000Y-97052200D01*
X121995000Y-90552200D02*
X121995000Y-97052200D01*
X138253451Y-87811124D02*
G75*
G03X138253451Y-87811124I-120416J0D01*
G01*
X133222620Y-91821124D02*
X138322620Y-91821124D01*
X133222620Y-87621124D02*
X133222620Y-91821124D01*
X138322620Y-87621124D02*
X133222620Y-87621124D01*
X138322620Y-91821124D02*
X138322620Y-87621124D01*
X104220400Y-104897400D02*
X102220400Y-104897400D01*
X104220400Y-107497400D02*
X104220400Y-104897400D01*
X102220400Y-107497400D02*
X104220400Y-107497400D01*
X102220400Y-104897400D02*
X102220400Y-107497400D01*
D11*
X120523000Y-117906800D02*
X125603000Y-117906800D01*
X120523000Y-113461800D02*
X125603000Y-113461800D01*
X125603000Y-119811800D02*
X120523000Y-119811800D01*
X125603000Y-119811800D02*
X125603000Y-113461800D01*
X120523000Y-119811800D02*
X120523000Y-113461800D01*
X171615267Y-73705981D02*
X171281933Y-73229790D01*
X171043838Y-73705981D02*
X171043838Y-72705981D01*
X171424791Y-72705981D01*
X171520029Y-72753600D01*
X171567648Y-72801219D01*
X171615267Y-72896457D01*
X171615267Y-73039314D01*
X171567648Y-73134552D01*
X171520029Y-73182171D01*
X171424791Y-73229790D01*
X171043838Y-73229790D01*
X172043838Y-73182171D02*
X172377172Y-73182171D01*
X172520029Y-73705981D02*
X172043838Y-73705981D01*
X172043838Y-72705981D01*
X172520029Y-72705981D01*
X173281934Y-73182171D02*
X172948600Y-73182171D01*
X172948600Y-73705981D02*
X172948600Y-72705981D01*
X173424791Y-72705981D01*
X173948600Y-72705981D02*
X173948600Y-72944076D01*
X173710505Y-72848838D02*
X173948600Y-72944076D01*
X174186696Y-72848838D01*
X173805743Y-73134552D02*
X173948600Y-72944076D01*
X174091458Y-73134552D01*
X174710505Y-72705981D02*
X174710505Y-72944076D01*
X174472410Y-72848838D02*
X174710505Y-72944076D01*
X174948601Y-72848838D01*
X174567648Y-73134552D02*
X174710505Y-72944076D01*
X174853363Y-73134552D01*
X98750381Y-64274533D02*
X98274190Y-64607867D01*
X98750381Y-64845962D02*
X97750381Y-64845962D01*
X97750381Y-64465009D01*
X97798000Y-64369771D01*
X97845619Y-64322152D01*
X97940857Y-64274533D01*
X98083714Y-64274533D01*
X98178952Y-64322152D01*
X98226571Y-64369771D01*
X98274190Y-64465009D01*
X98274190Y-64845962D01*
X98226571Y-63845962D02*
X98226571Y-63512628D01*
X98750381Y-63369771D02*
X98750381Y-63845962D01*
X97750381Y-63845962D01*
X97750381Y-63369771D01*
X98226571Y-62607866D02*
X98226571Y-62941200D01*
X98750381Y-62941200D02*
X97750381Y-62941200D01*
X97750381Y-62465009D01*
X97750381Y-61941200D02*
X97988476Y-61941200D01*
X97893238Y-62179295D02*
X97988476Y-61941200D01*
X97893238Y-61703104D01*
X98178952Y-62084057D02*
X97988476Y-61941200D01*
X98178952Y-61798342D01*
X97750381Y-61179295D02*
X97988476Y-61179295D01*
X97893238Y-61417390D02*
X97988476Y-61179295D01*
X97893238Y-60941199D01*
X98178952Y-61322152D02*
X97988476Y-61179295D01*
X98178952Y-61036437D01*
X98801181Y-119341733D02*
X98324990Y-119675067D01*
X98801181Y-119913162D02*
X97801181Y-119913162D01*
X97801181Y-119532209D01*
X97848800Y-119436971D01*
X97896419Y-119389352D01*
X97991657Y-119341733D01*
X98134514Y-119341733D01*
X98229752Y-119389352D01*
X98277371Y-119436971D01*
X98324990Y-119532209D01*
X98324990Y-119913162D01*
X98277371Y-118913162D02*
X98277371Y-118579828D01*
X98801181Y-118436971D02*
X98801181Y-118913162D01*
X97801181Y-118913162D01*
X97801181Y-118436971D01*
X98277371Y-117675066D02*
X98277371Y-118008400D01*
X98801181Y-118008400D02*
X97801181Y-118008400D01*
X97801181Y-117532209D01*
X97801181Y-117008400D02*
X98039276Y-117008400D01*
X97944038Y-117246495D02*
X98039276Y-117008400D01*
X97944038Y-116770304D01*
X98229752Y-117151257D02*
X98039276Y-117008400D01*
X98229752Y-116865542D01*
X97801181Y-116246495D02*
X98039276Y-116246495D01*
X97944038Y-116484590D02*
X98039276Y-116246495D01*
X97944038Y-116008399D01*
X98229752Y-116389352D02*
X98039276Y-116246495D01*
X98229752Y-116103637D01*
D17*
X128110467Y-112776771D02*
X128086657Y-112800581D01*
X128015229Y-112824390D01*
X127967610Y-112824390D01*
X127896181Y-112800581D01*
X127848562Y-112752962D01*
X127824753Y-112705343D01*
X127800943Y-112610105D01*
X127800943Y-112538676D01*
X127824753Y-112443438D01*
X127848562Y-112395819D01*
X127896181Y-112348200D01*
X127967610Y-112324390D01*
X128015229Y-112324390D01*
X128086657Y-112348200D01*
X128110467Y-112372010D01*
X128586657Y-112824390D02*
X128300943Y-112824390D01*
X128443800Y-112824390D02*
X128443800Y-112324390D01*
X128396181Y-112395819D01*
X128348562Y-112443438D01*
X128300943Y-112467248D01*
X105740971Y-95790533D02*
X105764781Y-95814343D01*
X105788590Y-95885771D01*
X105788590Y-95933390D01*
X105764781Y-96004819D01*
X105717162Y-96052438D01*
X105669543Y-96076247D01*
X105574305Y-96100057D01*
X105502876Y-96100057D01*
X105407638Y-96076247D01*
X105360019Y-96052438D01*
X105312400Y-96004819D01*
X105288590Y-95933390D01*
X105288590Y-95885771D01*
X105312400Y-95814343D01*
X105336210Y-95790533D01*
X105336210Y-95600057D02*
X105312400Y-95576247D01*
X105288590Y-95528628D01*
X105288590Y-95409581D01*
X105312400Y-95361962D01*
X105336210Y-95338152D01*
X105383829Y-95314343D01*
X105431448Y-95314343D01*
X105502876Y-95338152D01*
X105788590Y-95623866D01*
X105788590Y-95314343D01*
X132530191Y-96256057D02*
X132554001Y-96279867D01*
X132577810Y-96351295D01*
X132577810Y-96398914D01*
X132554001Y-96470343D01*
X132506382Y-96517962D01*
X132458763Y-96541771D01*
X132363525Y-96565581D01*
X132292096Y-96565581D01*
X132196858Y-96541771D01*
X132149239Y-96517962D01*
X132101620Y-96470343D01*
X132077810Y-96398914D01*
X132077810Y-96351295D01*
X132101620Y-96279867D01*
X132125430Y-96256057D01*
X132077810Y-96089390D02*
X132077810Y-95779867D01*
X132268287Y-95946533D01*
X132268287Y-95875105D01*
X132292096Y-95827486D01*
X132315906Y-95803676D01*
X132363525Y-95779867D01*
X132482572Y-95779867D01*
X132530191Y-95803676D01*
X132554001Y-95827486D01*
X132577810Y-95875105D01*
X132577810Y-96017962D01*
X132554001Y-96065581D01*
X132530191Y-96089390D01*
X132530191Y-93970057D02*
X132554001Y-93993867D01*
X132577810Y-94065295D01*
X132577810Y-94112914D01*
X132554001Y-94184343D01*
X132506382Y-94231962D01*
X132458763Y-94255771D01*
X132363525Y-94279581D01*
X132292096Y-94279581D01*
X132196858Y-94255771D01*
X132149239Y-94231962D01*
X132101620Y-94184343D01*
X132077810Y-94112914D01*
X132077810Y-94065295D01*
X132101620Y-93993867D01*
X132125430Y-93970057D01*
X132244477Y-93541486D02*
X132577810Y-93541486D01*
X132054001Y-93660533D02*
X132411144Y-93779581D01*
X132411144Y-93470057D01*
X131285467Y-111074971D02*
X131261657Y-111098781D01*
X131190229Y-111122590D01*
X131142610Y-111122590D01*
X131071181Y-111098781D01*
X131023562Y-111051162D01*
X130999753Y-111003543D01*
X130975943Y-110908305D01*
X130975943Y-110836876D01*
X130999753Y-110741638D01*
X131023562Y-110694019D01*
X131071181Y-110646400D01*
X131142610Y-110622590D01*
X131190229Y-110622590D01*
X131261657Y-110646400D01*
X131285467Y-110670210D01*
X131737848Y-110622590D02*
X131499753Y-110622590D01*
X131475943Y-110860686D01*
X131499753Y-110836876D01*
X131547372Y-110813067D01*
X131666419Y-110813067D01*
X131714038Y-110836876D01*
X131737848Y-110860686D01*
X131761657Y-110908305D01*
X131761657Y-111027352D01*
X131737848Y-111074971D01*
X131714038Y-111098781D01*
X131666419Y-111122590D01*
X131547372Y-111122590D01*
X131499753Y-111098781D01*
X131475943Y-111074971D01*
X113970571Y-112935533D02*
X113994381Y-112959343D01*
X114018190Y-113030771D01*
X114018190Y-113078390D01*
X113994381Y-113149819D01*
X113946762Y-113197438D01*
X113899143Y-113221247D01*
X113803905Y-113245057D01*
X113732476Y-113245057D01*
X113637238Y-113221247D01*
X113589619Y-113197438D01*
X113542000Y-113149819D01*
X113518190Y-113078390D01*
X113518190Y-113030771D01*
X113542000Y-112959343D01*
X113565810Y-112935533D01*
X113518190Y-112506962D02*
X113518190Y-112602200D01*
X113542000Y-112649819D01*
X113565810Y-112673628D01*
X113637238Y-112721247D01*
X113732476Y-112745057D01*
X113922952Y-112745057D01*
X113970571Y-112721247D01*
X113994381Y-112697438D01*
X114018190Y-112649819D01*
X114018190Y-112554581D01*
X113994381Y-112506962D01*
X113970571Y-112483152D01*
X113922952Y-112459343D01*
X113803905Y-112459343D01*
X113756286Y-112483152D01*
X113732476Y-112506962D01*
X113708667Y-112554581D01*
X113708667Y-112649819D01*
X113732476Y-112697438D01*
X113756286Y-112721247D01*
X113803905Y-112745057D01*
X138237287Y-87359695D02*
X138213477Y-87383505D01*
X138142049Y-87407314D01*
X138094430Y-87407314D01*
X138023001Y-87383505D01*
X137975382Y-87335886D01*
X137951573Y-87288267D01*
X137927763Y-87193029D01*
X137927763Y-87121600D01*
X137951573Y-87026362D01*
X137975382Y-86978743D01*
X138023001Y-86931124D01*
X138094430Y-86907314D01*
X138142049Y-86907314D01*
X138213477Y-86931124D01*
X138237287Y-86954934D01*
X138403954Y-86907314D02*
X138737287Y-86907314D01*
X138523001Y-87407314D01*
X132885667Y-119837971D02*
X132861857Y-119861781D01*
X132790429Y-119885590D01*
X132742810Y-119885590D01*
X132671381Y-119861781D01*
X132623762Y-119814162D01*
X132599953Y-119766543D01*
X132576143Y-119671305D01*
X132576143Y-119599876D01*
X132599953Y-119504638D01*
X132623762Y-119457019D01*
X132671381Y-119409400D01*
X132742810Y-119385590D01*
X132790429Y-119385590D01*
X132861857Y-119409400D01*
X132885667Y-119433210D01*
X133171381Y-119599876D02*
X133123762Y-119576067D01*
X133099953Y-119552257D01*
X133076143Y-119504638D01*
X133076143Y-119480829D01*
X133099953Y-119433210D01*
X133123762Y-119409400D01*
X133171381Y-119385590D01*
X133266619Y-119385590D01*
X133314238Y-119409400D01*
X133338048Y-119433210D01*
X133361857Y-119480829D01*
X133361857Y-119504638D01*
X133338048Y-119552257D01*
X133314238Y-119576067D01*
X133266619Y-119599876D01*
X133171381Y-119599876D01*
X133123762Y-119623686D01*
X133099953Y-119647495D01*
X133076143Y-119695114D01*
X133076143Y-119790352D01*
X133099953Y-119837971D01*
X133123762Y-119861781D01*
X133171381Y-119885590D01*
X133266619Y-119885590D01*
X133314238Y-119861781D01*
X133338048Y-119837971D01*
X133361857Y-119790352D01*
X133361857Y-119695114D01*
X133338048Y-119647495D01*
X133314238Y-119623686D01*
X133266619Y-119599876D01*
X108933467Y-105994971D02*
X108909657Y-106018781D01*
X108838229Y-106042590D01*
X108790610Y-106042590D01*
X108719181Y-106018781D01*
X108671562Y-105971162D01*
X108647753Y-105923543D01*
X108623943Y-105828305D01*
X108623943Y-105756876D01*
X108647753Y-105661638D01*
X108671562Y-105614019D01*
X108719181Y-105566400D01*
X108790610Y-105542590D01*
X108838229Y-105542590D01*
X108909657Y-105566400D01*
X108933467Y-105590210D01*
X109171562Y-106042590D02*
X109266800Y-106042590D01*
X109314419Y-106018781D01*
X109338229Y-105994971D01*
X109385848Y-105923543D01*
X109409657Y-105828305D01*
X109409657Y-105637829D01*
X109385848Y-105590210D01*
X109362038Y-105566400D01*
X109314419Y-105542590D01*
X109219181Y-105542590D01*
X109171562Y-105566400D01*
X109147753Y-105590210D01*
X109123943Y-105637829D01*
X109123943Y-105756876D01*
X109147753Y-105804495D01*
X109171562Y-105828305D01*
X109219181Y-105852114D01*
X109314419Y-105852114D01*
X109362038Y-105828305D01*
X109385848Y-105804495D01*
X109409657Y-105756876D01*
X132377791Y-85876952D02*
X132401601Y-85900762D01*
X132425410Y-85972190D01*
X132425410Y-86019809D01*
X132401601Y-86091238D01*
X132353982Y-86138857D01*
X132306363Y-86162666D01*
X132211125Y-86186476D01*
X132139696Y-86186476D01*
X132044458Y-86162666D01*
X131996839Y-86138857D01*
X131949220Y-86091238D01*
X131925410Y-86019809D01*
X131925410Y-85972190D01*
X131949220Y-85900762D01*
X131973030Y-85876952D01*
X132425410Y-85400762D02*
X132425410Y-85686476D01*
X132425410Y-85543619D02*
X131925410Y-85543619D01*
X131996839Y-85591238D01*
X132044458Y-85638857D01*
X132068268Y-85686476D01*
X131925410Y-85091238D02*
X131925410Y-85043619D01*
X131949220Y-84996000D01*
X131973030Y-84972191D01*
X132020649Y-84948381D01*
X132115887Y-84924572D01*
X132234934Y-84924572D01*
X132330172Y-84948381D01*
X132377791Y-84972191D01*
X132401601Y-84996000D01*
X132425410Y-85043619D01*
X132425410Y-85091238D01*
X132401601Y-85138857D01*
X132377791Y-85162667D01*
X132330172Y-85186476D01*
X132234934Y-85210286D01*
X132115887Y-85210286D01*
X132020649Y-85186476D01*
X131973030Y-85162667D01*
X131949220Y-85138857D01*
X131925410Y-85091238D01*
X108339772Y-97257371D02*
X108315962Y-97281181D01*
X108244534Y-97304990D01*
X108196915Y-97304990D01*
X108125486Y-97281181D01*
X108077867Y-97233562D01*
X108054058Y-97185943D01*
X108030248Y-97090705D01*
X108030248Y-97019276D01*
X108054058Y-96924038D01*
X108077867Y-96876419D01*
X108125486Y-96828800D01*
X108196915Y-96804990D01*
X108244534Y-96804990D01*
X108315962Y-96828800D01*
X108339772Y-96852610D01*
X108815962Y-97304990D02*
X108530248Y-97304990D01*
X108673105Y-97304990D02*
X108673105Y-96804990D01*
X108625486Y-96876419D01*
X108577867Y-96924038D01*
X108530248Y-96947848D01*
X109292152Y-97304990D02*
X109006438Y-97304990D01*
X109149295Y-97304990D02*
X109149295Y-96804990D01*
X109101676Y-96876419D01*
X109054057Y-96924038D01*
X109006438Y-96947848D01*
X132377791Y-83590952D02*
X132401601Y-83614762D01*
X132425410Y-83686190D01*
X132425410Y-83733809D01*
X132401601Y-83805238D01*
X132353982Y-83852857D01*
X132306363Y-83876666D01*
X132211125Y-83900476D01*
X132139696Y-83900476D01*
X132044458Y-83876666D01*
X131996839Y-83852857D01*
X131949220Y-83805238D01*
X131925410Y-83733809D01*
X131925410Y-83686190D01*
X131949220Y-83614762D01*
X131973030Y-83590952D01*
X132425410Y-83114762D02*
X132425410Y-83400476D01*
X132425410Y-83257619D02*
X131925410Y-83257619D01*
X131996839Y-83305238D01*
X132044458Y-83352857D01*
X132068268Y-83400476D01*
X131973030Y-82924286D02*
X131949220Y-82900476D01*
X131925410Y-82852857D01*
X131925410Y-82733810D01*
X131949220Y-82686191D01*
X131973030Y-82662381D01*
X132020649Y-82638572D01*
X132068268Y-82638572D01*
X132139696Y-82662381D01*
X132425410Y-82948095D01*
X132425410Y-82638572D01*
X139937372Y-110744771D02*
X139913562Y-110768581D01*
X139842134Y-110792390D01*
X139794515Y-110792390D01*
X139723086Y-110768581D01*
X139675467Y-110720962D01*
X139651658Y-110673343D01*
X139627848Y-110578105D01*
X139627848Y-110506676D01*
X139651658Y-110411438D01*
X139675467Y-110363819D01*
X139723086Y-110316200D01*
X139794515Y-110292390D01*
X139842134Y-110292390D01*
X139913562Y-110316200D01*
X139937372Y-110340010D01*
X140413562Y-110792390D02*
X140127848Y-110792390D01*
X140270705Y-110792390D02*
X140270705Y-110292390D01*
X140223086Y-110363819D01*
X140175467Y-110411438D01*
X140127848Y-110435248D01*
X140580229Y-110292390D02*
X140889752Y-110292390D01*
X140723086Y-110482867D01*
X140794514Y-110482867D01*
X140842133Y-110506676D01*
X140865943Y-110530486D01*
X140889752Y-110578105D01*
X140889752Y-110697152D01*
X140865943Y-110744771D01*
X140842133Y-110768581D01*
X140794514Y-110792390D01*
X140651657Y-110792390D01*
X140604038Y-110768581D01*
X140580229Y-110744771D01*
X142121772Y-110728771D02*
X142097962Y-110752581D01*
X142026534Y-110776390D01*
X141978915Y-110776390D01*
X141907486Y-110752581D01*
X141859867Y-110704962D01*
X141836058Y-110657343D01*
X141812248Y-110562105D01*
X141812248Y-110490676D01*
X141836058Y-110395438D01*
X141859867Y-110347819D01*
X141907486Y-110300200D01*
X141978915Y-110276390D01*
X142026534Y-110276390D01*
X142097962Y-110300200D01*
X142121772Y-110324010D01*
X142597962Y-110776390D02*
X142312248Y-110776390D01*
X142455105Y-110776390D02*
X142455105Y-110276390D01*
X142407486Y-110347819D01*
X142359867Y-110395438D01*
X142312248Y-110419248D01*
X143026533Y-110443057D02*
X143026533Y-110776390D01*
X142907486Y-110252581D02*
X142788438Y-110609724D01*
X143097962Y-110609724D01*
X110447972Y-97273371D02*
X110424162Y-97297181D01*
X110352734Y-97320990D01*
X110305115Y-97320990D01*
X110233686Y-97297181D01*
X110186067Y-97249562D01*
X110162258Y-97201943D01*
X110138448Y-97106705D01*
X110138448Y-97035276D01*
X110162258Y-96940038D01*
X110186067Y-96892419D01*
X110233686Y-96844800D01*
X110305115Y-96820990D01*
X110352734Y-96820990D01*
X110424162Y-96844800D01*
X110447972Y-96868610D01*
X110924162Y-97320990D02*
X110638448Y-97320990D01*
X110781305Y-97320990D02*
X110781305Y-96820990D01*
X110733686Y-96892419D01*
X110686067Y-96940038D01*
X110638448Y-96963848D01*
X111376543Y-96820990D02*
X111138448Y-96820990D01*
X111114638Y-97059086D01*
X111138448Y-97035276D01*
X111186067Y-97011467D01*
X111305114Y-97011467D01*
X111352733Y-97035276D01*
X111376543Y-97059086D01*
X111400352Y-97106705D01*
X111400352Y-97225752D01*
X111376543Y-97273371D01*
X111352733Y-97297181D01*
X111305114Y-97320990D01*
X111186067Y-97320990D01*
X111138448Y-97297181D01*
X111114638Y-97273371D01*
X122276371Y-102531028D02*
X122300181Y-102554838D01*
X122323990Y-102626266D01*
X122323990Y-102673885D01*
X122300181Y-102745314D01*
X122252562Y-102792933D01*
X122204943Y-102816742D01*
X122109705Y-102840552D01*
X122038276Y-102840552D01*
X121943038Y-102816742D01*
X121895419Y-102792933D01*
X121847800Y-102745314D01*
X121823990Y-102673885D01*
X121823990Y-102626266D01*
X121847800Y-102554838D01*
X121871610Y-102531028D01*
X122323990Y-102054838D02*
X122323990Y-102340552D01*
X122323990Y-102197695D02*
X121823990Y-102197695D01*
X121895419Y-102245314D01*
X121943038Y-102292933D01*
X121966848Y-102340552D01*
X122038276Y-101769124D02*
X122014467Y-101816743D01*
X121990657Y-101840552D01*
X121943038Y-101864362D01*
X121919229Y-101864362D01*
X121871610Y-101840552D01*
X121847800Y-101816743D01*
X121823990Y-101769124D01*
X121823990Y-101673886D01*
X121847800Y-101626267D01*
X121871610Y-101602457D01*
X121919229Y-101578648D01*
X121943038Y-101578648D01*
X121990657Y-101602457D01*
X122014467Y-101626267D01*
X122038276Y-101673886D01*
X122038276Y-101769124D01*
X122062086Y-101816743D01*
X122085895Y-101840552D01*
X122133514Y-101864362D01*
X122228752Y-101864362D01*
X122276371Y-101840552D01*
X122300181Y-101816743D01*
X122323990Y-101769124D01*
X122323990Y-101673886D01*
X122300181Y-101626267D01*
X122276371Y-101602457D01*
X122228752Y-101578648D01*
X122133514Y-101578648D01*
X122085895Y-101602457D01*
X122062086Y-101626267D01*
X122038276Y-101673886D01*
X129802772Y-100457771D02*
X129778962Y-100481581D01*
X129707534Y-100505390D01*
X129659915Y-100505390D01*
X129588486Y-100481581D01*
X129540867Y-100433962D01*
X129517058Y-100386343D01*
X129493248Y-100291105D01*
X129493248Y-100219676D01*
X129517058Y-100124438D01*
X129540867Y-100076819D01*
X129588486Y-100029200D01*
X129659915Y-100005390D01*
X129707534Y-100005390D01*
X129778962Y-100029200D01*
X129802772Y-100053010D01*
X130278962Y-100505390D02*
X129993248Y-100505390D01*
X130136105Y-100505390D02*
X130136105Y-100005390D01*
X130088486Y-100076819D01*
X130040867Y-100124438D01*
X129993248Y-100148248D01*
X130517057Y-100505390D02*
X130612295Y-100505390D01*
X130659914Y-100481581D01*
X130683724Y-100457771D01*
X130731343Y-100386343D01*
X130755152Y-100291105D01*
X130755152Y-100100629D01*
X130731343Y-100053010D01*
X130707533Y-100029200D01*
X130659914Y-100005390D01*
X130564676Y-100005390D01*
X130517057Y-100029200D01*
X130493248Y-100053010D01*
X130469438Y-100100629D01*
X130469438Y-100219676D01*
X130493248Y-100267295D01*
X130517057Y-100291105D01*
X130564676Y-100314914D01*
X130659914Y-100314914D01*
X130707533Y-100291105D01*
X130731343Y-100267295D01*
X130755152Y-100219676D01*
X127338972Y-100483171D02*
X127315162Y-100506981D01*
X127243734Y-100530790D01*
X127196115Y-100530790D01*
X127124686Y-100506981D01*
X127077067Y-100459362D01*
X127053258Y-100411743D01*
X127029448Y-100316505D01*
X127029448Y-100245076D01*
X127053258Y-100149838D01*
X127077067Y-100102219D01*
X127124686Y-100054600D01*
X127196115Y-100030790D01*
X127243734Y-100030790D01*
X127315162Y-100054600D01*
X127338972Y-100078410D01*
X127529448Y-100078410D02*
X127553258Y-100054600D01*
X127600877Y-100030790D01*
X127719924Y-100030790D01*
X127767543Y-100054600D01*
X127791353Y-100078410D01*
X127815162Y-100126029D01*
X127815162Y-100173648D01*
X127791353Y-100245076D01*
X127505639Y-100530790D01*
X127815162Y-100530790D01*
X128124686Y-100030790D02*
X128172305Y-100030790D01*
X128219924Y-100054600D01*
X128243733Y-100078410D01*
X128267543Y-100126029D01*
X128291352Y-100221267D01*
X128291352Y-100340314D01*
X128267543Y-100435552D01*
X128243733Y-100483171D01*
X128219924Y-100506981D01*
X128172305Y-100530790D01*
X128124686Y-100530790D01*
X128077067Y-100506981D01*
X128053257Y-100483171D01*
X128029448Y-100435552D01*
X128005638Y-100340314D01*
X128005638Y-100221267D01*
X128029448Y-100126029D01*
X128053257Y-100078410D01*
X128077067Y-100054600D01*
X128124686Y-100030790D01*
X158916271Y-90855136D02*
X158940081Y-90878946D01*
X158963890Y-90950374D01*
X158963890Y-90997993D01*
X158940081Y-91069422D01*
X158892462Y-91117041D01*
X158844843Y-91140850D01*
X158749605Y-91164660D01*
X158678176Y-91164660D01*
X158582938Y-91140850D01*
X158535319Y-91117041D01*
X158487700Y-91069422D01*
X158463890Y-90997993D01*
X158463890Y-90950374D01*
X158487700Y-90878946D01*
X158511510Y-90855136D01*
X158511510Y-90664660D02*
X158487700Y-90640850D01*
X158463890Y-90593231D01*
X158463890Y-90474184D01*
X158487700Y-90426565D01*
X158511510Y-90402755D01*
X158559129Y-90378946D01*
X158606748Y-90378946D01*
X158678176Y-90402755D01*
X158963890Y-90688469D01*
X158963890Y-90378946D01*
X158963890Y-89902756D02*
X158963890Y-90188470D01*
X158963890Y-90045613D02*
X158463890Y-90045613D01*
X158535319Y-90093232D01*
X158582938Y-90140851D01*
X158606748Y-90188470D01*
X103005772Y-91516971D02*
X102981962Y-91540781D01*
X102910534Y-91564590D01*
X102862915Y-91564590D01*
X102791486Y-91540781D01*
X102743867Y-91493162D01*
X102720058Y-91445543D01*
X102696248Y-91350305D01*
X102696248Y-91278876D01*
X102720058Y-91183638D01*
X102743867Y-91136019D01*
X102791486Y-91088400D01*
X102862915Y-91064590D01*
X102910534Y-91064590D01*
X102981962Y-91088400D01*
X103005772Y-91112210D01*
X103196248Y-91112210D02*
X103220058Y-91088400D01*
X103267677Y-91064590D01*
X103386724Y-91064590D01*
X103434343Y-91088400D01*
X103458153Y-91112210D01*
X103481962Y-91159829D01*
X103481962Y-91207448D01*
X103458153Y-91278876D01*
X103172439Y-91564590D01*
X103481962Y-91564590D01*
X103910533Y-91231257D02*
X103910533Y-91564590D01*
X103791486Y-91040781D02*
X103672438Y-91397924D01*
X103981962Y-91397924D01*
X152752072Y-84247279D02*
X152728262Y-84271089D01*
X152656834Y-84294898D01*
X152609215Y-84294898D01*
X152537786Y-84271089D01*
X152490167Y-84223470D01*
X152466358Y-84175851D01*
X152442548Y-84080613D01*
X152442548Y-84009184D01*
X152466358Y-83913946D01*
X152490167Y-83866327D01*
X152537786Y-83818708D01*
X152609215Y-83794898D01*
X152656834Y-83794898D01*
X152728262Y-83818708D01*
X152752072Y-83842518D01*
X152942548Y-83842518D02*
X152966358Y-83818708D01*
X153013977Y-83794898D01*
X153133024Y-83794898D01*
X153180643Y-83818708D01*
X153204453Y-83842518D01*
X153228262Y-83890137D01*
X153228262Y-83937756D01*
X153204453Y-84009184D01*
X152918739Y-84294898D01*
X153228262Y-84294898D01*
X153680643Y-83794898D02*
X153442548Y-83794898D01*
X153418738Y-84032994D01*
X153442548Y-84009184D01*
X153490167Y-83985375D01*
X153609214Y-83985375D01*
X153656833Y-84009184D01*
X153680643Y-84032994D01*
X153704452Y-84080613D01*
X153704452Y-84199660D01*
X153680643Y-84247279D01*
X153656833Y-84271089D01*
X153609214Y-84294898D01*
X153490167Y-84294898D01*
X153442548Y-84271089D01*
X153418738Y-84247279D01*
X151075672Y-84260679D02*
X151051862Y-84284489D01*
X150980434Y-84308298D01*
X150932815Y-84308298D01*
X150861386Y-84284489D01*
X150813767Y-84236870D01*
X150789958Y-84189251D01*
X150766148Y-84094013D01*
X150766148Y-84022584D01*
X150789958Y-83927346D01*
X150813767Y-83879727D01*
X150861386Y-83832108D01*
X150932815Y-83808298D01*
X150980434Y-83808298D01*
X151051862Y-83832108D01*
X151075672Y-83855918D01*
X151266148Y-83855918D02*
X151289958Y-83832108D01*
X151337577Y-83808298D01*
X151456624Y-83808298D01*
X151504243Y-83832108D01*
X151528053Y-83855918D01*
X151551862Y-83903537D01*
X151551862Y-83951156D01*
X151528053Y-84022584D01*
X151242339Y-84308298D01*
X151551862Y-84308298D01*
X151980433Y-83808298D02*
X151885195Y-83808298D01*
X151837576Y-83832108D01*
X151813767Y-83855918D01*
X151766148Y-83927346D01*
X151742338Y-84022584D01*
X151742338Y-84213060D01*
X151766148Y-84260679D01*
X151789957Y-84284489D01*
X151837576Y-84308298D01*
X151932814Y-84308298D01*
X151980433Y-84284489D01*
X152004243Y-84260679D01*
X152028052Y-84213060D01*
X152028052Y-84094013D01*
X152004243Y-84046394D01*
X151980433Y-84022584D01*
X151932814Y-83998775D01*
X151837576Y-83998775D01*
X151789957Y-84022584D01*
X151766148Y-84046394D01*
X151742338Y-84094013D01*
X158916271Y-89432736D02*
X158940081Y-89456546D01*
X158963890Y-89527974D01*
X158963890Y-89575593D01*
X158940081Y-89647022D01*
X158892462Y-89694641D01*
X158844843Y-89718450D01*
X158749605Y-89742260D01*
X158678176Y-89742260D01*
X158582938Y-89718450D01*
X158535319Y-89694641D01*
X158487700Y-89647022D01*
X158463890Y-89575593D01*
X158463890Y-89527974D01*
X158487700Y-89456546D01*
X158511510Y-89432736D01*
X158511510Y-89242260D02*
X158487700Y-89218450D01*
X158463890Y-89170831D01*
X158463890Y-89051784D01*
X158487700Y-89004165D01*
X158511510Y-88980355D01*
X158559129Y-88956546D01*
X158606748Y-88956546D01*
X158678176Y-88980355D01*
X158963890Y-89266069D01*
X158963890Y-88956546D01*
X158463890Y-88789879D02*
X158463890Y-88456546D01*
X158963890Y-88670832D01*
X158916271Y-87172136D02*
X158940081Y-87195946D01*
X158963890Y-87267374D01*
X158963890Y-87314993D01*
X158940081Y-87386422D01*
X158892462Y-87434041D01*
X158844843Y-87457850D01*
X158749605Y-87481660D01*
X158678176Y-87481660D01*
X158582938Y-87457850D01*
X158535319Y-87434041D01*
X158487700Y-87386422D01*
X158463890Y-87314993D01*
X158463890Y-87267374D01*
X158487700Y-87195946D01*
X158511510Y-87172136D01*
X158511510Y-86981660D02*
X158487700Y-86957850D01*
X158463890Y-86910231D01*
X158463890Y-86791184D01*
X158487700Y-86743565D01*
X158511510Y-86719755D01*
X158559129Y-86695946D01*
X158606748Y-86695946D01*
X158678176Y-86719755D01*
X158963890Y-87005469D01*
X158963890Y-86695946D01*
X158678176Y-86410232D02*
X158654367Y-86457851D01*
X158630557Y-86481660D01*
X158582938Y-86505470D01*
X158559129Y-86505470D01*
X158511510Y-86481660D01*
X158487700Y-86457851D01*
X158463890Y-86410232D01*
X158463890Y-86314994D01*
X158487700Y-86267375D01*
X158511510Y-86243565D01*
X158559129Y-86219756D01*
X158582938Y-86219756D01*
X158630557Y-86243565D01*
X158654367Y-86267375D01*
X158678176Y-86314994D01*
X158678176Y-86410232D01*
X158701986Y-86457851D01*
X158725795Y-86481660D01*
X158773414Y-86505470D01*
X158868652Y-86505470D01*
X158916271Y-86481660D01*
X158940081Y-86457851D01*
X158963890Y-86410232D01*
X158963890Y-86314994D01*
X158940081Y-86267375D01*
X158916271Y-86243565D01*
X158868652Y-86219756D01*
X158773414Y-86219756D01*
X158725795Y-86243565D01*
X158701986Y-86267375D01*
X158678176Y-86314994D01*
X137998971Y-93945828D02*
X138022781Y-93969638D01*
X138046590Y-94041066D01*
X138046590Y-94088685D01*
X138022781Y-94160114D01*
X137975162Y-94207733D01*
X137927543Y-94231542D01*
X137832305Y-94255352D01*
X137760876Y-94255352D01*
X137665638Y-94231542D01*
X137618019Y-94207733D01*
X137570400Y-94160114D01*
X137546590Y-94088685D01*
X137546590Y-94041066D01*
X137570400Y-93969638D01*
X137594210Y-93945828D01*
X137594210Y-93755352D02*
X137570400Y-93731542D01*
X137546590Y-93683923D01*
X137546590Y-93564876D01*
X137570400Y-93517257D01*
X137594210Y-93493447D01*
X137641829Y-93469638D01*
X137689448Y-93469638D01*
X137760876Y-93493447D01*
X138046590Y-93779161D01*
X138046590Y-93469638D01*
X138046590Y-93231543D02*
X138046590Y-93136305D01*
X138022781Y-93088686D01*
X137998971Y-93064876D01*
X137927543Y-93017257D01*
X137832305Y-92993448D01*
X137641829Y-92993448D01*
X137594210Y-93017257D01*
X137570400Y-93041067D01*
X137546590Y-93088686D01*
X137546590Y-93183924D01*
X137570400Y-93231543D01*
X137594210Y-93255352D01*
X137641829Y-93279162D01*
X137760876Y-93279162D01*
X137808495Y-93255352D01*
X137832305Y-93231543D01*
X137856114Y-93183924D01*
X137856114Y-93088686D01*
X137832305Y-93041067D01*
X137808495Y-93017257D01*
X137760876Y-92993448D01*
X102261171Y-93698143D02*
X102284981Y-93721953D01*
X102308790Y-93793381D01*
X102308790Y-93841000D01*
X102284981Y-93912429D01*
X102237362Y-93960048D01*
X102189743Y-93983857D01*
X102094505Y-94007667D01*
X102023076Y-94007667D01*
X101927838Y-93983857D01*
X101880219Y-93960048D01*
X101832600Y-93912429D01*
X101808790Y-93841000D01*
X101808790Y-93793381D01*
X101832600Y-93721953D01*
X101856410Y-93698143D01*
X101808790Y-93388619D02*
X101808790Y-93293381D01*
X101832600Y-93245762D01*
X101880219Y-93198143D01*
X101975457Y-93174334D01*
X102142124Y-93174334D01*
X102237362Y-93198143D01*
X102284981Y-93245762D01*
X102308790Y-93293381D01*
X102308790Y-93388619D01*
X102284981Y-93436238D01*
X102237362Y-93483857D01*
X102142124Y-93507667D01*
X101975457Y-93507667D01*
X101880219Y-93483857D01*
X101832600Y-93436238D01*
X101808790Y-93388619D01*
X102308790Y-92960047D02*
X101808790Y-92960047D01*
X102308790Y-92674333D01*
X101808790Y-92674333D01*
X102308790Y-92174333D02*
X102308790Y-92460047D01*
X102308790Y-92317190D02*
X101808790Y-92317190D01*
X101880219Y-92364809D01*
X101927838Y-92412428D01*
X101951648Y-92460047D01*
X110995590Y-108903247D02*
X110495590Y-108903247D01*
X110495590Y-108784200D01*
X110519400Y-108712771D01*
X110567019Y-108665152D01*
X110614638Y-108641343D01*
X110709876Y-108617533D01*
X110781305Y-108617533D01*
X110876543Y-108641343D01*
X110924162Y-108665152D01*
X110971781Y-108712771D01*
X110995590Y-108784200D01*
X110995590Y-108903247D01*
X110995590Y-108141343D02*
X110995590Y-108427057D01*
X110995590Y-108284200D02*
X110495590Y-108284200D01*
X110567019Y-108331819D01*
X110614638Y-108379438D01*
X110638448Y-108427057D01*
X141543310Y-85809133D02*
X141543310Y-85309133D01*
X141662357Y-85309133D01*
X141733786Y-85332943D01*
X141781405Y-85380562D01*
X141805214Y-85428181D01*
X141829024Y-85523419D01*
X141829024Y-85594848D01*
X141805214Y-85690086D01*
X141781405Y-85737705D01*
X141733786Y-85785324D01*
X141662357Y-85809133D01*
X141543310Y-85809133D01*
X142019500Y-85356753D02*
X142043310Y-85332943D01*
X142090929Y-85309133D01*
X142209976Y-85309133D01*
X142257595Y-85332943D01*
X142281405Y-85356753D01*
X142305214Y-85404372D01*
X142305214Y-85451991D01*
X142281405Y-85523419D01*
X141995691Y-85809133D01*
X142305214Y-85809133D01*
X142632953Y-118793390D02*
X142632953Y-118293390D01*
X142752000Y-118293390D01*
X142823429Y-118317200D01*
X142871048Y-118364819D01*
X142894857Y-118412438D01*
X142918667Y-118507676D01*
X142918667Y-118579105D01*
X142894857Y-118674343D01*
X142871048Y-118721962D01*
X142823429Y-118769581D01*
X142752000Y-118793390D01*
X142632953Y-118793390D01*
X143085334Y-118293390D02*
X143394857Y-118293390D01*
X143228191Y-118483867D01*
X143299619Y-118483867D01*
X143347238Y-118507676D01*
X143371048Y-118531486D01*
X143394857Y-118579105D01*
X143394857Y-118698152D01*
X143371048Y-118745771D01*
X143347238Y-118769581D01*
X143299619Y-118793390D01*
X143156762Y-118793390D01*
X143109143Y-118769581D01*
X143085334Y-118745771D01*
X149446467Y-74724390D02*
X149279800Y-74486295D01*
X149160753Y-74724390D02*
X149160753Y-74224390D01*
X149351229Y-74224390D01*
X149398848Y-74248200D01*
X149422657Y-74272010D01*
X149446467Y-74319629D01*
X149446467Y-74391057D01*
X149422657Y-74438676D01*
X149398848Y-74462486D01*
X149351229Y-74486295D01*
X149160753Y-74486295D01*
X149922657Y-74724390D02*
X149636943Y-74724390D01*
X149779800Y-74724390D02*
X149779800Y-74224390D01*
X149732181Y-74295819D01*
X149684562Y-74343438D01*
X149636943Y-74367248D01*
X152011867Y-74698990D02*
X151845200Y-74460895D01*
X151726153Y-74698990D02*
X151726153Y-74198990D01*
X151916629Y-74198990D01*
X151964248Y-74222800D01*
X151988057Y-74246610D01*
X152011867Y-74294229D01*
X152011867Y-74365657D01*
X151988057Y-74413276D01*
X151964248Y-74437086D01*
X151916629Y-74460895D01*
X151726153Y-74460895D01*
X152202343Y-74246610D02*
X152226153Y-74222800D01*
X152273772Y-74198990D01*
X152392819Y-74198990D01*
X152440438Y-74222800D01*
X152464248Y-74246610D01*
X152488057Y-74294229D01*
X152488057Y-74341848D01*
X152464248Y-74413276D01*
X152178534Y-74698990D01*
X152488057Y-74698990D01*
X104361467Y-101558790D02*
X104194800Y-101320695D01*
X104075753Y-101558790D02*
X104075753Y-101058790D01*
X104266229Y-101058790D01*
X104313848Y-101082600D01*
X104337657Y-101106410D01*
X104361467Y-101154029D01*
X104361467Y-101225457D01*
X104337657Y-101273076D01*
X104313848Y-101296886D01*
X104266229Y-101320695D01*
X104075753Y-101320695D01*
X104528134Y-101058790D02*
X104837657Y-101058790D01*
X104670991Y-101249267D01*
X104742419Y-101249267D01*
X104790038Y-101273076D01*
X104813848Y-101296886D01*
X104837657Y-101344505D01*
X104837657Y-101463552D01*
X104813848Y-101511171D01*
X104790038Y-101534981D01*
X104742419Y-101558790D01*
X104599562Y-101558790D01*
X104551943Y-101534981D01*
X104528134Y-101511171D01*
X139341990Y-116466133D02*
X139103895Y-116632800D01*
X139341990Y-116751847D02*
X138841990Y-116751847D01*
X138841990Y-116561371D01*
X138865800Y-116513752D01*
X138889610Y-116489943D01*
X138937229Y-116466133D01*
X139008657Y-116466133D01*
X139056276Y-116489943D01*
X139080086Y-116513752D01*
X139103895Y-116561371D01*
X139103895Y-116751847D01*
X139008657Y-116037562D02*
X139341990Y-116037562D01*
X138818181Y-116156609D02*
X139175324Y-116275657D01*
X139175324Y-115966133D01*
X106622067Y-98561590D02*
X106455400Y-98323495D01*
X106336353Y-98561590D02*
X106336353Y-98061590D01*
X106526829Y-98061590D01*
X106574448Y-98085400D01*
X106598257Y-98109210D01*
X106622067Y-98156829D01*
X106622067Y-98228257D01*
X106598257Y-98275876D01*
X106574448Y-98299686D01*
X106526829Y-98323495D01*
X106336353Y-98323495D01*
X107074448Y-98061590D02*
X106836353Y-98061590D01*
X106812543Y-98299686D01*
X106836353Y-98275876D01*
X106883972Y-98252067D01*
X107003019Y-98252067D01*
X107050638Y-98275876D01*
X107074448Y-98299686D01*
X107098257Y-98347305D01*
X107098257Y-98466352D01*
X107074448Y-98513971D01*
X107050638Y-98537781D01*
X107003019Y-98561590D01*
X106883972Y-98561590D01*
X106836353Y-98537781D01*
X106812543Y-98513971D01*
X106622067Y-92490990D02*
X106455400Y-92252895D01*
X106336353Y-92490990D02*
X106336353Y-91990990D01*
X106526829Y-91990990D01*
X106574448Y-92014800D01*
X106598257Y-92038610D01*
X106622067Y-92086229D01*
X106622067Y-92157657D01*
X106598257Y-92205276D01*
X106574448Y-92229086D01*
X106526829Y-92252895D01*
X106336353Y-92252895D01*
X107050638Y-91990990D02*
X106955400Y-91990990D01*
X106907781Y-92014800D01*
X106883972Y-92038610D01*
X106836353Y-92110038D01*
X106812543Y-92205276D01*
X106812543Y-92395752D01*
X106836353Y-92443371D01*
X106860162Y-92467181D01*
X106907781Y-92490990D01*
X107003019Y-92490990D01*
X107050638Y-92467181D01*
X107074448Y-92443371D01*
X107098257Y-92395752D01*
X107098257Y-92276705D01*
X107074448Y-92229086D01*
X107050638Y-92205276D01*
X107003019Y-92181467D01*
X106907781Y-92181467D01*
X106860162Y-92205276D01*
X106836353Y-92229086D01*
X106812543Y-92276705D01*
X112184667Y-113383190D02*
X112018000Y-113145095D01*
X111898953Y-113383190D02*
X111898953Y-112883190D01*
X112089429Y-112883190D01*
X112137048Y-112907000D01*
X112160857Y-112930810D01*
X112184667Y-112978429D01*
X112184667Y-113049857D01*
X112160857Y-113097476D01*
X112137048Y-113121286D01*
X112089429Y-113145095D01*
X111898953Y-113145095D01*
X112351334Y-112883190D02*
X112684667Y-112883190D01*
X112470381Y-113383190D01*
X108633390Y-112351333D02*
X108395295Y-112518000D01*
X108633390Y-112637047D02*
X108133390Y-112637047D01*
X108133390Y-112446571D01*
X108157200Y-112398952D01*
X108181010Y-112375143D01*
X108228629Y-112351333D01*
X108300057Y-112351333D01*
X108347676Y-112375143D01*
X108371486Y-112398952D01*
X108395295Y-112446571D01*
X108395295Y-112637047D01*
X108347676Y-112065619D02*
X108323867Y-112113238D01*
X108300057Y-112137047D01*
X108252438Y-112160857D01*
X108228629Y-112160857D01*
X108181010Y-112137047D01*
X108157200Y-112113238D01*
X108133390Y-112065619D01*
X108133390Y-111970381D01*
X108157200Y-111922762D01*
X108181010Y-111898952D01*
X108228629Y-111875143D01*
X108252438Y-111875143D01*
X108300057Y-111898952D01*
X108323867Y-111922762D01*
X108347676Y-111970381D01*
X108347676Y-112065619D01*
X108371486Y-112113238D01*
X108395295Y-112137047D01*
X108442914Y-112160857D01*
X108538152Y-112160857D01*
X108585771Y-112137047D01*
X108609581Y-112113238D01*
X108633390Y-112065619D01*
X108633390Y-111970381D01*
X108609581Y-111922762D01*
X108585771Y-111898952D01*
X108538152Y-111875143D01*
X108442914Y-111875143D01*
X108395295Y-111898952D01*
X108371486Y-111922762D01*
X108347676Y-111970381D01*
X139341990Y-118218733D02*
X139103895Y-118385400D01*
X139341990Y-118504447D02*
X138841990Y-118504447D01*
X138841990Y-118313971D01*
X138865800Y-118266352D01*
X138889610Y-118242543D01*
X138937229Y-118218733D01*
X139008657Y-118218733D01*
X139056276Y-118242543D01*
X139080086Y-118266352D01*
X139103895Y-118313971D01*
X139103895Y-118504447D01*
X139341990Y-117980638D02*
X139341990Y-117885400D01*
X139318181Y-117837781D01*
X139294371Y-117813971D01*
X139222943Y-117766352D01*
X139127705Y-117742543D01*
X138937229Y-117742543D01*
X138889610Y-117766352D01*
X138865800Y-117790162D01*
X138841990Y-117837781D01*
X138841990Y-117933019D01*
X138865800Y-117980638D01*
X138889610Y-118004447D01*
X138937229Y-118028257D01*
X139056276Y-118028257D01*
X139103895Y-118004447D01*
X139127705Y-117980638D01*
X139151514Y-117933019D01*
X139151514Y-117837781D01*
X139127705Y-117790162D01*
X139103895Y-117766352D01*
X139056276Y-117742543D01*
X132799972Y-111173390D02*
X132633305Y-110935295D01*
X132514258Y-111173390D02*
X132514258Y-110673390D01*
X132704734Y-110673390D01*
X132752353Y-110697200D01*
X132776162Y-110721010D01*
X132799972Y-110768629D01*
X132799972Y-110840057D01*
X132776162Y-110887676D01*
X132752353Y-110911486D01*
X132704734Y-110935295D01*
X132514258Y-110935295D01*
X133276162Y-111173390D02*
X132990448Y-111173390D01*
X133133305Y-111173390D02*
X133133305Y-110673390D01*
X133085686Y-110744819D01*
X133038067Y-110792438D01*
X132990448Y-110816248D01*
X133585686Y-110673390D02*
X133633305Y-110673390D01*
X133680924Y-110697200D01*
X133704733Y-110721010D01*
X133728543Y-110768629D01*
X133752352Y-110863867D01*
X133752352Y-110982914D01*
X133728543Y-111078152D01*
X133704733Y-111125771D01*
X133680924Y-111149581D01*
X133633305Y-111173390D01*
X133585686Y-111173390D01*
X133538067Y-111149581D01*
X133514257Y-111125771D01*
X133490448Y-111078152D01*
X133466638Y-110982914D01*
X133466638Y-110863867D01*
X133490448Y-110768629D01*
X133514257Y-110721010D01*
X133538067Y-110697200D01*
X133585686Y-110673390D01*
X114359572Y-111960790D02*
X114192905Y-111722695D01*
X114073858Y-111960790D02*
X114073858Y-111460790D01*
X114264334Y-111460790D01*
X114311953Y-111484600D01*
X114335762Y-111508410D01*
X114359572Y-111556029D01*
X114359572Y-111627457D01*
X114335762Y-111675076D01*
X114311953Y-111698886D01*
X114264334Y-111722695D01*
X114073858Y-111722695D01*
X114835762Y-111960790D02*
X114550048Y-111960790D01*
X114692905Y-111960790D02*
X114692905Y-111460790D01*
X114645286Y-111532219D01*
X114597667Y-111579838D01*
X114550048Y-111603648D01*
X115311952Y-111960790D02*
X115026238Y-111960790D01*
X115169095Y-111960790D02*
X115169095Y-111460790D01*
X115121476Y-111532219D01*
X115073857Y-111579838D01*
X115026238Y-111603648D01*
X116086772Y-111935390D02*
X115920105Y-111697295D01*
X115801058Y-111935390D02*
X115801058Y-111435390D01*
X115991534Y-111435390D01*
X116039153Y-111459200D01*
X116062962Y-111483010D01*
X116086772Y-111530629D01*
X116086772Y-111602057D01*
X116062962Y-111649676D01*
X116039153Y-111673486D01*
X115991534Y-111697295D01*
X115801058Y-111697295D01*
X116562962Y-111935390D02*
X116277248Y-111935390D01*
X116420105Y-111935390D02*
X116420105Y-111435390D01*
X116372486Y-111506819D01*
X116324867Y-111554438D01*
X116277248Y-111578248D01*
X116753438Y-111483010D02*
X116777248Y-111459200D01*
X116824867Y-111435390D01*
X116943914Y-111435390D01*
X116991533Y-111459200D01*
X117015343Y-111483010D01*
X117039152Y-111530629D01*
X117039152Y-111578248D01*
X117015343Y-111649676D01*
X116729629Y-111935390D01*
X117039152Y-111935390D01*
X121180990Y-107788828D02*
X120942895Y-107955495D01*
X121180990Y-108074542D02*
X120680990Y-108074542D01*
X120680990Y-107884066D01*
X120704800Y-107836447D01*
X120728610Y-107812638D01*
X120776229Y-107788828D01*
X120847657Y-107788828D01*
X120895276Y-107812638D01*
X120919086Y-107836447D01*
X120942895Y-107884066D01*
X120942895Y-108074542D01*
X121180990Y-107312638D02*
X121180990Y-107598352D01*
X121180990Y-107455495D02*
X120680990Y-107455495D01*
X120752419Y-107503114D01*
X120800038Y-107550733D01*
X120823848Y-107598352D01*
X120680990Y-107145971D02*
X120680990Y-106836448D01*
X120871467Y-107003114D01*
X120871467Y-106931686D01*
X120895276Y-106884067D01*
X120919086Y-106860257D01*
X120966705Y-106836448D01*
X121085752Y-106836448D01*
X121133371Y-106860257D01*
X121157181Y-106884067D01*
X121180990Y-106931686D01*
X121180990Y-107074543D01*
X121157181Y-107122162D01*
X121133371Y-107145971D01*
X121180990Y-109541428D02*
X120942895Y-109708095D01*
X121180990Y-109827142D02*
X120680990Y-109827142D01*
X120680990Y-109636666D01*
X120704800Y-109589047D01*
X120728610Y-109565238D01*
X120776229Y-109541428D01*
X120847657Y-109541428D01*
X120895276Y-109565238D01*
X120919086Y-109589047D01*
X120942895Y-109636666D01*
X120942895Y-109827142D01*
X121180990Y-109065238D02*
X121180990Y-109350952D01*
X121180990Y-109208095D02*
X120680990Y-109208095D01*
X120752419Y-109255714D01*
X120800038Y-109303333D01*
X120823848Y-109350952D01*
X120847657Y-108636667D02*
X121180990Y-108636667D01*
X120657181Y-108755714D02*
X121014324Y-108874762D01*
X121014324Y-108565238D01*
X104112190Y-108550828D02*
X103874095Y-108717495D01*
X104112190Y-108836542D02*
X103612190Y-108836542D01*
X103612190Y-108646066D01*
X103636000Y-108598447D01*
X103659810Y-108574638D01*
X103707429Y-108550828D01*
X103778857Y-108550828D01*
X103826476Y-108574638D01*
X103850286Y-108598447D01*
X103874095Y-108646066D01*
X103874095Y-108836542D01*
X104112190Y-108074638D02*
X104112190Y-108360352D01*
X104112190Y-108217495D02*
X103612190Y-108217495D01*
X103683619Y-108265114D01*
X103731238Y-108312733D01*
X103755048Y-108360352D01*
X103612190Y-107622257D02*
X103612190Y-107860352D01*
X103850286Y-107884162D01*
X103826476Y-107860352D01*
X103802667Y-107812733D01*
X103802667Y-107693686D01*
X103826476Y-107646067D01*
X103850286Y-107622257D01*
X103897905Y-107598448D01*
X104016952Y-107598448D01*
X104064571Y-107622257D01*
X104088381Y-107646067D01*
X104112190Y-107693686D01*
X104112190Y-107812733D01*
X104088381Y-107860352D01*
X104064571Y-107884162D01*
X102410390Y-104182028D02*
X102172295Y-104348695D01*
X102410390Y-104467742D02*
X101910390Y-104467742D01*
X101910390Y-104277266D01*
X101934200Y-104229647D01*
X101958010Y-104205838D01*
X102005629Y-104182028D01*
X102077057Y-104182028D01*
X102124676Y-104205838D01*
X102148486Y-104229647D01*
X102172295Y-104277266D01*
X102172295Y-104467742D01*
X102410390Y-103705838D02*
X102410390Y-103991552D01*
X102410390Y-103848695D02*
X101910390Y-103848695D01*
X101981819Y-103896314D01*
X102029438Y-103943933D01*
X102053248Y-103991552D01*
X101910390Y-103277267D02*
X101910390Y-103372505D01*
X101934200Y-103420124D01*
X101958010Y-103443933D01*
X102029438Y-103491552D01*
X102124676Y-103515362D01*
X102315152Y-103515362D01*
X102362771Y-103491552D01*
X102386581Y-103467743D01*
X102410390Y-103420124D01*
X102410390Y-103324886D01*
X102386581Y-103277267D01*
X102362771Y-103253457D01*
X102315152Y-103229648D01*
X102196105Y-103229648D01*
X102148486Y-103253457D01*
X102124676Y-103277267D01*
X102100867Y-103324886D01*
X102100867Y-103420124D01*
X102124676Y-103467743D01*
X102148486Y-103491552D01*
X102196105Y-103515362D01*
X110970190Y-110252628D02*
X110732095Y-110419295D01*
X110970190Y-110538342D02*
X110470190Y-110538342D01*
X110470190Y-110347866D01*
X110494000Y-110300247D01*
X110517810Y-110276438D01*
X110565429Y-110252628D01*
X110636857Y-110252628D01*
X110684476Y-110276438D01*
X110708286Y-110300247D01*
X110732095Y-110347866D01*
X110732095Y-110538342D01*
X110970190Y-109776438D02*
X110970190Y-110062152D01*
X110970190Y-109919295D02*
X110470190Y-109919295D01*
X110541619Y-109966914D01*
X110589238Y-110014533D01*
X110613048Y-110062152D01*
X110470190Y-109609771D02*
X110470190Y-109276438D01*
X110970190Y-109490724D01*
X105432990Y-102785028D02*
X105194895Y-102951695D01*
X105432990Y-103070742D02*
X104932990Y-103070742D01*
X104932990Y-102880266D01*
X104956800Y-102832647D01*
X104980610Y-102808838D01*
X105028229Y-102785028D01*
X105099657Y-102785028D01*
X105147276Y-102808838D01*
X105171086Y-102832647D01*
X105194895Y-102880266D01*
X105194895Y-103070742D01*
X105432990Y-102308838D02*
X105432990Y-102594552D01*
X105432990Y-102451695D02*
X104932990Y-102451695D01*
X105004419Y-102499314D01*
X105052038Y-102546933D01*
X105075848Y-102594552D01*
X105147276Y-102023124D02*
X105123467Y-102070743D01*
X105099657Y-102094552D01*
X105052038Y-102118362D01*
X105028229Y-102118362D01*
X104980610Y-102094552D01*
X104956800Y-102070743D01*
X104932990Y-102023124D01*
X104932990Y-101927886D01*
X104956800Y-101880267D01*
X104980610Y-101856457D01*
X105028229Y-101832648D01*
X105052038Y-101832648D01*
X105099657Y-101856457D01*
X105123467Y-101880267D01*
X105147276Y-101927886D01*
X105147276Y-102023124D01*
X105171086Y-102070743D01*
X105194895Y-102094552D01*
X105242514Y-102118362D01*
X105337752Y-102118362D01*
X105385371Y-102094552D01*
X105409181Y-102070743D01*
X105432990Y-102023124D01*
X105432990Y-101927886D01*
X105409181Y-101880267D01*
X105385371Y-101856457D01*
X105337752Y-101832648D01*
X105242514Y-101832648D01*
X105194895Y-101856457D01*
X105171086Y-101880267D01*
X105147276Y-101927886D01*
X134323972Y-119707790D02*
X134157305Y-119469695D01*
X134038258Y-119707790D02*
X134038258Y-119207790D01*
X134228734Y-119207790D01*
X134276353Y-119231600D01*
X134300162Y-119255410D01*
X134323972Y-119303029D01*
X134323972Y-119374457D01*
X134300162Y-119422076D01*
X134276353Y-119445886D01*
X134228734Y-119469695D01*
X134038258Y-119469695D01*
X134800162Y-119707790D02*
X134514448Y-119707790D01*
X134657305Y-119707790D02*
X134657305Y-119207790D01*
X134609686Y-119279219D01*
X134562067Y-119326838D01*
X134514448Y-119350648D01*
X135038257Y-119707790D02*
X135133495Y-119707790D01*
X135181114Y-119683981D01*
X135204924Y-119660171D01*
X135252543Y-119588743D01*
X135276352Y-119493505D01*
X135276352Y-119303029D01*
X135252543Y-119255410D01*
X135228733Y-119231600D01*
X135181114Y-119207790D01*
X135085876Y-119207790D01*
X135038257Y-119231600D01*
X135014448Y-119255410D01*
X134990638Y-119303029D01*
X134990638Y-119422076D01*
X135014448Y-119469695D01*
X135038257Y-119493505D01*
X135085876Y-119517314D01*
X135181114Y-119517314D01*
X135228733Y-119493505D01*
X135252543Y-119469695D01*
X135276352Y-119422076D01*
X132433190Y-115815228D02*
X132195095Y-115981895D01*
X132433190Y-116100942D02*
X131933190Y-116100942D01*
X131933190Y-115910466D01*
X131957000Y-115862847D01*
X131980810Y-115839038D01*
X132028429Y-115815228D01*
X132099857Y-115815228D01*
X132147476Y-115839038D01*
X132171286Y-115862847D01*
X132195095Y-115910466D01*
X132195095Y-116100942D01*
X131980810Y-115624752D02*
X131957000Y-115600942D01*
X131933190Y-115553323D01*
X131933190Y-115434276D01*
X131957000Y-115386657D01*
X131980810Y-115362847D01*
X132028429Y-115339038D01*
X132076048Y-115339038D01*
X132147476Y-115362847D01*
X132433190Y-115648561D01*
X132433190Y-115339038D01*
X131933190Y-115029514D02*
X131933190Y-114981895D01*
X131957000Y-114934276D01*
X131980810Y-114910467D01*
X132028429Y-114886657D01*
X132123667Y-114862848D01*
X132242714Y-114862848D01*
X132337952Y-114886657D01*
X132385571Y-114910467D01*
X132409381Y-114934276D01*
X132433190Y-114981895D01*
X132433190Y-115029514D01*
X132409381Y-115077133D01*
X132385571Y-115100943D01*
X132337952Y-115124752D01*
X132242714Y-115148562D01*
X132123667Y-115148562D01*
X132028429Y-115124752D01*
X131980810Y-115100943D01*
X131957000Y-115077133D01*
X131933190Y-115029514D01*
X139838329Y-85631333D02*
X139671662Y-85393238D01*
X139552615Y-85631333D02*
X139552615Y-85131333D01*
X139743091Y-85131333D01*
X139790710Y-85155143D01*
X139814519Y-85178953D01*
X139838329Y-85226572D01*
X139838329Y-85298000D01*
X139814519Y-85345619D01*
X139790710Y-85369429D01*
X139743091Y-85393238D01*
X139552615Y-85393238D01*
X140028805Y-85178953D02*
X140052615Y-85155143D01*
X140100234Y-85131333D01*
X140219281Y-85131333D01*
X140266900Y-85155143D01*
X140290710Y-85178953D01*
X140314519Y-85226572D01*
X140314519Y-85274191D01*
X140290710Y-85345619D01*
X140004996Y-85631333D01*
X140314519Y-85631333D01*
X140790709Y-85631333D02*
X140504995Y-85631333D01*
X140647852Y-85631333D02*
X140647852Y-85131333D01*
X140600233Y-85202762D01*
X140552614Y-85250381D01*
X140504995Y-85274191D01*
X141486772Y-117548790D02*
X141320105Y-117310695D01*
X141201058Y-117548790D02*
X141201058Y-117048790D01*
X141391534Y-117048790D01*
X141439153Y-117072600D01*
X141462962Y-117096410D01*
X141486772Y-117144029D01*
X141486772Y-117215457D01*
X141462962Y-117263076D01*
X141439153Y-117286886D01*
X141391534Y-117310695D01*
X141201058Y-117310695D01*
X141677248Y-117096410D02*
X141701058Y-117072600D01*
X141748677Y-117048790D01*
X141867724Y-117048790D01*
X141915343Y-117072600D01*
X141939153Y-117096410D01*
X141962962Y-117144029D01*
X141962962Y-117191648D01*
X141939153Y-117263076D01*
X141653439Y-117548790D01*
X141962962Y-117548790D01*
X142153438Y-117096410D02*
X142177248Y-117072600D01*
X142224867Y-117048790D01*
X142343914Y-117048790D01*
X142391533Y-117072600D01*
X142415343Y-117096410D01*
X142439152Y-117144029D01*
X142439152Y-117191648D01*
X142415343Y-117263076D01*
X142129629Y-117548790D01*
X142439152Y-117548790D01*
X122182772Y-100962590D02*
X122016105Y-100724495D01*
X121897058Y-100962590D02*
X121897058Y-100462590D01*
X122087534Y-100462590D01*
X122135153Y-100486400D01*
X122158962Y-100510210D01*
X122182772Y-100557829D01*
X122182772Y-100629257D01*
X122158962Y-100676876D01*
X122135153Y-100700686D01*
X122087534Y-100724495D01*
X121897058Y-100724495D01*
X122373248Y-100510210D02*
X122397058Y-100486400D01*
X122444677Y-100462590D01*
X122563724Y-100462590D01*
X122611343Y-100486400D01*
X122635153Y-100510210D01*
X122658962Y-100557829D01*
X122658962Y-100605448D01*
X122635153Y-100676876D01*
X122349439Y-100962590D01*
X122658962Y-100962590D01*
X122825629Y-100462590D02*
X123135152Y-100462590D01*
X122968486Y-100653067D01*
X123039914Y-100653067D01*
X123087533Y-100676876D01*
X123111343Y-100700686D01*
X123135152Y-100748305D01*
X123135152Y-100867352D01*
X123111343Y-100914971D01*
X123087533Y-100938781D01*
X123039914Y-100962590D01*
X122897057Y-100962590D01*
X122849438Y-100938781D01*
X122825629Y-100914971D01*
X99336990Y-91380428D02*
X99098895Y-91547095D01*
X99336990Y-91666142D02*
X98836990Y-91666142D01*
X98836990Y-91475666D01*
X98860800Y-91428047D01*
X98884610Y-91404238D01*
X98932229Y-91380428D01*
X99003657Y-91380428D01*
X99051276Y-91404238D01*
X99075086Y-91428047D01*
X99098895Y-91475666D01*
X99098895Y-91666142D01*
X98884610Y-91189952D02*
X98860800Y-91166142D01*
X98836990Y-91118523D01*
X98836990Y-90999476D01*
X98860800Y-90951857D01*
X98884610Y-90928047D01*
X98932229Y-90904238D01*
X98979848Y-90904238D01*
X99051276Y-90928047D01*
X99336990Y-91213761D01*
X99336990Y-90904238D01*
X99003657Y-90475667D02*
X99336990Y-90475667D01*
X98813181Y-90594714D02*
X99170324Y-90713762D01*
X99170324Y-90404238D01*
X138021190Y-97197028D02*
X137783095Y-97363695D01*
X138021190Y-97482742D02*
X137521190Y-97482742D01*
X137521190Y-97292266D01*
X137545000Y-97244647D01*
X137568810Y-97220838D01*
X137616429Y-97197028D01*
X137687857Y-97197028D01*
X137735476Y-97220838D01*
X137759286Y-97244647D01*
X137783095Y-97292266D01*
X137783095Y-97482742D01*
X137568810Y-97006552D02*
X137545000Y-96982742D01*
X137521190Y-96935123D01*
X137521190Y-96816076D01*
X137545000Y-96768457D01*
X137568810Y-96744647D01*
X137616429Y-96720838D01*
X137664048Y-96720838D01*
X137735476Y-96744647D01*
X138021190Y-97030361D01*
X138021190Y-96720838D01*
X137521190Y-96268457D02*
X137521190Y-96506552D01*
X137759286Y-96530362D01*
X137735476Y-96506552D01*
X137711667Y-96458933D01*
X137711667Y-96339886D01*
X137735476Y-96292267D01*
X137759286Y-96268457D01*
X137806905Y-96244648D01*
X137925952Y-96244648D01*
X137973571Y-96268457D01*
X137997381Y-96292267D01*
X138021190Y-96339886D01*
X138021190Y-96458933D01*
X137997381Y-96506552D01*
X137973571Y-96530362D01*
X138021190Y-95546028D02*
X137783095Y-95712695D01*
X138021190Y-95831742D02*
X137521190Y-95831742D01*
X137521190Y-95641266D01*
X137545000Y-95593647D01*
X137568810Y-95569838D01*
X137616429Y-95546028D01*
X137687857Y-95546028D01*
X137735476Y-95569838D01*
X137759286Y-95593647D01*
X137783095Y-95641266D01*
X137783095Y-95831742D01*
X137568810Y-95355552D02*
X137545000Y-95331742D01*
X137521190Y-95284123D01*
X137521190Y-95165076D01*
X137545000Y-95117457D01*
X137568810Y-95093647D01*
X137616429Y-95069838D01*
X137664048Y-95069838D01*
X137735476Y-95093647D01*
X138021190Y-95379361D01*
X138021190Y-95069838D01*
X137521190Y-94641267D02*
X137521190Y-94736505D01*
X137545000Y-94784124D01*
X137568810Y-94807933D01*
X137640238Y-94855552D01*
X137735476Y-94879362D01*
X137925952Y-94879362D01*
X137973571Y-94855552D01*
X137997381Y-94831743D01*
X138021190Y-94784124D01*
X138021190Y-94688886D01*
X137997381Y-94641267D01*
X137973571Y-94617457D01*
X137925952Y-94593648D01*
X137806905Y-94593648D01*
X137759286Y-94617457D01*
X137735476Y-94641267D01*
X137711667Y-94688886D01*
X137711667Y-94784124D01*
X137735476Y-94831743D01*
X137759286Y-94855552D01*
X137806905Y-94879362D01*
X97959590Y-113241057D02*
X97959590Y-112955343D01*
X98459590Y-113098200D02*
X97959590Y-113098200D01*
X98459590Y-112788676D02*
X97959590Y-112788676D01*
X98197686Y-112788676D02*
X98197686Y-112502962D01*
X98459590Y-112502962D02*
X97959590Y-112502962D01*
X98459590Y-112002962D02*
X98459590Y-112288676D01*
X98459590Y-112145819D02*
X97959590Y-112145819D01*
X98031019Y-112193438D01*
X98078638Y-112241057D01*
X98102448Y-112288676D01*
X158255871Y-113384936D02*
X158279681Y-113408746D01*
X158303490Y-113480174D01*
X158303490Y-113527793D01*
X158279681Y-113599222D01*
X158232062Y-113646841D01*
X158184443Y-113670650D01*
X158089205Y-113694460D01*
X158017776Y-113694460D01*
X157922538Y-113670650D01*
X157874919Y-113646841D01*
X157827300Y-113599222D01*
X157803490Y-113527793D01*
X157803490Y-113480174D01*
X157827300Y-113408746D01*
X157851110Y-113384936D01*
X157851110Y-113194460D02*
X157827300Y-113170650D01*
X157803490Y-113123031D01*
X157803490Y-113003984D01*
X157827300Y-112956365D01*
X157851110Y-112932555D01*
X157898729Y-112908746D01*
X157946348Y-112908746D01*
X158017776Y-112932555D01*
X158303490Y-113218269D01*
X158303490Y-112908746D01*
X157851110Y-112718270D02*
X157827300Y-112694460D01*
X157803490Y-112646841D01*
X157803490Y-112527794D01*
X157827300Y-112480175D01*
X157851110Y-112456365D01*
X157898729Y-112432556D01*
X157946348Y-112432556D01*
X158017776Y-112456365D01*
X158303490Y-112742079D01*
X158303490Y-112432556D01*
D11*
X163787529Y-115679660D02*
X163787529Y-114917755D01*
X164168481Y-115298707D02*
X163406576Y-115298707D01*
D17*
X158382871Y-103732936D02*
X158406681Y-103756746D01*
X158430490Y-103828174D01*
X158430490Y-103875793D01*
X158406681Y-103947222D01*
X158359062Y-103994841D01*
X158311443Y-104018650D01*
X158216205Y-104042460D01*
X158144776Y-104042460D01*
X158049538Y-104018650D01*
X158001919Y-103994841D01*
X157954300Y-103947222D01*
X157930490Y-103875793D01*
X157930490Y-103828174D01*
X157954300Y-103756746D01*
X157978110Y-103732936D01*
X157978110Y-103542460D02*
X157954300Y-103518650D01*
X157930490Y-103471031D01*
X157930490Y-103351984D01*
X157954300Y-103304365D01*
X157978110Y-103280555D01*
X158025729Y-103256746D01*
X158073348Y-103256746D01*
X158144776Y-103280555D01*
X158430490Y-103566269D01*
X158430490Y-103256746D01*
X157930490Y-103090079D02*
X157930490Y-102780556D01*
X158120967Y-102947222D01*
X158120967Y-102875794D01*
X158144776Y-102828175D01*
X158168586Y-102804365D01*
X158216205Y-102780556D01*
X158335252Y-102780556D01*
X158382871Y-102804365D01*
X158406681Y-102828175D01*
X158430490Y-102875794D01*
X158430490Y-103018651D01*
X158406681Y-103066270D01*
X158382871Y-103090079D01*
D11*
X163787529Y-106027660D02*
X163787529Y-105265755D01*
X164168481Y-105646707D02*
X163406576Y-105646707D01*
D18*
X115921488Y-104673158D02*
X116164118Y-104673158D01*
X116192663Y-104658886D01*
X116206935Y-104644613D01*
X116221208Y-104616069D01*
X116221208Y-104558979D01*
X116206935Y-104530434D01*
X116192663Y-104516162D01*
X116164118Y-104501890D01*
X115921488Y-104501890D01*
X116021394Y-104230715D02*
X116221208Y-104230715D01*
X115907215Y-104302077D02*
X116121301Y-104373438D01*
X116121301Y-104187898D01*
X112790393Y-100968991D02*
X112833210Y-100983264D01*
X112847482Y-100997536D01*
X112861754Y-101026081D01*
X112861754Y-101068898D01*
X112847482Y-101097443D01*
X112833210Y-101111715D01*
X112804665Y-101125988D01*
X112690486Y-101125988D01*
X112690486Y-100826268D01*
X112790393Y-100826268D01*
X112818937Y-100840540D01*
X112833210Y-100854812D01*
X112847482Y-100883357D01*
X112847482Y-100911902D01*
X112833210Y-100940447D01*
X112818937Y-100954719D01*
X112790393Y-100968991D01*
X112690486Y-100968991D01*
X113190019Y-101154532D02*
X113161474Y-101140260D01*
X113132930Y-101111715D01*
X113090113Y-101068898D01*
X113061568Y-101054626D01*
X113033023Y-101054626D01*
X113047295Y-101125988D02*
X113018751Y-101111715D01*
X112990206Y-101083170D01*
X112975934Y-101026081D01*
X112975934Y-100926174D01*
X112990206Y-100869085D01*
X113018751Y-100840540D01*
X113047295Y-100826268D01*
X113104385Y-100826268D01*
X113132930Y-100840540D01*
X113161474Y-100869085D01*
X113175747Y-100926174D01*
X113175747Y-101026081D01*
X113161474Y-101083170D01*
X113132930Y-101111715D01*
X113104385Y-101125988D01*
X113047295Y-101125988D01*
X113289926Y-100854812D02*
X113304198Y-100840540D01*
X113332743Y-100826268D01*
X113404105Y-100826268D01*
X113432649Y-100840540D01*
X113446922Y-100854812D01*
X113461194Y-100883357D01*
X113461194Y-100911902D01*
X113446922Y-100954719D01*
X113275653Y-101125988D01*
X113461194Y-101125988D01*
X113718097Y-100926174D02*
X113718097Y-101125988D01*
X113646735Y-100811995D02*
X113575374Y-101026081D01*
X113760914Y-101026081D01*
X114032090Y-101125988D02*
X113860822Y-101125988D01*
X113946456Y-101125988D02*
X113946456Y-100826268D01*
X113917911Y-100869085D01*
X113889366Y-100897630D01*
X113860822Y-100911902D01*
X114131997Y-100826268D02*
X114331810Y-100826268D01*
X114203359Y-101125988D01*
X114503079Y-100826268D02*
X114531624Y-100826268D01*
X114560169Y-100840540D01*
X114574441Y-100854812D01*
X114588714Y-100883357D01*
X114602986Y-100940447D01*
X114602986Y-101011809D01*
X114588714Y-101068898D01*
X114574441Y-101097443D01*
X114560169Y-101111715D01*
X114531624Y-101125988D01*
X114503079Y-101125988D01*
X114474535Y-101111715D01*
X114460262Y-101097443D01*
X114445990Y-101068898D01*
X114431718Y-101011809D01*
X114431718Y-100940447D01*
X114445990Y-100883357D01*
X114460262Y-100854812D01*
X114474535Y-100840540D01*
X114503079Y-100826268D01*
D13*
X151013923Y-91953749D02*
X151013923Y-92144975D01*
X151025171Y-92167472D01*
X151036420Y-92178721D01*
X151058917Y-92189969D01*
X151103911Y-92189969D01*
X151126409Y-92178721D01*
X151137657Y-92167472D01*
X151148906Y-92144975D01*
X151148906Y-91953749D01*
X151373878Y-91953749D02*
X151261392Y-91953749D01*
X151250143Y-92066235D01*
X151261392Y-92054987D01*
X151283889Y-92043738D01*
X151340132Y-92043738D01*
X151362629Y-92054987D01*
X151373878Y-92066235D01*
X151385126Y-92088732D01*
X151385126Y-92144975D01*
X151373878Y-92167472D01*
X151362629Y-92178721D01*
X151340132Y-92189969D01*
X151283889Y-92189969D01*
X151261392Y-92178721D01*
X151250143Y-92167472D01*
X150716561Y-91671627D02*
X150716561Y-91784113D01*
X150480341Y-91784113D01*
X150705313Y-91604136D02*
X150716561Y-91570390D01*
X150716561Y-91514147D01*
X150705313Y-91491650D01*
X150694064Y-91480401D01*
X150671567Y-91469153D01*
X150649070Y-91469153D01*
X150626573Y-91480401D01*
X150615324Y-91491650D01*
X150604076Y-91514147D01*
X150592827Y-91559141D01*
X150581579Y-91581639D01*
X150570330Y-91592887D01*
X150547833Y-91604136D01*
X150525336Y-91604136D01*
X150502839Y-91592887D01*
X150491590Y-91581639D01*
X150480341Y-91559141D01*
X150480341Y-91502899D01*
X150491590Y-91469153D01*
X150716561Y-91367916D02*
X150480341Y-91367916D01*
X150649070Y-91289176D01*
X150480341Y-91210436D01*
X150716561Y-91210436D01*
X150716561Y-91086702D02*
X150716561Y-91041707D01*
X150705313Y-91019210D01*
X150694064Y-91007962D01*
X150660319Y-90985464D01*
X150615324Y-90974216D01*
X150525336Y-90974216D01*
X150502839Y-90985464D01*
X150491590Y-90996713D01*
X150480341Y-91019210D01*
X150480341Y-91064204D01*
X150491590Y-91086702D01*
X150502839Y-91097950D01*
X150525336Y-91109199D01*
X150581579Y-91109199D01*
X150604076Y-91097950D01*
X150615324Y-91086702D01*
X150626573Y-91064204D01*
X150626573Y-91019210D01*
X150615324Y-90996713D01*
X150604076Y-90985464D01*
X150581579Y-90974216D01*
X150716561Y-90872979D02*
X150480341Y-90872979D01*
X150480341Y-90816736D01*
X150491590Y-90782991D01*
X150514087Y-90760493D01*
X150536584Y-90749245D01*
X150581579Y-90737996D01*
X150615324Y-90737996D01*
X150660319Y-90749245D01*
X150682816Y-90760493D01*
X150705313Y-90782991D01*
X150716561Y-90816736D01*
X150716561Y-90872979D01*
X150705313Y-90648008D02*
X150716561Y-90614262D01*
X150716561Y-90558019D01*
X150705313Y-90535522D01*
X150694064Y-90524273D01*
X150671567Y-90513025D01*
X150649070Y-90513025D01*
X150626573Y-90524273D01*
X150615324Y-90535522D01*
X150604076Y-90558019D01*
X150592827Y-90603013D01*
X150581579Y-90625511D01*
X150570330Y-90636759D01*
X150547833Y-90648008D01*
X150525336Y-90648008D01*
X150502839Y-90636759D01*
X150491590Y-90625511D01*
X150480341Y-90603013D01*
X150480341Y-90546771D01*
X150491590Y-90513025D01*
X150716561Y-90288054D02*
X150716561Y-90423037D01*
X150716561Y-90355545D02*
X150480341Y-90355545D01*
X150514087Y-90378042D01*
X150536584Y-90400540D01*
X150547833Y-90423037D01*
D17*
X150539090Y-105824460D02*
X150943852Y-105824460D01*
X150991471Y-105800651D01*
X151015281Y-105776841D01*
X151039090Y-105729222D01*
X151039090Y-105633984D01*
X151015281Y-105586365D01*
X150991471Y-105562556D01*
X150943852Y-105538746D01*
X150539090Y-105538746D01*
X150539090Y-105348269D02*
X150539090Y-105014936D01*
X151039090Y-105229222D01*
D11*
X165816681Y-94421403D02*
X164816681Y-94421403D01*
X164816681Y-94040450D01*
X164864300Y-93945212D01*
X164911919Y-93897593D01*
X165007157Y-93849974D01*
X165150014Y-93849974D01*
X165245252Y-93897593D01*
X165292871Y-93945212D01*
X165340490Y-94040450D01*
X165340490Y-94421403D01*
X164911919Y-93469022D02*
X164864300Y-93421403D01*
X164816681Y-93326165D01*
X164816681Y-93088069D01*
X164864300Y-92992831D01*
X164911919Y-92945212D01*
X165007157Y-92897593D01*
X165102395Y-92897593D01*
X165245252Y-92945212D01*
X165816681Y-93516641D01*
X165816681Y-92897593D01*
D17*
X166304490Y-115591555D02*
X165804490Y-115591555D01*
X165804490Y-115401079D01*
X165828300Y-115353460D01*
X165852110Y-115329651D01*
X165899729Y-115305841D01*
X165971157Y-115305841D01*
X166018776Y-115329651D01*
X166042586Y-115353460D01*
X166066395Y-115401079D01*
X166066395Y-115591555D01*
X165804490Y-115139174D02*
X165804490Y-114829651D01*
X165994967Y-114996317D01*
X165994967Y-114924889D01*
X166018776Y-114877270D01*
X166042586Y-114853460D01*
X166090205Y-114829651D01*
X166209252Y-114829651D01*
X166256871Y-114853460D01*
X166280681Y-114877270D01*
X166304490Y-114924889D01*
X166304490Y-115067746D01*
X166280681Y-115115365D01*
X166256871Y-115139174D01*
X166304490Y-105939555D02*
X165804490Y-105939555D01*
X165804490Y-105749079D01*
X165828300Y-105701460D01*
X165852110Y-105677651D01*
X165899729Y-105653841D01*
X165971157Y-105653841D01*
X166018776Y-105677651D01*
X166042586Y-105701460D01*
X166066395Y-105749079D01*
X166066395Y-105939555D01*
X165971157Y-105225270D02*
X166304490Y-105225270D01*
X165780681Y-105344317D02*
X166137824Y-105463365D01*
X166137824Y-105153841D01*
X118626772Y-102769171D02*
X118602962Y-102792981D01*
X118531534Y-102816790D01*
X118483915Y-102816790D01*
X118412486Y-102792981D01*
X118364867Y-102745362D01*
X118341058Y-102697743D01*
X118317248Y-102602505D01*
X118317248Y-102531076D01*
X118341058Y-102435838D01*
X118364867Y-102388219D01*
X118412486Y-102340600D01*
X118483915Y-102316790D01*
X118531534Y-102316790D01*
X118602962Y-102340600D01*
X118626772Y-102364410D01*
X119102962Y-102816790D02*
X118817248Y-102816790D01*
X118960105Y-102816790D02*
X118960105Y-102316790D01*
X118912486Y-102388219D01*
X118864867Y-102435838D01*
X118817248Y-102459648D01*
X119531533Y-102316790D02*
X119436295Y-102316790D01*
X119388676Y-102340600D01*
X119364867Y-102364410D01*
X119317248Y-102435838D01*
X119293438Y-102531076D01*
X119293438Y-102721552D01*
X119317248Y-102769171D01*
X119341057Y-102792981D01*
X119388676Y-102816790D01*
X119483914Y-102816790D01*
X119531533Y-102792981D01*
X119555343Y-102769171D01*
X119579152Y-102721552D01*
X119579152Y-102602505D01*
X119555343Y-102554886D01*
X119531533Y-102531076D01*
X119483914Y-102507267D01*
X119388676Y-102507267D01*
X119341057Y-102531076D01*
X119317248Y-102554886D01*
X119293438Y-102602505D01*
X113140372Y-99517971D02*
X113116562Y-99541781D01*
X113045134Y-99565590D01*
X112997515Y-99565590D01*
X112926086Y-99541781D01*
X112878467Y-99494162D01*
X112854658Y-99446543D01*
X112830848Y-99351305D01*
X112830848Y-99279876D01*
X112854658Y-99184638D01*
X112878467Y-99137019D01*
X112926086Y-99089400D01*
X112997515Y-99065590D01*
X113045134Y-99065590D01*
X113116562Y-99089400D01*
X113140372Y-99113210D01*
X113616562Y-99565590D02*
X113330848Y-99565590D01*
X113473705Y-99565590D02*
X113473705Y-99065590D01*
X113426086Y-99137019D01*
X113378467Y-99184638D01*
X113330848Y-99208448D01*
X113783229Y-99065590D02*
X114116562Y-99065590D01*
X113902276Y-99565590D01*
X151634472Y-96097079D02*
X151610662Y-96120889D01*
X151539234Y-96144698D01*
X151491615Y-96144698D01*
X151420186Y-96120889D01*
X151372567Y-96073270D01*
X151348758Y-96025651D01*
X151324948Y-95930413D01*
X151324948Y-95858984D01*
X151348758Y-95763746D01*
X151372567Y-95716127D01*
X151420186Y-95668508D01*
X151491615Y-95644698D01*
X151539234Y-95644698D01*
X151610662Y-95668508D01*
X151634472Y-95692318D01*
X151801139Y-95644698D02*
X152110662Y-95644698D01*
X151943996Y-95835175D01*
X152015424Y-95835175D01*
X152063043Y-95858984D01*
X152086853Y-95882794D01*
X152110662Y-95930413D01*
X152110662Y-96049460D01*
X152086853Y-96097079D01*
X152063043Y-96120889D01*
X152015424Y-96144698D01*
X151872567Y-96144698D01*
X151824948Y-96120889D01*
X151801139Y-96097079D01*
X152420186Y-95644698D02*
X152467805Y-95644698D01*
X152515424Y-95668508D01*
X152539233Y-95692318D01*
X152563043Y-95739937D01*
X152586852Y-95835175D01*
X152586852Y-95954222D01*
X152563043Y-96049460D01*
X152539233Y-96097079D01*
X152515424Y-96120889D01*
X152467805Y-96144698D01*
X152420186Y-96144698D01*
X152372567Y-96120889D01*
X152348757Y-96097079D01*
X152324948Y-96049460D01*
X152301138Y-95954222D01*
X152301138Y-95835175D01*
X152324948Y-95739937D01*
X152348757Y-95692318D01*
X152372567Y-95668508D01*
X152420186Y-95644698D01*
X121460390Y-98336847D02*
X120960390Y-98336847D01*
X120960390Y-98217800D01*
X120984200Y-98146371D01*
X121031819Y-98098752D01*
X121079438Y-98074943D01*
X121174676Y-98051133D01*
X121246105Y-98051133D01*
X121341343Y-98074943D01*
X121388962Y-98098752D01*
X121436581Y-98146371D01*
X121460390Y-98217800D01*
X121460390Y-98336847D01*
X121127057Y-97622562D02*
X121460390Y-97622562D01*
X120936581Y-97741609D02*
X121293724Y-97860657D01*
X121293724Y-97551133D01*
X126227810Y-91430057D02*
X126227810Y-91668152D01*
X125727810Y-91668152D01*
X126227810Y-91001486D02*
X126227810Y-91287200D01*
X126227810Y-91144343D02*
X125727810Y-91144343D01*
X125799239Y-91191962D01*
X125846858Y-91239581D01*
X125870668Y-91287200D01*
X140024590Y-104857533D02*
X140024590Y-105095628D01*
X139524590Y-105095628D01*
X139572210Y-104714676D02*
X139548400Y-104690866D01*
X139524590Y-104643247D01*
X139524590Y-104524200D01*
X139548400Y-104476581D01*
X139572210Y-104452771D01*
X139619829Y-104428962D01*
X139667448Y-104428962D01*
X139738876Y-104452771D01*
X140024590Y-104738485D01*
X140024590Y-104428962D01*
D11*
X171568371Y-72466057D02*
X172782657Y-72466057D01*
X172925514Y-72394629D01*
X172996943Y-72323200D01*
X173068371Y-72180343D01*
X173068371Y-71894629D01*
X172996943Y-71751771D01*
X172925514Y-71680343D01*
X172782657Y-71608914D01*
X171568371Y-71608914D01*
X173068371Y-70108914D02*
X173068371Y-70966057D01*
X173068371Y-70537485D02*
X171568371Y-70537485D01*
X171782657Y-70680342D01*
X171925514Y-70823200D01*
X171996943Y-70966057D01*
X109732981Y-89779705D02*
X110542505Y-89779705D01*
X110637743Y-89732086D01*
X110685362Y-89684467D01*
X110732981Y-89589229D01*
X110732981Y-89398752D01*
X110685362Y-89303514D01*
X110637743Y-89255895D01*
X110542505Y-89208276D01*
X109732981Y-89208276D01*
X109732981Y-88303514D02*
X109732981Y-88493991D01*
X109780600Y-88589229D01*
X109828219Y-88636848D01*
X109971076Y-88732086D01*
X110161552Y-88779705D01*
X110542505Y-88779705D01*
X110637743Y-88732086D01*
X110685362Y-88684467D01*
X110732981Y-88589229D01*
X110732981Y-88398752D01*
X110685362Y-88303514D01*
X110637743Y-88255895D01*
X110542505Y-88208276D01*
X110304410Y-88208276D01*
X110209171Y-88255895D01*
X110161552Y-88303514D01*
X110113933Y-88398752D01*
X110113933Y-88589229D01*
X110161552Y-88684467D01*
X110209171Y-88732086D01*
X110304410Y-88779705D01*
D17*
X137541048Y-114584990D02*
X137541048Y-114989752D01*
X137564857Y-115037371D01*
X137588667Y-115061181D01*
X137636286Y-115084990D01*
X137731524Y-115084990D01*
X137779143Y-115061181D01*
X137802952Y-115037371D01*
X137826762Y-114989752D01*
X137826762Y-114584990D01*
X138017239Y-114584990D02*
X138326762Y-114584990D01*
X138160096Y-114775467D01*
X138231524Y-114775467D01*
X138279143Y-114799276D01*
X138302953Y-114823086D01*
X138326762Y-114870705D01*
X138326762Y-114989752D01*
X138302953Y-115037371D01*
X138279143Y-115061181D01*
X138231524Y-115084990D01*
X138088667Y-115084990D01*
X138041048Y-115061181D01*
X138017239Y-115037371D01*
X122679590Y-96730333D02*
X122679590Y-96968428D01*
X122179590Y-96968428D01*
X122179590Y-96611285D02*
X122179590Y-96301762D01*
X122370067Y-96468428D01*
X122370067Y-96397000D01*
X122393876Y-96349381D01*
X122417686Y-96325571D01*
X122465305Y-96301762D01*
X122584352Y-96301762D01*
X122631971Y-96325571D01*
X122655781Y-96349381D01*
X122679590Y-96397000D01*
X122679590Y-96539857D01*
X122655781Y-96587476D01*
X122631971Y-96611285D01*
X133266068Y-86958114D02*
X133266068Y-87362876D01*
X133289877Y-87410495D01*
X133313687Y-87434305D01*
X133361306Y-87458114D01*
X133456544Y-87458114D01*
X133504163Y-87434305D01*
X133527972Y-87410495D01*
X133551782Y-87362876D01*
X133551782Y-86958114D01*
X133766068Y-87005734D02*
X133789878Y-86981924D01*
X133837497Y-86958114D01*
X133956544Y-86958114D01*
X134004163Y-86981924D01*
X134027973Y-87005734D01*
X134051782Y-87053353D01*
X134051782Y-87100972D01*
X134027973Y-87172400D01*
X133742259Y-87458114D01*
X134051782Y-87458114D01*
X102619181Y-108173010D02*
X102571562Y-108149200D01*
X102523943Y-108101581D01*
X102452514Y-108030152D01*
X102404895Y-108006343D01*
X102357276Y-108006343D01*
X102381086Y-108125390D02*
X102333467Y-108101581D01*
X102285848Y-108053962D01*
X102262038Y-107958724D01*
X102262038Y-107792057D01*
X102285848Y-107696819D01*
X102333467Y-107649200D01*
X102381086Y-107625390D01*
X102476324Y-107625390D01*
X102523943Y-107649200D01*
X102571562Y-107696819D01*
X102595371Y-107792057D01*
X102595371Y-107958724D01*
X102571562Y-108053962D01*
X102523943Y-108101581D01*
X102476324Y-108125390D01*
X102381086Y-108125390D01*
X103071562Y-108125390D02*
X102785848Y-108125390D01*
X102928705Y-108125390D02*
X102928705Y-107625390D01*
X102881086Y-107696819D01*
X102833467Y-107744438D01*
X102785848Y-107768248D01*
D11*
X122324905Y-120989181D02*
X122324905Y-119989181D01*
X122705858Y-119989181D01*
X122801096Y-120036800D01*
X122848715Y-120084419D01*
X122896334Y-120179657D01*
X122896334Y-120322514D01*
X122848715Y-120417752D01*
X122801096Y-120465371D01*
X122705858Y-120512990D01*
X122324905Y-120512990D01*
X123848715Y-120989181D02*
X123277286Y-120989181D01*
X123563000Y-120989181D02*
X123563000Y-119989181D01*
X123467762Y-120132038D01*
X123372524Y-120227276D01*
X123277286Y-120274895D01*
X168447981Y-119595733D02*
X167971790Y-119929067D01*
X168447981Y-120167162D02*
X167447981Y-120167162D01*
X167447981Y-119786209D01*
X167495600Y-119690971D01*
X167543219Y-119643352D01*
X167638457Y-119595733D01*
X167781314Y-119595733D01*
X167876552Y-119643352D01*
X167924171Y-119690971D01*
X167971790Y-119786209D01*
X167971790Y-120167162D01*
X167924171Y-119167162D02*
X167924171Y-118833828D01*
X168447981Y-118690971D02*
X168447981Y-119167162D01*
X167447981Y-119167162D01*
X167447981Y-118690971D01*
X167924171Y-117929066D02*
X167924171Y-118262400D01*
X168447981Y-118262400D02*
X167447981Y-118262400D01*
X167447981Y-117786209D01*
X167447981Y-117262400D02*
X167686076Y-117262400D01*
X167590838Y-117500495D02*
X167686076Y-117262400D01*
X167590838Y-117024304D01*
X167876552Y-117405257D02*
X167686076Y-117262400D01*
X167876552Y-117119542D01*
X167447981Y-116500495D02*
X167686076Y-116500495D01*
X167590838Y-116738590D02*
X167686076Y-116500495D01*
X167590838Y-116262399D01*
X167876552Y-116643352D02*
X167686076Y-116500495D01*
X167876552Y-116357637D01*
M02*
