G04 #@! TF.FileFunction,Copper,L2,Bot,Signal*
%FSLAX46Y46*%
G04 Gerber Fmt 4.6, Leading zero omitted, Abs format (unit mm)*
G04 Created by KiCad (PCBNEW 4.0.2-stable) date 12/24/2016 3:16:37 PM*
%MOMM*%
G01*
G04 APERTURE LIST*
%ADD10C,0.100000*%
%ADD11R,3.500120X3.500120*%
%ADD12O,3.014980X1.506220*%
%ADD13R,1.700000X1.200000*%
%ADD14O,1.700000X1.200000*%
%ADD15C,1.900000*%
%ADD16O,1.506220X3.014980*%
%ADD17C,0.600000*%
%ADD18C,0.500000*%
%ADD19C,0.200000*%
%ADD20C,0.250000*%
%ADD21C,0.500000*%
%ADD22C,0.150000*%
%ADD23C,1.000000*%
G04 APERTURE END LIST*
D10*
D11*
X100690680Y-96799400D03*
X94691200Y-96799400D03*
X97690940Y-101498400D03*
D12*
X102133400Y-113868200D03*
X102133400Y-111328200D03*
D13*
X168364300Y-93683308D03*
D14*
X168364300Y-91683308D03*
X168364300Y-89683308D03*
X168364300Y-87683308D03*
X168364300Y-85683308D03*
D13*
X168338900Y-113888508D03*
D14*
X168338900Y-111888508D03*
X168338900Y-109888508D03*
D13*
X168364300Y-104300508D03*
D14*
X168364300Y-102300508D03*
X168364300Y-100300508D03*
D15*
X167309800Y-63703200D03*
X164769800Y-63703200D03*
X162229800Y-63703200D03*
X159689800Y-63703200D03*
X157149800Y-63703200D03*
X154609800Y-63703200D03*
X152069800Y-63703200D03*
X149529800Y-63703200D03*
X146989800Y-63703200D03*
X144449800Y-63703200D03*
X141909800Y-63703200D03*
X139369800Y-63703200D03*
X136829800Y-63703200D03*
X136829800Y-78943200D03*
X139369800Y-78943200D03*
X141909800Y-78943200D03*
X144449800Y-78943200D03*
X146989800Y-78943200D03*
X149529800Y-78943200D03*
X152069800Y-78943200D03*
X154609800Y-78943200D03*
X157149800Y-78943200D03*
X159689800Y-78943200D03*
X162229800Y-78943200D03*
X164769800Y-78943200D03*
X167309800Y-78943200D03*
X169849800Y-78943200D03*
X169849800Y-63703200D03*
X134289800Y-78943200D03*
X134289800Y-63703200D03*
X131749800Y-78943200D03*
X129209800Y-78943200D03*
X126669800Y-78943200D03*
X124129800Y-78943200D03*
X121589800Y-78943200D03*
X119049800Y-78943200D03*
X116509800Y-78943200D03*
X113969800Y-78943200D03*
X111429800Y-78943200D03*
X131749800Y-63703200D03*
X129209800Y-63703200D03*
X126669800Y-63703200D03*
X124129800Y-63703200D03*
X121589800Y-63703200D03*
X119049800Y-63703200D03*
X116509800Y-63703200D03*
X113969800Y-63703200D03*
X111429800Y-63703200D03*
X107670600Y-89077800D03*
X107670600Y-86537800D03*
X107670600Y-83997800D03*
X107670600Y-81457800D03*
X107670600Y-78917800D03*
X107670600Y-76377800D03*
X107670600Y-73837800D03*
X107670600Y-71297800D03*
X92430600Y-89077800D03*
X92430600Y-86537800D03*
X92430600Y-83997800D03*
X92430600Y-81457800D03*
X92430600Y-78917800D03*
X92430600Y-76377800D03*
X92430600Y-73837800D03*
X92430600Y-71297800D03*
D16*
X124333000Y-116636800D03*
X121793000Y-116636800D03*
D17*
X149885400Y-105156000D03*
X150037800Y-103073200D03*
X148361400Y-101346000D03*
X146989800Y-99542600D03*
X147040600Y-97053400D03*
X146964400Y-94640400D03*
X146380200Y-91973400D03*
X143916400Y-90627200D03*
X142214600Y-92329000D03*
X142113000Y-94945200D03*
X141452600Y-97815400D03*
X139750800Y-99136200D03*
X139827000Y-101447600D03*
X139852400Y-103911400D03*
X139852400Y-107340400D03*
X139903200Y-109702600D03*
X142468600Y-109855000D03*
X144043400Y-111150400D03*
X145516600Y-112014000D03*
X147904200Y-112014000D03*
X150672800Y-112115600D03*
X153670000Y-112141000D03*
X156387800Y-112191800D03*
X156362400Y-110261400D03*
X156387800Y-108153200D03*
X153695400Y-108204000D03*
X154076400Y-80975200D03*
X156540200Y-80949800D03*
X158902400Y-80949800D03*
X161163000Y-80949800D03*
X163703000Y-80975200D03*
X166395400Y-80949800D03*
X168351200Y-81965800D03*
X168376600Y-83870800D03*
X137160000Y-93649800D03*
X142925800Y-83007200D03*
X126746000Y-111353600D03*
X104800400Y-89966800D03*
X109296200Y-111074200D03*
X115874800Y-107188000D03*
X117500400Y-110744000D03*
X105613200Y-93192600D03*
X104444800Y-94996000D03*
X119989600Y-103174800D03*
X116941600Y-101854000D03*
X117602000Y-101854000D03*
X117602000Y-102514400D03*
X116941600Y-102514400D03*
X111683800Y-107289600D03*
X108889800Y-97028000D03*
X109728000Y-97028000D03*
X110566200Y-97028000D03*
X111201200Y-97028000D03*
X157569300Y-87866708D03*
X154165700Y-85123508D03*
X151168500Y-87841308D03*
X131394200Y-115341400D03*
X131394200Y-114477800D03*
X144449800Y-117551200D03*
X138150600Y-118795800D03*
X134239000Y-81686400D03*
X132707220Y-81711800D03*
X132986620Y-97696724D03*
X134002620Y-97696724D03*
X138574620Y-89721124D03*
X139209620Y-89340124D03*
X139209620Y-88578124D03*
X138574620Y-88959124D03*
X139209620Y-90102124D03*
X139209620Y-90864124D03*
X138574620Y-90483124D03*
X132478620Y-90076724D03*
X131843620Y-90051324D03*
X131843620Y-90737124D03*
X132478620Y-90737124D03*
X132478620Y-89365524D03*
X131843620Y-89365524D03*
X131843620Y-88705124D03*
X132478620Y-88705124D03*
X137304620Y-84514124D03*
X152133700Y-92311708D03*
X154673700Y-91041708D03*
X154622900Y-97061508D03*
X151955900Y-106713508D03*
X154749900Y-106586508D03*
X157035900Y-105189508D03*
X105435400Y-98247200D03*
X110515400Y-102870000D03*
X117551200Y-107492800D03*
X113360200Y-108102400D03*
D18*
X116179600Y-103200200D03*
D17*
X113309400Y-99288600D03*
X133592000Y-108635800D03*
X136677400Y-118795800D03*
X136499600Y-81203800D03*
X150876000Y-75361800D03*
X154191100Y-86596708D03*
X150228700Y-89365308D03*
X156070700Y-87866708D03*
X151955597Y-89281000D03*
X152755600Y-89281000D03*
X116281200Y-104495600D03*
X107823000Y-95300800D03*
X110820200Y-111099600D03*
X110884242Y-107316251D03*
X119227600Y-106769870D03*
X116890800Y-105119470D03*
X110312200Y-104698800D03*
X105460800Y-104063800D03*
D19*
X110515400Y-102870000D02*
X110058200Y-102870000D01*
X110058200Y-102870000D02*
X105435400Y-98247200D01*
D20*
X113360200Y-108102400D02*
X116941600Y-108102400D01*
X116941600Y-108102400D02*
X117551200Y-107492800D01*
X113309400Y-99288600D02*
X116179600Y-102158800D01*
X116179600Y-102158800D02*
X116179600Y-103200200D01*
X136677400Y-118795800D02*
X135382000Y-117500400D01*
X135382000Y-117500400D02*
X135382000Y-110425800D01*
X135382000Y-110425800D02*
X133592000Y-108635800D01*
D21*
X136499600Y-81203800D02*
X136199601Y-80903801D01*
X94919800Y-87376000D02*
X94081600Y-86537800D01*
X136199601Y-80903801D02*
X122143799Y-80903801D01*
X122143799Y-80903801D02*
X112252599Y-90795001D01*
X94919800Y-89306400D02*
X94919800Y-87376000D01*
X112252599Y-90795001D02*
X96408401Y-90795001D01*
X96408401Y-90795001D02*
X94919800Y-89306400D01*
X94081600Y-86537800D02*
X92430600Y-86537800D01*
X147040600Y-83642200D02*
X147040600Y-89357200D01*
X147040600Y-89357200D02*
X147040600Y-91262200D01*
D20*
X150228700Y-89365308D02*
X149804436Y-89365308D01*
X149804436Y-89365308D02*
X149796328Y-89357200D01*
X149796328Y-89357200D02*
X147040600Y-89357200D01*
X168899801Y-77942401D02*
X166319200Y-75361800D01*
X166319200Y-75361800D02*
X150876000Y-75361800D01*
X169849800Y-78943200D02*
X168899801Y-77993201D01*
X168899801Y-77993201D02*
X168899801Y-77942401D01*
D21*
X170967400Y-92180208D02*
X170967400Y-80060800D01*
X170967400Y-80060800D02*
X169849800Y-78943200D01*
X168364300Y-93683308D02*
X169464300Y-93683308D01*
X169464300Y-93683308D02*
X170967400Y-92180208D01*
X147040600Y-91262200D02*
X149461708Y-93683308D01*
X149461708Y-93683308D02*
X168364300Y-93683308D01*
X144602200Y-81203800D02*
X147040600Y-83642200D01*
X136499600Y-81203800D02*
X144602200Y-81203800D01*
D22*
X151955597Y-89281000D02*
X151955597Y-89705264D01*
X151955597Y-89705264D02*
X153933641Y-91683308D01*
X153933641Y-91683308D02*
X167364300Y-91683308D01*
X167364300Y-91683308D02*
X168364300Y-91683308D01*
X151955597Y-89281000D02*
X151955597Y-81368997D01*
X151955597Y-81368997D02*
X149529800Y-78943200D01*
X152755600Y-89281000D02*
X167961992Y-89281000D01*
X167961992Y-89281000D02*
X168364300Y-89683308D01*
X152755600Y-89281000D02*
X152755600Y-79629000D01*
X152755600Y-79629000D02*
X152069800Y-78943200D01*
D19*
X107823000Y-95300800D02*
X108950199Y-96427999D01*
X108950199Y-96427999D02*
X111489201Y-96427999D01*
X111489201Y-96427999D02*
X112293400Y-97232198D01*
X112293400Y-97232198D02*
X112293400Y-100838000D01*
X112293400Y-100838000D02*
X115205601Y-103750201D01*
X115205601Y-103750201D02*
X115535801Y-103750201D01*
X115535801Y-103750201D02*
X116281200Y-104495600D01*
D20*
X110820200Y-111099600D02*
X110820200Y-107380293D01*
X110820200Y-107380293D02*
X110884242Y-107316251D01*
D19*
X116890800Y-105119470D02*
X118541200Y-106769870D01*
X118541200Y-106769870D02*
X119227600Y-106769870D01*
D20*
X106629200Y-105435400D02*
X109575600Y-105435400D01*
X109575600Y-105435400D02*
X110312200Y-104698800D01*
X106095800Y-104902000D02*
X106629200Y-105435400D01*
X106095800Y-104274536D02*
X106095800Y-104902000D01*
X105460800Y-104063800D02*
X105885064Y-104063800D01*
X105885064Y-104063800D02*
X106095800Y-104274536D01*
D23*
X168364300Y-104300508D02*
X169845300Y-104300508D01*
X169804092Y-113888508D02*
X168338900Y-113888508D01*
X170688000Y-113004600D02*
X169804092Y-113888508D01*
X170688000Y-105143208D02*
X170688000Y-113004600D01*
X169845300Y-104300508D02*
X170688000Y-105143208D01*
D10*
G36*
X175261278Y-120309548D02*
X90711278Y-120309548D01*
X90711278Y-117366373D01*
X92149679Y-117366373D01*
X92430732Y-118046572D01*
X92950691Y-118567439D01*
X93630398Y-118849679D01*
X94366373Y-118850321D01*
X95046572Y-118569268D01*
X95567439Y-118049309D01*
X95849679Y-117369602D01*
X95850321Y-116633627D01*
X95569268Y-115953428D01*
X95464013Y-115847989D01*
X123329890Y-115847989D01*
X123329890Y-117425611D01*
X123406247Y-117809485D01*
X123623694Y-118134917D01*
X123949126Y-118352364D01*
X124333000Y-118428721D01*
X124716874Y-118352364D01*
X125042306Y-118134917D01*
X125259753Y-117809485D01*
X125336110Y-117425611D01*
X125336110Y-115847989D01*
X125259753Y-115464115D01*
X125042306Y-115138683D01*
X124716874Y-114921236D01*
X124333000Y-114844879D01*
X123949126Y-114921236D01*
X123623694Y-115138683D01*
X123406247Y-115464115D01*
X123329890Y-115847989D01*
X95464013Y-115847989D01*
X95049309Y-115432561D01*
X94369602Y-115150321D01*
X93633627Y-115149679D01*
X92953428Y-115430732D01*
X92432561Y-115950691D01*
X92150321Y-116630398D01*
X92149679Y-117366373D01*
X90711278Y-117366373D01*
X90711278Y-113868200D01*
X100341479Y-113868200D01*
X100417836Y-114252074D01*
X100635283Y-114577506D01*
X100960715Y-114794953D01*
X101344589Y-114871310D01*
X102922211Y-114871310D01*
X103306085Y-114794953D01*
X103631517Y-114577506D01*
X103848964Y-114252074D01*
X103925321Y-113868200D01*
X103848964Y-113484326D01*
X103631517Y-113158894D01*
X103306085Y-112941447D01*
X102922211Y-112865090D01*
X101344589Y-112865090D01*
X100960715Y-112941447D01*
X100635283Y-113158894D01*
X100417836Y-113484326D01*
X100341479Y-113868200D01*
X90711278Y-113868200D01*
X90711278Y-111208522D01*
X110270105Y-111208522D01*
X110353661Y-111410743D01*
X110508243Y-111565595D01*
X110710318Y-111649504D01*
X110929122Y-111649695D01*
X111131343Y-111566139D01*
X111286195Y-111411557D01*
X111370104Y-111209482D01*
X111370295Y-110990678D01*
X111286739Y-110788457D01*
X111195200Y-110696758D01*
X111195200Y-108744722D01*
X133041905Y-108744722D01*
X133125461Y-108946943D01*
X133280043Y-109101795D01*
X133482118Y-109185704D01*
X133611687Y-109185817D01*
X135007000Y-110581130D01*
X135007000Y-117500400D01*
X135035545Y-117643907D01*
X135116835Y-117765565D01*
X136127417Y-118776147D01*
X136127305Y-118904722D01*
X136210861Y-119106943D01*
X136365443Y-119261795D01*
X136567518Y-119345704D01*
X136786322Y-119345895D01*
X136988543Y-119262339D01*
X137143395Y-119107757D01*
X137227304Y-118905682D01*
X137227495Y-118686878D01*
X137143939Y-118484657D01*
X136989357Y-118329805D01*
X136787282Y-118245896D01*
X136657713Y-118245783D01*
X135778303Y-117366373D01*
X170149679Y-117366373D01*
X170430732Y-118046572D01*
X170950691Y-118567439D01*
X171630398Y-118849679D01*
X172366373Y-118850321D01*
X173046572Y-118569268D01*
X173567439Y-118049309D01*
X173849679Y-117369602D01*
X173850321Y-116633627D01*
X173569268Y-115953428D01*
X173049309Y-115432561D01*
X172369602Y-115150321D01*
X171633627Y-115149679D01*
X170953428Y-115430732D01*
X170432561Y-115950691D01*
X170150321Y-116630398D01*
X170149679Y-117366373D01*
X135778303Y-117366373D01*
X135757000Y-117345070D01*
X135757000Y-113288508D01*
X167234003Y-113288508D01*
X167234003Y-114488508D01*
X167251435Y-114581152D01*
X167306188Y-114666240D01*
X167389731Y-114723323D01*
X167488900Y-114743405D01*
X169188900Y-114743405D01*
X169281544Y-114725973D01*
X169366632Y-114671220D01*
X169388983Y-114638508D01*
X169804092Y-114638508D01*
X170091105Y-114581418D01*
X170334422Y-114418838D01*
X171218330Y-113534930D01*
X171336432Y-113358178D01*
X171380910Y-113291613D01*
X171438000Y-113004600D01*
X171438000Y-105143208D01*
X171380910Y-104856195D01*
X171218330Y-104612878D01*
X170375630Y-103770178D01*
X170132313Y-103607598D01*
X169845300Y-103550508D01*
X169414857Y-103550508D01*
X169397012Y-103522776D01*
X169313469Y-103465693D01*
X169214300Y-103445611D01*
X167514300Y-103445611D01*
X167421656Y-103463043D01*
X167336568Y-103517796D01*
X167279485Y-103601339D01*
X167259403Y-103700508D01*
X167259403Y-104900508D01*
X167276835Y-104993152D01*
X167331588Y-105078240D01*
X167415131Y-105135323D01*
X167514300Y-105155405D01*
X169214300Y-105155405D01*
X169306944Y-105137973D01*
X169392032Y-105083220D01*
X169414383Y-105050508D01*
X169534640Y-105050508D01*
X169938000Y-105453868D01*
X169938000Y-112693940D01*
X169493432Y-113138508D01*
X169389457Y-113138508D01*
X169371612Y-113110776D01*
X169288069Y-113053693D01*
X169188900Y-113033611D01*
X167488900Y-113033611D01*
X167396256Y-113051043D01*
X167311168Y-113105796D01*
X167254085Y-113189339D01*
X167234003Y-113288508D01*
X135757000Y-113288508D01*
X135757000Y-111888508D01*
X167217350Y-111888508D01*
X167282052Y-112213789D01*
X167466309Y-112489549D01*
X167742069Y-112673806D01*
X168067350Y-112738508D01*
X168610450Y-112738508D01*
X168935731Y-112673806D01*
X169211491Y-112489549D01*
X169395748Y-112213789D01*
X169460450Y-111888508D01*
X169395748Y-111563227D01*
X169211491Y-111287467D01*
X168935731Y-111103210D01*
X168610450Y-111038508D01*
X168067350Y-111038508D01*
X167742069Y-111103210D01*
X167466309Y-111287467D01*
X167282052Y-111563227D01*
X167217350Y-111888508D01*
X135757000Y-111888508D01*
X135757000Y-110425800D01*
X135728455Y-110282294D01*
X135728455Y-110282293D01*
X135647165Y-110160635D01*
X134141983Y-108655453D01*
X134142095Y-108526878D01*
X134058539Y-108324657D01*
X133903957Y-108169805D01*
X133701882Y-108085896D01*
X133483078Y-108085705D01*
X133280857Y-108169261D01*
X133126005Y-108323843D01*
X133042096Y-108525918D01*
X133041905Y-108744722D01*
X111195200Y-108744722D01*
X111195200Y-108211322D01*
X112810105Y-108211322D01*
X112893661Y-108413543D01*
X113048243Y-108568395D01*
X113250318Y-108652304D01*
X113469122Y-108652495D01*
X113671343Y-108568939D01*
X113763042Y-108477400D01*
X116941600Y-108477400D01*
X117085107Y-108448855D01*
X117206765Y-108367565D01*
X117531547Y-108042783D01*
X117660122Y-108042895D01*
X117862343Y-107959339D01*
X118017195Y-107804757D01*
X118101104Y-107602682D01*
X118101295Y-107383878D01*
X118017739Y-107181657D01*
X117863157Y-107026805D01*
X117661082Y-106942896D01*
X117442278Y-106942705D01*
X117240057Y-107026261D01*
X117085205Y-107180843D01*
X117001296Y-107382918D01*
X117001183Y-107512487D01*
X116786270Y-107727400D01*
X113762993Y-107727400D01*
X113672157Y-107636405D01*
X113470082Y-107552496D01*
X113251278Y-107552305D01*
X113049057Y-107635861D01*
X112894205Y-107790443D01*
X112810296Y-107992518D01*
X112810105Y-108211322D01*
X111195200Y-108211322D01*
X111195200Y-107782866D01*
X111195385Y-107782790D01*
X111350237Y-107628208D01*
X111434146Y-107426133D01*
X111434337Y-107207329D01*
X111350781Y-107005108D01*
X111196199Y-106850256D01*
X110994124Y-106766347D01*
X110775320Y-106766156D01*
X110573099Y-106849712D01*
X110418247Y-107004294D01*
X110334338Y-107206369D01*
X110334147Y-107425173D01*
X110417703Y-107627394D01*
X110445200Y-107654939D01*
X110445200Y-110696807D01*
X110354205Y-110787643D01*
X110270296Y-110989718D01*
X110270105Y-111208522D01*
X90711278Y-111208522D01*
X90711278Y-104172722D01*
X104910705Y-104172722D01*
X104994261Y-104374943D01*
X105148843Y-104529795D01*
X105350918Y-104613704D01*
X105569722Y-104613895D01*
X105720800Y-104551471D01*
X105720800Y-104902000D01*
X105749345Y-105045507D01*
X105830635Y-105167165D01*
X106364035Y-105700565D01*
X106485694Y-105781855D01*
X106629200Y-105810400D01*
X109575600Y-105810400D01*
X109719107Y-105781855D01*
X109840765Y-105700565D01*
X110292547Y-105248783D01*
X110421122Y-105248895D01*
X110623343Y-105165339D01*
X110778195Y-105010757D01*
X110862104Y-104808682D01*
X110862295Y-104589878D01*
X110778739Y-104387657D01*
X110624157Y-104232805D01*
X110422082Y-104148896D01*
X110203278Y-104148705D01*
X110001057Y-104232261D01*
X109846205Y-104386843D01*
X109762296Y-104588918D01*
X109762183Y-104718487D01*
X109420270Y-105060400D01*
X106784530Y-105060400D01*
X106470800Y-104746670D01*
X106470800Y-104274536D01*
X106442255Y-104131030D01*
X106360965Y-104009371D01*
X106150229Y-103798635D01*
X106028571Y-103717345D01*
X105885064Y-103688800D01*
X105863593Y-103688800D01*
X105772757Y-103597805D01*
X105570682Y-103513896D01*
X105351878Y-103513705D01*
X105149657Y-103597261D01*
X104994805Y-103751843D01*
X104910896Y-103953918D01*
X104910705Y-104172722D01*
X90711278Y-104172722D01*
X90711278Y-95049340D01*
X98685723Y-95049340D01*
X98685723Y-98549460D01*
X98703155Y-98642104D01*
X98757908Y-98727192D01*
X98841451Y-98784275D01*
X98940620Y-98804357D01*
X102440740Y-98804357D01*
X102533384Y-98786925D01*
X102618472Y-98732172D01*
X102675555Y-98648629D01*
X102695637Y-98549460D01*
X102695637Y-98356122D01*
X104885305Y-98356122D01*
X104968861Y-98558343D01*
X105123443Y-98713195D01*
X105325518Y-98797104D01*
X105490474Y-98797248D01*
X109810712Y-103117487D01*
X109860132Y-103150508D01*
X109924261Y-103193358D01*
X110058200Y-103220000D01*
X110087650Y-103220000D01*
X110203443Y-103335995D01*
X110405518Y-103419904D01*
X110624322Y-103420095D01*
X110826543Y-103336539D01*
X110981395Y-103181957D01*
X111065304Y-102979882D01*
X111065495Y-102761078D01*
X110981939Y-102558857D01*
X110827357Y-102404005D01*
X110625282Y-102320096D01*
X110406478Y-102319905D01*
X110204257Y-102403461D01*
X110145395Y-102462220D01*
X105985352Y-98302178D01*
X105985495Y-98138278D01*
X105901939Y-97936057D01*
X105747357Y-97781205D01*
X105545282Y-97697296D01*
X105326478Y-97697105D01*
X105124257Y-97780661D01*
X104969405Y-97935243D01*
X104885496Y-98137318D01*
X104885305Y-98356122D01*
X102695637Y-98356122D01*
X102695637Y-95409722D01*
X107272905Y-95409722D01*
X107356461Y-95611943D01*
X107511043Y-95766795D01*
X107713118Y-95850704D01*
X107878074Y-95850848D01*
X108702712Y-96675486D01*
X108816259Y-96751357D01*
X108838481Y-96755777D01*
X108950199Y-96777999D01*
X111344227Y-96777999D01*
X111943400Y-97377172D01*
X111943400Y-100838000D01*
X111970042Y-100971939D01*
X112045913Y-101085487D01*
X114958114Y-103997688D01*
X115071661Y-104073559D01*
X115093883Y-104077979D01*
X115205601Y-104100201D01*
X115390827Y-104100201D01*
X115731248Y-104440623D01*
X115731105Y-104604522D01*
X115814661Y-104806743D01*
X115969243Y-104961595D01*
X116171318Y-105045504D01*
X116340865Y-105045652D01*
X116340705Y-105228392D01*
X116424261Y-105430613D01*
X116578843Y-105585465D01*
X116780918Y-105669374D01*
X116945874Y-105669518D01*
X118293713Y-107017357D01*
X118407260Y-107093228D01*
X118429482Y-107097648D01*
X118541200Y-107119870D01*
X118799850Y-107119870D01*
X118915643Y-107235865D01*
X119117718Y-107319774D01*
X119336522Y-107319965D01*
X119538743Y-107236409D01*
X119693595Y-107081827D01*
X119777504Y-106879752D01*
X119777695Y-106660948D01*
X119694139Y-106458727D01*
X119539557Y-106303875D01*
X119337482Y-106219966D01*
X119118678Y-106219775D01*
X118916457Y-106303331D01*
X118799714Y-106419870D01*
X118686174Y-106419870D01*
X117440752Y-105174448D01*
X117440895Y-105010548D01*
X117357339Y-104808327D01*
X117202757Y-104653475D01*
X117000682Y-104569566D01*
X116831135Y-104569418D01*
X116831295Y-104386678D01*
X116747739Y-104184457D01*
X116593157Y-104029605D01*
X116391082Y-103945696D01*
X116226127Y-103945552D01*
X115910375Y-103629801D01*
X116079707Y-103700113D01*
X116278620Y-103700287D01*
X116462457Y-103624327D01*
X116603233Y-103483797D01*
X116679513Y-103300093D01*
X116679687Y-103101180D01*
X116603727Y-102917343D01*
X116554600Y-102868130D01*
X116554600Y-102300508D01*
X167242750Y-102300508D01*
X167307452Y-102625789D01*
X167491709Y-102901549D01*
X167767469Y-103085806D01*
X168092750Y-103150508D01*
X168635850Y-103150508D01*
X168961131Y-103085806D01*
X169236891Y-102901549D01*
X169421148Y-102625789D01*
X169485850Y-102300508D01*
X169421148Y-101975227D01*
X169236891Y-101699467D01*
X168961131Y-101515210D01*
X168635850Y-101450508D01*
X168092750Y-101450508D01*
X167767469Y-101515210D01*
X167491709Y-101699467D01*
X167307452Y-101975227D01*
X167242750Y-102300508D01*
X116554600Y-102300508D01*
X116554600Y-102158800D01*
X116526055Y-102015294D01*
X116444765Y-101893635D01*
X113859383Y-99308253D01*
X113859495Y-99179678D01*
X113775939Y-98977457D01*
X113621357Y-98822605D01*
X113419282Y-98738696D01*
X113200478Y-98738505D01*
X112998257Y-98822061D01*
X112843405Y-98976643D01*
X112759496Y-99178718D01*
X112759305Y-99397522D01*
X112842861Y-99599743D01*
X112997443Y-99754595D01*
X113199518Y-99838504D01*
X113329087Y-99838617D01*
X115804600Y-102314130D01*
X115804600Y-102868055D01*
X115755967Y-102916603D01*
X115679687Y-103100307D01*
X115679513Y-103299220D01*
X115755473Y-103483057D01*
X115758685Y-103486275D01*
X115669740Y-103426843D01*
X115535801Y-103400201D01*
X115350575Y-103400201D01*
X112643400Y-100693026D01*
X112643400Y-97232198D01*
X112616758Y-97098259D01*
X112616758Y-97098258D01*
X112540887Y-96984711D01*
X111736688Y-96180512D01*
X111623140Y-96104641D01*
X111489201Y-96077999D01*
X109095173Y-96077999D01*
X108372952Y-95355778D01*
X108373095Y-95191878D01*
X108289539Y-94989657D01*
X108134957Y-94834805D01*
X107932882Y-94750896D01*
X107714078Y-94750705D01*
X107511857Y-94834261D01*
X107357005Y-94988843D01*
X107273096Y-95190918D01*
X107272905Y-95409722D01*
X102695637Y-95409722D01*
X102695637Y-95049340D01*
X102678205Y-94956696D01*
X102623452Y-94871608D01*
X102539909Y-94814525D01*
X102440740Y-94794443D01*
X98940620Y-94794443D01*
X98847976Y-94811875D01*
X98762888Y-94866628D01*
X98705805Y-94950171D01*
X98685723Y-95049340D01*
X90711278Y-95049340D01*
X90711278Y-86775447D01*
X91230393Y-86775447D01*
X91412697Y-87216657D01*
X91749967Y-87554517D01*
X92190858Y-87737591D01*
X92668247Y-87738007D01*
X93109457Y-87555703D01*
X93447317Y-87218433D01*
X93522322Y-87037800D01*
X93874494Y-87037800D01*
X94419800Y-87583107D01*
X94419800Y-89306400D01*
X94453183Y-89474230D01*
X94457860Y-89497742D01*
X94566247Y-89659953D01*
X96054848Y-91148555D01*
X96152087Y-91213527D01*
X96217059Y-91256941D01*
X96408401Y-91295001D01*
X112252599Y-91295001D01*
X112443941Y-91256941D01*
X112606152Y-91148554D01*
X122350906Y-81403801D01*
X135987138Y-81403801D01*
X136033061Y-81514943D01*
X136187643Y-81669795D01*
X136389718Y-81753704D01*
X136608522Y-81753895D01*
X136729761Y-81703800D01*
X144395094Y-81703800D01*
X146540600Y-83849307D01*
X146540600Y-91262200D01*
X146559717Y-91358308D01*
X146578660Y-91453542D01*
X146687047Y-91615753D01*
X149108155Y-94036862D01*
X149270366Y-94145248D01*
X149461708Y-94183308D01*
X167259403Y-94183308D01*
X167259403Y-94283308D01*
X167276835Y-94375952D01*
X167331588Y-94461040D01*
X167415131Y-94518123D01*
X167514300Y-94538205D01*
X169214300Y-94538205D01*
X169306944Y-94520773D01*
X169392032Y-94466020D01*
X169449115Y-94382477D01*
X169469197Y-94283308D01*
X169469197Y-94182334D01*
X169655642Y-94145248D01*
X169817853Y-94036861D01*
X171320953Y-92533762D01*
X171429340Y-92371550D01*
X171446685Y-92284349D01*
X171467400Y-92180208D01*
X171467400Y-80060800D01*
X171429340Y-79869458D01*
X171320953Y-79707247D01*
X170975376Y-79361670D01*
X171049591Y-79182942D01*
X171050007Y-78705553D01*
X170867703Y-78264343D01*
X170530433Y-77926483D01*
X170089542Y-77743409D01*
X169612153Y-77742993D01*
X169306299Y-77869369D01*
X169248846Y-77811916D01*
X169246256Y-77798894D01*
X169164966Y-77677236D01*
X166584365Y-75096635D01*
X166462707Y-75015345D01*
X166319200Y-74986800D01*
X151278793Y-74986800D01*
X151187957Y-74895805D01*
X150985882Y-74811896D01*
X150767078Y-74811705D01*
X150564857Y-74895261D01*
X150410005Y-75049843D01*
X150326096Y-75251918D01*
X150325905Y-75470722D01*
X150409461Y-75672943D01*
X150564043Y-75827795D01*
X150766118Y-75911704D01*
X150984922Y-75911895D01*
X151187143Y-75828339D01*
X151278842Y-75736800D01*
X166163870Y-75736800D01*
X168550756Y-78123686D01*
X168553346Y-78136708D01*
X168634636Y-78258366D01*
X168776090Y-78399820D01*
X168650009Y-78703458D01*
X168649593Y-79180847D01*
X168831897Y-79622057D01*
X169169167Y-79959917D01*
X169610058Y-80142991D01*
X170087447Y-80143407D01*
X170268211Y-80068717D01*
X170467400Y-80267906D01*
X170467400Y-91973101D01*
X169451010Y-92989491D01*
X169397012Y-92905576D01*
X169313469Y-92848493D01*
X169214300Y-92828411D01*
X167514300Y-92828411D01*
X167421656Y-92845843D01*
X167336568Y-92900596D01*
X167279485Y-92984139D01*
X167259403Y-93083308D01*
X167259403Y-93183308D01*
X149668815Y-93183308D01*
X147540600Y-91055094D01*
X147540600Y-89732200D01*
X149763674Y-89732200D01*
X149804436Y-89740308D01*
X149825907Y-89740308D01*
X149916743Y-89831303D01*
X150118818Y-89915212D01*
X150337622Y-89915403D01*
X150539843Y-89831847D01*
X150694695Y-89677265D01*
X150778604Y-89475190D01*
X150778795Y-89256386D01*
X150695239Y-89054165D01*
X150540657Y-88899313D01*
X150338582Y-88815404D01*
X150119778Y-88815213D01*
X149917557Y-88898769D01*
X149827724Y-88988445D01*
X149796328Y-88982200D01*
X147540600Y-88982200D01*
X147540600Y-83642200D01*
X147502540Y-83450858D01*
X147394153Y-83288646D01*
X144955753Y-80850247D01*
X144793542Y-80741860D01*
X144602200Y-80703800D01*
X136729664Y-80703800D01*
X136690404Y-80687498D01*
X136553154Y-80550248D01*
X136390943Y-80441861D01*
X136381069Y-80439897D01*
X136199601Y-80403801D01*
X122143799Y-80403801D01*
X121962331Y-80439897D01*
X121952457Y-80441861D01*
X121790245Y-80550248D01*
X112045493Y-90295001D01*
X96615508Y-90295001D01*
X95635954Y-89315447D01*
X106470393Y-89315447D01*
X106652697Y-89756657D01*
X106989967Y-90094517D01*
X107430858Y-90277591D01*
X107908247Y-90278007D01*
X108349457Y-90095703D01*
X108687317Y-89758433D01*
X108870391Y-89317542D01*
X108870807Y-88840153D01*
X108688503Y-88398943D01*
X108351233Y-88061083D01*
X107910342Y-87878009D01*
X107432953Y-87877593D01*
X106991743Y-88059897D01*
X106653883Y-88397167D01*
X106470809Y-88838058D01*
X106470393Y-89315447D01*
X95635954Y-89315447D01*
X95419800Y-89099294D01*
X95419800Y-87376000D01*
X95381740Y-87184658D01*
X95313324Y-87082267D01*
X95273354Y-87022447D01*
X94435153Y-86184247D01*
X94272942Y-86075860D01*
X94081600Y-86037800D01*
X93522405Y-86037800D01*
X93448503Y-85858943D01*
X93111233Y-85521083D01*
X92670342Y-85338009D01*
X92192953Y-85337593D01*
X91751743Y-85519897D01*
X91413883Y-85857167D01*
X91230809Y-86298058D01*
X91230393Y-86775447D01*
X90711278Y-86775447D01*
X90711278Y-84235447D01*
X91230393Y-84235447D01*
X91412697Y-84676657D01*
X91749967Y-85014517D01*
X92190858Y-85197591D01*
X92668247Y-85198007D01*
X93109457Y-85015703D01*
X93447317Y-84678433D01*
X93630391Y-84237542D01*
X93630392Y-84235447D01*
X106470393Y-84235447D01*
X106652697Y-84676657D01*
X106989967Y-85014517D01*
X107430858Y-85197591D01*
X107908247Y-85198007D01*
X108349457Y-85015703D01*
X108687317Y-84678433D01*
X108870391Y-84237542D01*
X108870807Y-83760153D01*
X108688503Y-83318943D01*
X108351233Y-82981083D01*
X107910342Y-82798009D01*
X107432953Y-82797593D01*
X106991743Y-82979897D01*
X106653883Y-83317167D01*
X106470809Y-83758058D01*
X106470393Y-84235447D01*
X93630392Y-84235447D01*
X93630807Y-83760153D01*
X93448503Y-83318943D01*
X93111233Y-82981083D01*
X92670342Y-82798009D01*
X92192953Y-82797593D01*
X91751743Y-82979897D01*
X91413883Y-83317167D01*
X91230809Y-83758058D01*
X91230393Y-84235447D01*
X90711278Y-84235447D01*
X90711278Y-81695447D01*
X91230393Y-81695447D01*
X91412697Y-82136657D01*
X91749967Y-82474517D01*
X92190858Y-82657591D01*
X92668247Y-82658007D01*
X93109457Y-82475703D01*
X93447317Y-82138433D01*
X93630391Y-81697542D01*
X93630392Y-81695447D01*
X106470393Y-81695447D01*
X106652697Y-82136657D01*
X106989967Y-82474517D01*
X107430858Y-82657591D01*
X107908247Y-82658007D01*
X108349457Y-82475703D01*
X108687317Y-82138433D01*
X108870391Y-81697542D01*
X108870807Y-81220153D01*
X108688503Y-80778943D01*
X108351233Y-80441083D01*
X107910342Y-80258009D01*
X107432953Y-80257593D01*
X106991743Y-80439897D01*
X106653883Y-80777167D01*
X106470809Y-81218058D01*
X106470393Y-81695447D01*
X93630392Y-81695447D01*
X93630807Y-81220153D01*
X93448503Y-80778943D01*
X93111233Y-80441083D01*
X92670342Y-80258009D01*
X92192953Y-80257593D01*
X91751743Y-80439897D01*
X91413883Y-80777167D01*
X91230809Y-81218058D01*
X91230393Y-81695447D01*
X90711278Y-81695447D01*
X90711278Y-79155447D01*
X91230393Y-79155447D01*
X91412697Y-79596657D01*
X91749967Y-79934517D01*
X92190858Y-80117591D01*
X92668247Y-80118007D01*
X93109457Y-79935703D01*
X93447317Y-79598433D01*
X93630391Y-79157542D01*
X93630392Y-79155447D01*
X106470393Y-79155447D01*
X106652697Y-79596657D01*
X106989967Y-79934517D01*
X107430858Y-80117591D01*
X107908247Y-80118007D01*
X108349457Y-79935703D01*
X108687317Y-79598433D01*
X108860713Y-79180847D01*
X110229593Y-79180847D01*
X110411897Y-79622057D01*
X110749167Y-79959917D01*
X111190058Y-80142991D01*
X111667447Y-80143407D01*
X112108657Y-79961103D01*
X112446517Y-79623833D01*
X112629591Y-79182942D01*
X112629592Y-79180847D01*
X112769593Y-79180847D01*
X112951897Y-79622057D01*
X113289167Y-79959917D01*
X113730058Y-80142991D01*
X114207447Y-80143407D01*
X114648657Y-79961103D01*
X114986517Y-79623833D01*
X115169591Y-79182942D01*
X115169592Y-79180847D01*
X115309593Y-79180847D01*
X115491897Y-79622057D01*
X115829167Y-79959917D01*
X116270058Y-80142991D01*
X116747447Y-80143407D01*
X117188657Y-79961103D01*
X117526517Y-79623833D01*
X117709591Y-79182942D01*
X117709592Y-79180847D01*
X117849593Y-79180847D01*
X118031897Y-79622057D01*
X118369167Y-79959917D01*
X118810058Y-80142991D01*
X119287447Y-80143407D01*
X119728657Y-79961103D01*
X120066517Y-79623833D01*
X120249591Y-79182942D01*
X120249592Y-79180847D01*
X120389593Y-79180847D01*
X120571897Y-79622057D01*
X120909167Y-79959917D01*
X121350058Y-80142991D01*
X121827447Y-80143407D01*
X122268657Y-79961103D01*
X122606517Y-79623833D01*
X122789591Y-79182942D01*
X122789592Y-79180847D01*
X122929593Y-79180847D01*
X123111897Y-79622057D01*
X123449167Y-79959917D01*
X123890058Y-80142991D01*
X124367447Y-80143407D01*
X124808657Y-79961103D01*
X125146517Y-79623833D01*
X125329591Y-79182942D01*
X125329592Y-79180847D01*
X125469593Y-79180847D01*
X125651897Y-79622057D01*
X125989167Y-79959917D01*
X126430058Y-80142991D01*
X126907447Y-80143407D01*
X127348657Y-79961103D01*
X127686517Y-79623833D01*
X127869591Y-79182942D01*
X127869592Y-79180847D01*
X128009593Y-79180847D01*
X128191897Y-79622057D01*
X128529167Y-79959917D01*
X128970058Y-80142991D01*
X129447447Y-80143407D01*
X129888657Y-79961103D01*
X130226517Y-79623833D01*
X130409591Y-79182942D01*
X130409592Y-79180847D01*
X130549593Y-79180847D01*
X130731897Y-79622057D01*
X131069167Y-79959917D01*
X131510058Y-80142991D01*
X131987447Y-80143407D01*
X132428657Y-79961103D01*
X132766517Y-79623833D01*
X132949591Y-79182942D01*
X132949592Y-79180847D01*
X135629593Y-79180847D01*
X135811897Y-79622057D01*
X136149167Y-79959917D01*
X136590058Y-80142991D01*
X137067447Y-80143407D01*
X137508657Y-79961103D01*
X137846517Y-79623833D01*
X138029591Y-79182942D01*
X138029592Y-79180847D01*
X138169593Y-79180847D01*
X138351897Y-79622057D01*
X138689167Y-79959917D01*
X139130058Y-80142991D01*
X139607447Y-80143407D01*
X140048657Y-79961103D01*
X140386517Y-79623833D01*
X140569591Y-79182942D01*
X140569592Y-79180847D01*
X140709593Y-79180847D01*
X140891897Y-79622057D01*
X141229167Y-79959917D01*
X141670058Y-80142991D01*
X142147447Y-80143407D01*
X142588657Y-79961103D01*
X142926517Y-79623833D01*
X143109591Y-79182942D01*
X143109592Y-79180847D01*
X143249593Y-79180847D01*
X143431897Y-79622057D01*
X143769167Y-79959917D01*
X144210058Y-80142991D01*
X144687447Y-80143407D01*
X145128657Y-79961103D01*
X145466517Y-79623833D01*
X145649591Y-79182942D01*
X145649592Y-79180847D01*
X145789593Y-79180847D01*
X145971897Y-79622057D01*
X146309167Y-79959917D01*
X146750058Y-80142991D01*
X147227447Y-80143407D01*
X147668657Y-79961103D01*
X148006517Y-79623833D01*
X148189591Y-79182942D01*
X148189592Y-79180847D01*
X148329593Y-79180847D01*
X148511897Y-79622057D01*
X148849167Y-79959917D01*
X149290058Y-80142991D01*
X149767447Y-80143407D01*
X150123337Y-79996357D01*
X151630597Y-81503617D01*
X151630597Y-88828294D01*
X151489602Y-88969043D01*
X151405693Y-89171118D01*
X151405502Y-89389922D01*
X151489058Y-89592143D01*
X151637718Y-89741062D01*
X151655336Y-89829636D01*
X151725787Y-89935074D01*
X153703829Y-91913115D01*
X153703831Y-91913118D01*
X153809269Y-91983569D01*
X153933641Y-92008309D01*
X153933646Y-92008308D01*
X167307396Y-92008308D01*
X167307452Y-92008589D01*
X167491709Y-92284349D01*
X167767469Y-92468606D01*
X168092750Y-92533308D01*
X168635850Y-92533308D01*
X168961131Y-92468606D01*
X169236891Y-92284349D01*
X169421148Y-92008589D01*
X169485850Y-91683308D01*
X169421148Y-91358027D01*
X169236891Y-91082267D01*
X168961131Y-90898010D01*
X168635850Y-90833308D01*
X168092750Y-90833308D01*
X167767469Y-90898010D01*
X167491709Y-91082267D01*
X167307452Y-91358027D01*
X167307396Y-91358308D01*
X154068260Y-91358308D01*
X152466396Y-89756443D01*
X152645718Y-89830904D01*
X152864522Y-89831095D01*
X153066743Y-89747539D01*
X153208529Y-89606000D01*
X167258127Y-89606000D01*
X167242750Y-89683308D01*
X167307452Y-90008589D01*
X167491709Y-90284349D01*
X167767469Y-90468606D01*
X168092750Y-90533308D01*
X168635850Y-90533308D01*
X168961131Y-90468606D01*
X169236891Y-90284349D01*
X169421148Y-90008589D01*
X169485850Y-89683308D01*
X169421148Y-89358027D01*
X169236891Y-89082267D01*
X168961131Y-88898010D01*
X168635850Y-88833308D01*
X168092750Y-88833308D01*
X167767469Y-88898010D01*
X167680681Y-88956000D01*
X153208306Y-88956000D01*
X153080600Y-88828071D01*
X153080600Y-87975630D01*
X155520605Y-87975630D01*
X155604161Y-88177851D01*
X155758743Y-88332703D01*
X155960818Y-88416612D01*
X156179622Y-88416803D01*
X156381843Y-88333247D01*
X156536695Y-88178665D01*
X156620604Y-87976590D01*
X156620795Y-87757786D01*
X156590022Y-87683308D01*
X167242750Y-87683308D01*
X167307452Y-88008589D01*
X167491709Y-88284349D01*
X167767469Y-88468606D01*
X168092750Y-88533308D01*
X168635850Y-88533308D01*
X168961131Y-88468606D01*
X169236891Y-88284349D01*
X169421148Y-88008589D01*
X169485850Y-87683308D01*
X169421148Y-87358027D01*
X169236891Y-87082267D01*
X168961131Y-86898010D01*
X168635850Y-86833308D01*
X168092750Y-86833308D01*
X167767469Y-86898010D01*
X167491709Y-87082267D01*
X167307452Y-87358027D01*
X167242750Y-87683308D01*
X156590022Y-87683308D01*
X156537239Y-87555565D01*
X156382657Y-87400713D01*
X156180582Y-87316804D01*
X155961778Y-87316613D01*
X155759557Y-87400169D01*
X155604705Y-87554751D01*
X155520796Y-87756826D01*
X155520605Y-87975630D01*
X153080600Y-87975630D01*
X153080600Y-86705630D01*
X153641005Y-86705630D01*
X153724561Y-86907851D01*
X153879143Y-87062703D01*
X154081218Y-87146612D01*
X154300022Y-87146803D01*
X154502243Y-87063247D01*
X154657095Y-86908665D01*
X154741004Y-86706590D01*
X154741195Y-86487786D01*
X154657639Y-86285565D01*
X154503057Y-86130713D01*
X154300982Y-86046804D01*
X154082178Y-86046613D01*
X153879957Y-86130169D01*
X153725105Y-86284751D01*
X153641196Y-86486826D01*
X153641005Y-86705630D01*
X153080600Y-86705630D01*
X153080600Y-79629740D01*
X153086517Y-79623833D01*
X153269591Y-79182942D01*
X153269592Y-79180847D01*
X153409593Y-79180847D01*
X153591897Y-79622057D01*
X153929167Y-79959917D01*
X154370058Y-80142991D01*
X154847447Y-80143407D01*
X155288657Y-79961103D01*
X155626517Y-79623833D01*
X155809591Y-79182942D01*
X155809592Y-79180847D01*
X155949593Y-79180847D01*
X156131897Y-79622057D01*
X156469167Y-79959917D01*
X156910058Y-80142991D01*
X157387447Y-80143407D01*
X157828657Y-79961103D01*
X158166517Y-79623833D01*
X158349591Y-79182942D01*
X158349592Y-79180847D01*
X158489593Y-79180847D01*
X158671897Y-79622057D01*
X159009167Y-79959917D01*
X159450058Y-80142991D01*
X159927447Y-80143407D01*
X160368657Y-79961103D01*
X160706517Y-79623833D01*
X160889591Y-79182942D01*
X160889592Y-79180847D01*
X161029593Y-79180847D01*
X161211897Y-79622057D01*
X161549167Y-79959917D01*
X161990058Y-80142991D01*
X162467447Y-80143407D01*
X162908657Y-79961103D01*
X163246517Y-79623833D01*
X163429591Y-79182942D01*
X163429592Y-79180847D01*
X163569593Y-79180847D01*
X163751897Y-79622057D01*
X164089167Y-79959917D01*
X164530058Y-80142991D01*
X165007447Y-80143407D01*
X165448657Y-79961103D01*
X165786517Y-79623833D01*
X165969591Y-79182942D01*
X165969592Y-79180847D01*
X166109593Y-79180847D01*
X166291897Y-79622057D01*
X166629167Y-79959917D01*
X167070058Y-80142991D01*
X167547447Y-80143407D01*
X167988657Y-79961103D01*
X168326517Y-79623833D01*
X168509591Y-79182942D01*
X168510007Y-78705553D01*
X168327703Y-78264343D01*
X167990433Y-77926483D01*
X167549542Y-77743409D01*
X167072153Y-77742993D01*
X166630943Y-77925297D01*
X166293083Y-78262567D01*
X166110009Y-78703458D01*
X166109593Y-79180847D01*
X165969592Y-79180847D01*
X165970007Y-78705553D01*
X165787703Y-78264343D01*
X165450433Y-77926483D01*
X165009542Y-77743409D01*
X164532153Y-77742993D01*
X164090943Y-77925297D01*
X163753083Y-78262567D01*
X163570009Y-78703458D01*
X163569593Y-79180847D01*
X163429592Y-79180847D01*
X163430007Y-78705553D01*
X163247703Y-78264343D01*
X162910433Y-77926483D01*
X162469542Y-77743409D01*
X161992153Y-77742993D01*
X161550943Y-77925297D01*
X161213083Y-78262567D01*
X161030009Y-78703458D01*
X161029593Y-79180847D01*
X160889592Y-79180847D01*
X160890007Y-78705553D01*
X160707703Y-78264343D01*
X160370433Y-77926483D01*
X159929542Y-77743409D01*
X159452153Y-77742993D01*
X159010943Y-77925297D01*
X158673083Y-78262567D01*
X158490009Y-78703458D01*
X158489593Y-79180847D01*
X158349592Y-79180847D01*
X158350007Y-78705553D01*
X158167703Y-78264343D01*
X157830433Y-77926483D01*
X157389542Y-77743409D01*
X156912153Y-77742993D01*
X156470943Y-77925297D01*
X156133083Y-78262567D01*
X155950009Y-78703458D01*
X155949593Y-79180847D01*
X155809592Y-79180847D01*
X155810007Y-78705553D01*
X155627703Y-78264343D01*
X155290433Y-77926483D01*
X154849542Y-77743409D01*
X154372153Y-77742993D01*
X153930943Y-77925297D01*
X153593083Y-78262567D01*
X153410009Y-78703458D01*
X153409593Y-79180847D01*
X153269592Y-79180847D01*
X153270007Y-78705553D01*
X153087703Y-78264343D01*
X152750433Y-77926483D01*
X152309542Y-77743409D01*
X151832153Y-77742993D01*
X151390943Y-77925297D01*
X151053083Y-78262567D01*
X150870009Y-78703458D01*
X150869593Y-79180847D01*
X151051897Y-79622057D01*
X151389167Y-79959917D01*
X151830058Y-80142991D01*
X152307447Y-80143407D01*
X152430600Y-80092521D01*
X152430600Y-88828294D01*
X152355579Y-88903184D01*
X152280597Y-88828071D01*
X152280597Y-81368997D01*
X152255858Y-81244625D01*
X152185407Y-81139187D01*
X150582763Y-79536543D01*
X150729591Y-79182942D01*
X150730007Y-78705553D01*
X150547703Y-78264343D01*
X150210433Y-77926483D01*
X149769542Y-77743409D01*
X149292153Y-77742993D01*
X148850943Y-77925297D01*
X148513083Y-78262567D01*
X148330009Y-78703458D01*
X148329593Y-79180847D01*
X148189592Y-79180847D01*
X148190007Y-78705553D01*
X148007703Y-78264343D01*
X147670433Y-77926483D01*
X147229542Y-77743409D01*
X146752153Y-77742993D01*
X146310943Y-77925297D01*
X145973083Y-78262567D01*
X145790009Y-78703458D01*
X145789593Y-79180847D01*
X145649592Y-79180847D01*
X145650007Y-78705553D01*
X145467703Y-78264343D01*
X145130433Y-77926483D01*
X144689542Y-77743409D01*
X144212153Y-77742993D01*
X143770943Y-77925297D01*
X143433083Y-78262567D01*
X143250009Y-78703458D01*
X143249593Y-79180847D01*
X143109592Y-79180847D01*
X143110007Y-78705553D01*
X142927703Y-78264343D01*
X142590433Y-77926483D01*
X142149542Y-77743409D01*
X141672153Y-77742993D01*
X141230943Y-77925297D01*
X140893083Y-78262567D01*
X140710009Y-78703458D01*
X140709593Y-79180847D01*
X140569592Y-79180847D01*
X140570007Y-78705553D01*
X140387703Y-78264343D01*
X140050433Y-77926483D01*
X139609542Y-77743409D01*
X139132153Y-77742993D01*
X138690943Y-77925297D01*
X138353083Y-78262567D01*
X138170009Y-78703458D01*
X138169593Y-79180847D01*
X138029592Y-79180847D01*
X138030007Y-78705553D01*
X137847703Y-78264343D01*
X137510433Y-77926483D01*
X137069542Y-77743409D01*
X136592153Y-77742993D01*
X136150943Y-77925297D01*
X135813083Y-78262567D01*
X135630009Y-78703458D01*
X135629593Y-79180847D01*
X132949592Y-79180847D01*
X132950007Y-78705553D01*
X132767703Y-78264343D01*
X132430433Y-77926483D01*
X131989542Y-77743409D01*
X131512153Y-77742993D01*
X131070943Y-77925297D01*
X130733083Y-78262567D01*
X130550009Y-78703458D01*
X130549593Y-79180847D01*
X130409592Y-79180847D01*
X130410007Y-78705553D01*
X130227703Y-78264343D01*
X129890433Y-77926483D01*
X129449542Y-77743409D01*
X128972153Y-77742993D01*
X128530943Y-77925297D01*
X128193083Y-78262567D01*
X128010009Y-78703458D01*
X128009593Y-79180847D01*
X127869592Y-79180847D01*
X127870007Y-78705553D01*
X127687703Y-78264343D01*
X127350433Y-77926483D01*
X126909542Y-77743409D01*
X126432153Y-77742993D01*
X125990943Y-77925297D01*
X125653083Y-78262567D01*
X125470009Y-78703458D01*
X125469593Y-79180847D01*
X125329592Y-79180847D01*
X125330007Y-78705553D01*
X125147703Y-78264343D01*
X124810433Y-77926483D01*
X124369542Y-77743409D01*
X123892153Y-77742993D01*
X123450943Y-77925297D01*
X123113083Y-78262567D01*
X122930009Y-78703458D01*
X122929593Y-79180847D01*
X122789592Y-79180847D01*
X122790007Y-78705553D01*
X122607703Y-78264343D01*
X122270433Y-77926483D01*
X121829542Y-77743409D01*
X121352153Y-77742993D01*
X120910943Y-77925297D01*
X120573083Y-78262567D01*
X120390009Y-78703458D01*
X120389593Y-79180847D01*
X120249592Y-79180847D01*
X120250007Y-78705553D01*
X120067703Y-78264343D01*
X119730433Y-77926483D01*
X119289542Y-77743409D01*
X118812153Y-77742993D01*
X118370943Y-77925297D01*
X118033083Y-78262567D01*
X117850009Y-78703458D01*
X117849593Y-79180847D01*
X117709592Y-79180847D01*
X117710007Y-78705553D01*
X117527703Y-78264343D01*
X117190433Y-77926483D01*
X116749542Y-77743409D01*
X116272153Y-77742993D01*
X115830943Y-77925297D01*
X115493083Y-78262567D01*
X115310009Y-78703458D01*
X115309593Y-79180847D01*
X115169592Y-79180847D01*
X115170007Y-78705553D01*
X114987703Y-78264343D01*
X114650433Y-77926483D01*
X114209542Y-77743409D01*
X113732153Y-77742993D01*
X113290943Y-77925297D01*
X112953083Y-78262567D01*
X112770009Y-78703458D01*
X112769593Y-79180847D01*
X112629592Y-79180847D01*
X112630007Y-78705553D01*
X112447703Y-78264343D01*
X112110433Y-77926483D01*
X111669542Y-77743409D01*
X111192153Y-77742993D01*
X110750943Y-77925297D01*
X110413083Y-78262567D01*
X110230009Y-78703458D01*
X110229593Y-79180847D01*
X108860713Y-79180847D01*
X108870391Y-79157542D01*
X108870807Y-78680153D01*
X108688503Y-78238943D01*
X108351233Y-77901083D01*
X107910342Y-77718009D01*
X107432953Y-77717593D01*
X106991743Y-77899897D01*
X106653883Y-78237167D01*
X106470809Y-78678058D01*
X106470393Y-79155447D01*
X93630392Y-79155447D01*
X93630807Y-78680153D01*
X93448503Y-78238943D01*
X93111233Y-77901083D01*
X92670342Y-77718009D01*
X92192953Y-77717593D01*
X91751743Y-77899897D01*
X91413883Y-78237167D01*
X91230809Y-78678058D01*
X91230393Y-79155447D01*
X90711278Y-79155447D01*
X90711278Y-76615447D01*
X91230393Y-76615447D01*
X91412697Y-77056657D01*
X91749967Y-77394517D01*
X92190858Y-77577591D01*
X92668247Y-77578007D01*
X93109457Y-77395703D01*
X93447317Y-77058433D01*
X93630391Y-76617542D01*
X93630392Y-76615447D01*
X106470393Y-76615447D01*
X106652697Y-77056657D01*
X106989967Y-77394517D01*
X107430858Y-77577591D01*
X107908247Y-77578007D01*
X108349457Y-77395703D01*
X108687317Y-77058433D01*
X108870391Y-76617542D01*
X108870807Y-76140153D01*
X108688503Y-75698943D01*
X108351233Y-75361083D01*
X107910342Y-75178009D01*
X107432953Y-75177593D01*
X106991743Y-75359897D01*
X106653883Y-75697167D01*
X106470809Y-76138058D01*
X106470393Y-76615447D01*
X93630392Y-76615447D01*
X93630807Y-76140153D01*
X93448503Y-75698943D01*
X93111233Y-75361083D01*
X92670342Y-75178009D01*
X92192953Y-75177593D01*
X91751743Y-75359897D01*
X91413883Y-75697167D01*
X91230809Y-76138058D01*
X91230393Y-76615447D01*
X90711278Y-76615447D01*
X90711278Y-74075447D01*
X91230393Y-74075447D01*
X91412697Y-74516657D01*
X91749967Y-74854517D01*
X92190858Y-75037591D01*
X92668247Y-75038007D01*
X93109457Y-74855703D01*
X93447317Y-74518433D01*
X93630391Y-74077542D01*
X93630392Y-74075447D01*
X106470393Y-74075447D01*
X106652697Y-74516657D01*
X106989967Y-74854517D01*
X107430858Y-75037591D01*
X107908247Y-75038007D01*
X108349457Y-74855703D01*
X108687317Y-74518433D01*
X108870391Y-74077542D01*
X108870807Y-73600153D01*
X108688503Y-73158943D01*
X108351233Y-72821083D01*
X107910342Y-72638009D01*
X107432953Y-72637593D01*
X106991743Y-72819897D01*
X106653883Y-73157167D01*
X106470809Y-73598058D01*
X106470393Y-74075447D01*
X93630392Y-74075447D01*
X93630807Y-73600153D01*
X93448503Y-73158943D01*
X93111233Y-72821083D01*
X92670342Y-72638009D01*
X92192953Y-72637593D01*
X91751743Y-72819897D01*
X91413883Y-73157167D01*
X91230809Y-73598058D01*
X91230393Y-74075447D01*
X90711278Y-74075447D01*
X90711278Y-71535447D01*
X91230393Y-71535447D01*
X91412697Y-71976657D01*
X91749967Y-72314517D01*
X92190858Y-72497591D01*
X92668247Y-72498007D01*
X93109457Y-72315703D01*
X93447317Y-71978433D01*
X93630391Y-71537542D01*
X93630392Y-71535447D01*
X106470393Y-71535447D01*
X106652697Y-71976657D01*
X106989967Y-72314517D01*
X107430858Y-72497591D01*
X107908247Y-72498007D01*
X108349457Y-72315703D01*
X108687317Y-71978433D01*
X108870391Y-71537542D01*
X108870807Y-71060153D01*
X108688503Y-70618943D01*
X108351233Y-70281083D01*
X107910342Y-70098009D01*
X107432953Y-70097593D01*
X106991743Y-70279897D01*
X106653883Y-70617167D01*
X106470809Y-71058058D01*
X106470393Y-71535447D01*
X93630392Y-71535447D01*
X93630807Y-71060153D01*
X93448503Y-70618943D01*
X93111233Y-70281083D01*
X92670342Y-70098009D01*
X92192953Y-70097593D01*
X91751743Y-70279897D01*
X91413883Y-70617167D01*
X91230809Y-71058058D01*
X91230393Y-71535447D01*
X90711278Y-71535447D01*
X90711278Y-69366373D01*
X170149679Y-69366373D01*
X170430732Y-70046572D01*
X170950691Y-70567439D01*
X171630398Y-70849679D01*
X172366373Y-70850321D01*
X173046572Y-70569268D01*
X173567439Y-70049309D01*
X173849679Y-69369602D01*
X173850321Y-68633627D01*
X173569268Y-67953428D01*
X173049309Y-67432561D01*
X172369602Y-67150321D01*
X171633627Y-67149679D01*
X170953428Y-67430732D01*
X170432561Y-67950691D01*
X170150321Y-68630398D01*
X170149679Y-69366373D01*
X90711278Y-69366373D01*
X90711278Y-64366373D01*
X92149679Y-64366373D01*
X92430732Y-65046572D01*
X92950691Y-65567439D01*
X93630398Y-65849679D01*
X94366373Y-65850321D01*
X95046572Y-65569268D01*
X95567439Y-65049309D01*
X95849679Y-64369602D01*
X95850053Y-63940847D01*
X110229593Y-63940847D01*
X110411897Y-64382057D01*
X110749167Y-64719917D01*
X111190058Y-64902991D01*
X111667447Y-64903407D01*
X112108657Y-64721103D01*
X112446517Y-64383833D01*
X112629591Y-63942942D01*
X112629592Y-63940847D01*
X112769593Y-63940847D01*
X112951897Y-64382057D01*
X113289167Y-64719917D01*
X113730058Y-64902991D01*
X114207447Y-64903407D01*
X114648657Y-64721103D01*
X114986517Y-64383833D01*
X115169591Y-63942942D01*
X115169592Y-63940847D01*
X115309593Y-63940847D01*
X115491897Y-64382057D01*
X115829167Y-64719917D01*
X116270058Y-64902991D01*
X116747447Y-64903407D01*
X117188657Y-64721103D01*
X117526517Y-64383833D01*
X117709591Y-63942942D01*
X117709592Y-63940847D01*
X117849593Y-63940847D01*
X118031897Y-64382057D01*
X118369167Y-64719917D01*
X118810058Y-64902991D01*
X119287447Y-64903407D01*
X119728657Y-64721103D01*
X120066517Y-64383833D01*
X120249591Y-63942942D01*
X120249592Y-63940847D01*
X120389593Y-63940847D01*
X120571897Y-64382057D01*
X120909167Y-64719917D01*
X121350058Y-64902991D01*
X121827447Y-64903407D01*
X122268657Y-64721103D01*
X122606517Y-64383833D01*
X122789591Y-63942942D01*
X122789592Y-63940847D01*
X122929593Y-63940847D01*
X123111897Y-64382057D01*
X123449167Y-64719917D01*
X123890058Y-64902991D01*
X124367447Y-64903407D01*
X124808657Y-64721103D01*
X125146517Y-64383833D01*
X125329591Y-63942942D01*
X125329592Y-63940847D01*
X125469593Y-63940847D01*
X125651897Y-64382057D01*
X125989167Y-64719917D01*
X126430058Y-64902991D01*
X126907447Y-64903407D01*
X127348657Y-64721103D01*
X127686517Y-64383833D01*
X127869591Y-63942942D01*
X127869592Y-63940847D01*
X128009593Y-63940847D01*
X128191897Y-64382057D01*
X128529167Y-64719917D01*
X128970058Y-64902991D01*
X129447447Y-64903407D01*
X129888657Y-64721103D01*
X130226517Y-64383833D01*
X130409591Y-63942942D01*
X130409592Y-63940847D01*
X130549593Y-63940847D01*
X130731897Y-64382057D01*
X131069167Y-64719917D01*
X131510058Y-64902991D01*
X131987447Y-64903407D01*
X132428657Y-64721103D01*
X132766517Y-64383833D01*
X132949591Y-63942942D01*
X132949592Y-63940847D01*
X133089593Y-63940847D01*
X133271897Y-64382057D01*
X133609167Y-64719917D01*
X134050058Y-64902991D01*
X134527447Y-64903407D01*
X134968657Y-64721103D01*
X135306517Y-64383833D01*
X135489591Y-63942942D01*
X135489592Y-63940847D01*
X135629593Y-63940847D01*
X135811897Y-64382057D01*
X136149167Y-64719917D01*
X136590058Y-64902991D01*
X137067447Y-64903407D01*
X137508657Y-64721103D01*
X137846517Y-64383833D01*
X138029591Y-63942942D01*
X138029592Y-63940847D01*
X138169593Y-63940847D01*
X138351897Y-64382057D01*
X138689167Y-64719917D01*
X139130058Y-64902991D01*
X139607447Y-64903407D01*
X140048657Y-64721103D01*
X140386517Y-64383833D01*
X140569591Y-63942942D01*
X140569592Y-63940847D01*
X140709593Y-63940847D01*
X140891897Y-64382057D01*
X141229167Y-64719917D01*
X141670058Y-64902991D01*
X142147447Y-64903407D01*
X142588657Y-64721103D01*
X142926517Y-64383833D01*
X143109591Y-63942942D01*
X143109592Y-63940847D01*
X143249593Y-63940847D01*
X143431897Y-64382057D01*
X143769167Y-64719917D01*
X144210058Y-64902991D01*
X144687447Y-64903407D01*
X145128657Y-64721103D01*
X145466517Y-64383833D01*
X145649591Y-63942942D01*
X145649592Y-63940847D01*
X145789593Y-63940847D01*
X145971897Y-64382057D01*
X146309167Y-64719917D01*
X146750058Y-64902991D01*
X147227447Y-64903407D01*
X147668657Y-64721103D01*
X148006517Y-64383833D01*
X148189591Y-63942942D01*
X148189592Y-63940847D01*
X148329593Y-63940847D01*
X148511897Y-64382057D01*
X148849167Y-64719917D01*
X149290058Y-64902991D01*
X149767447Y-64903407D01*
X150208657Y-64721103D01*
X150546517Y-64383833D01*
X150729591Y-63942942D01*
X150729592Y-63940847D01*
X150869593Y-63940847D01*
X151051897Y-64382057D01*
X151389167Y-64719917D01*
X151830058Y-64902991D01*
X152307447Y-64903407D01*
X152748657Y-64721103D01*
X153086517Y-64383833D01*
X153269591Y-63942942D01*
X153269592Y-63940847D01*
X153409593Y-63940847D01*
X153591897Y-64382057D01*
X153929167Y-64719917D01*
X154370058Y-64902991D01*
X154847447Y-64903407D01*
X155288657Y-64721103D01*
X155626517Y-64383833D01*
X155809591Y-63942942D01*
X155809592Y-63940847D01*
X155949593Y-63940847D01*
X156131897Y-64382057D01*
X156469167Y-64719917D01*
X156910058Y-64902991D01*
X157387447Y-64903407D01*
X157828657Y-64721103D01*
X158166517Y-64383833D01*
X158349591Y-63942942D01*
X158349592Y-63940847D01*
X158489593Y-63940847D01*
X158671897Y-64382057D01*
X159009167Y-64719917D01*
X159450058Y-64902991D01*
X159927447Y-64903407D01*
X160368657Y-64721103D01*
X160706517Y-64383833D01*
X160889591Y-63942942D01*
X160889592Y-63940847D01*
X161029593Y-63940847D01*
X161211897Y-64382057D01*
X161549167Y-64719917D01*
X161990058Y-64902991D01*
X162467447Y-64903407D01*
X162908657Y-64721103D01*
X163246517Y-64383833D01*
X163429591Y-63942942D01*
X163429592Y-63940847D01*
X163569593Y-63940847D01*
X163751897Y-64382057D01*
X164089167Y-64719917D01*
X164530058Y-64902991D01*
X165007447Y-64903407D01*
X165448657Y-64721103D01*
X165786517Y-64383833D01*
X165969591Y-63942942D01*
X165969592Y-63940847D01*
X166109593Y-63940847D01*
X166291897Y-64382057D01*
X166629167Y-64719917D01*
X167070058Y-64902991D01*
X167547447Y-64903407D01*
X167988657Y-64721103D01*
X168326517Y-64383833D01*
X168509591Y-63942942D01*
X168510007Y-63465553D01*
X168327703Y-63024343D01*
X167990433Y-62686483D01*
X167549542Y-62503409D01*
X167072153Y-62502993D01*
X166630943Y-62685297D01*
X166293083Y-63022567D01*
X166110009Y-63463458D01*
X166109593Y-63940847D01*
X165969592Y-63940847D01*
X165970007Y-63465553D01*
X165787703Y-63024343D01*
X165450433Y-62686483D01*
X165009542Y-62503409D01*
X164532153Y-62502993D01*
X164090943Y-62685297D01*
X163753083Y-63022567D01*
X163570009Y-63463458D01*
X163569593Y-63940847D01*
X163429592Y-63940847D01*
X163430007Y-63465553D01*
X163247703Y-63024343D01*
X162910433Y-62686483D01*
X162469542Y-62503409D01*
X161992153Y-62502993D01*
X161550943Y-62685297D01*
X161213083Y-63022567D01*
X161030009Y-63463458D01*
X161029593Y-63940847D01*
X160889592Y-63940847D01*
X160890007Y-63465553D01*
X160707703Y-63024343D01*
X160370433Y-62686483D01*
X159929542Y-62503409D01*
X159452153Y-62502993D01*
X159010943Y-62685297D01*
X158673083Y-63022567D01*
X158490009Y-63463458D01*
X158489593Y-63940847D01*
X158349592Y-63940847D01*
X158350007Y-63465553D01*
X158167703Y-63024343D01*
X157830433Y-62686483D01*
X157389542Y-62503409D01*
X156912153Y-62502993D01*
X156470943Y-62685297D01*
X156133083Y-63022567D01*
X155950009Y-63463458D01*
X155949593Y-63940847D01*
X155809592Y-63940847D01*
X155810007Y-63465553D01*
X155627703Y-63024343D01*
X155290433Y-62686483D01*
X154849542Y-62503409D01*
X154372153Y-62502993D01*
X153930943Y-62685297D01*
X153593083Y-63022567D01*
X153410009Y-63463458D01*
X153409593Y-63940847D01*
X153269592Y-63940847D01*
X153270007Y-63465553D01*
X153087703Y-63024343D01*
X152750433Y-62686483D01*
X152309542Y-62503409D01*
X151832153Y-62502993D01*
X151390943Y-62685297D01*
X151053083Y-63022567D01*
X150870009Y-63463458D01*
X150869593Y-63940847D01*
X150729592Y-63940847D01*
X150730007Y-63465553D01*
X150547703Y-63024343D01*
X150210433Y-62686483D01*
X149769542Y-62503409D01*
X149292153Y-62502993D01*
X148850943Y-62685297D01*
X148513083Y-63022567D01*
X148330009Y-63463458D01*
X148329593Y-63940847D01*
X148189592Y-63940847D01*
X148190007Y-63465553D01*
X148007703Y-63024343D01*
X147670433Y-62686483D01*
X147229542Y-62503409D01*
X146752153Y-62502993D01*
X146310943Y-62685297D01*
X145973083Y-63022567D01*
X145790009Y-63463458D01*
X145789593Y-63940847D01*
X145649592Y-63940847D01*
X145650007Y-63465553D01*
X145467703Y-63024343D01*
X145130433Y-62686483D01*
X144689542Y-62503409D01*
X144212153Y-62502993D01*
X143770943Y-62685297D01*
X143433083Y-63022567D01*
X143250009Y-63463458D01*
X143249593Y-63940847D01*
X143109592Y-63940847D01*
X143110007Y-63465553D01*
X142927703Y-63024343D01*
X142590433Y-62686483D01*
X142149542Y-62503409D01*
X141672153Y-62502993D01*
X141230943Y-62685297D01*
X140893083Y-63022567D01*
X140710009Y-63463458D01*
X140709593Y-63940847D01*
X140569592Y-63940847D01*
X140570007Y-63465553D01*
X140387703Y-63024343D01*
X140050433Y-62686483D01*
X139609542Y-62503409D01*
X139132153Y-62502993D01*
X138690943Y-62685297D01*
X138353083Y-63022567D01*
X138170009Y-63463458D01*
X138169593Y-63940847D01*
X138029592Y-63940847D01*
X138030007Y-63465553D01*
X137847703Y-63024343D01*
X137510433Y-62686483D01*
X137069542Y-62503409D01*
X136592153Y-62502993D01*
X136150943Y-62685297D01*
X135813083Y-63022567D01*
X135630009Y-63463458D01*
X135629593Y-63940847D01*
X135489592Y-63940847D01*
X135490007Y-63465553D01*
X135307703Y-63024343D01*
X134970433Y-62686483D01*
X134529542Y-62503409D01*
X134052153Y-62502993D01*
X133610943Y-62685297D01*
X133273083Y-63022567D01*
X133090009Y-63463458D01*
X133089593Y-63940847D01*
X132949592Y-63940847D01*
X132950007Y-63465553D01*
X132767703Y-63024343D01*
X132430433Y-62686483D01*
X131989542Y-62503409D01*
X131512153Y-62502993D01*
X131070943Y-62685297D01*
X130733083Y-63022567D01*
X130550009Y-63463458D01*
X130549593Y-63940847D01*
X130409592Y-63940847D01*
X130410007Y-63465553D01*
X130227703Y-63024343D01*
X129890433Y-62686483D01*
X129449542Y-62503409D01*
X128972153Y-62502993D01*
X128530943Y-62685297D01*
X128193083Y-63022567D01*
X128010009Y-63463458D01*
X128009593Y-63940847D01*
X127869592Y-63940847D01*
X127870007Y-63465553D01*
X127687703Y-63024343D01*
X127350433Y-62686483D01*
X126909542Y-62503409D01*
X126432153Y-62502993D01*
X125990943Y-62685297D01*
X125653083Y-63022567D01*
X125470009Y-63463458D01*
X125469593Y-63940847D01*
X125329592Y-63940847D01*
X125330007Y-63465553D01*
X125147703Y-63024343D01*
X124810433Y-62686483D01*
X124369542Y-62503409D01*
X123892153Y-62502993D01*
X123450943Y-62685297D01*
X123113083Y-63022567D01*
X122930009Y-63463458D01*
X122929593Y-63940847D01*
X122789592Y-63940847D01*
X122790007Y-63465553D01*
X122607703Y-63024343D01*
X122270433Y-62686483D01*
X121829542Y-62503409D01*
X121352153Y-62502993D01*
X120910943Y-62685297D01*
X120573083Y-63022567D01*
X120390009Y-63463458D01*
X120389593Y-63940847D01*
X120249592Y-63940847D01*
X120250007Y-63465553D01*
X120067703Y-63024343D01*
X119730433Y-62686483D01*
X119289542Y-62503409D01*
X118812153Y-62502993D01*
X118370943Y-62685297D01*
X118033083Y-63022567D01*
X117850009Y-63463458D01*
X117849593Y-63940847D01*
X117709592Y-63940847D01*
X117710007Y-63465553D01*
X117527703Y-63024343D01*
X117190433Y-62686483D01*
X116749542Y-62503409D01*
X116272153Y-62502993D01*
X115830943Y-62685297D01*
X115493083Y-63022567D01*
X115310009Y-63463458D01*
X115309593Y-63940847D01*
X115169592Y-63940847D01*
X115170007Y-63465553D01*
X114987703Y-63024343D01*
X114650433Y-62686483D01*
X114209542Y-62503409D01*
X113732153Y-62502993D01*
X113290943Y-62685297D01*
X112953083Y-63022567D01*
X112770009Y-63463458D01*
X112769593Y-63940847D01*
X112629592Y-63940847D01*
X112630007Y-63465553D01*
X112447703Y-63024343D01*
X112110433Y-62686483D01*
X111669542Y-62503409D01*
X111192153Y-62502993D01*
X110750943Y-62685297D01*
X110413083Y-63022567D01*
X110230009Y-63463458D01*
X110229593Y-63940847D01*
X95850053Y-63940847D01*
X95850321Y-63633627D01*
X95569268Y-62953428D01*
X95049309Y-62432561D01*
X94369602Y-62150321D01*
X93633627Y-62149679D01*
X92953428Y-62430732D01*
X92432561Y-62950691D01*
X92150321Y-63630398D01*
X92149679Y-64366373D01*
X90711278Y-64366373D01*
X90711278Y-60759548D01*
X175261278Y-60759548D01*
X175261278Y-120309548D01*
X175261278Y-120309548D01*
G37*
X175261278Y-120309548D02*
X90711278Y-120309548D01*
X90711278Y-117366373D01*
X92149679Y-117366373D01*
X92430732Y-118046572D01*
X92950691Y-118567439D01*
X93630398Y-118849679D01*
X94366373Y-118850321D01*
X95046572Y-118569268D01*
X95567439Y-118049309D01*
X95849679Y-117369602D01*
X95850321Y-116633627D01*
X95569268Y-115953428D01*
X95464013Y-115847989D01*
X123329890Y-115847989D01*
X123329890Y-117425611D01*
X123406247Y-117809485D01*
X123623694Y-118134917D01*
X123949126Y-118352364D01*
X124333000Y-118428721D01*
X124716874Y-118352364D01*
X125042306Y-118134917D01*
X125259753Y-117809485D01*
X125336110Y-117425611D01*
X125336110Y-115847989D01*
X125259753Y-115464115D01*
X125042306Y-115138683D01*
X124716874Y-114921236D01*
X124333000Y-114844879D01*
X123949126Y-114921236D01*
X123623694Y-115138683D01*
X123406247Y-115464115D01*
X123329890Y-115847989D01*
X95464013Y-115847989D01*
X95049309Y-115432561D01*
X94369602Y-115150321D01*
X93633627Y-115149679D01*
X92953428Y-115430732D01*
X92432561Y-115950691D01*
X92150321Y-116630398D01*
X92149679Y-117366373D01*
X90711278Y-117366373D01*
X90711278Y-113868200D01*
X100341479Y-113868200D01*
X100417836Y-114252074D01*
X100635283Y-114577506D01*
X100960715Y-114794953D01*
X101344589Y-114871310D01*
X102922211Y-114871310D01*
X103306085Y-114794953D01*
X103631517Y-114577506D01*
X103848964Y-114252074D01*
X103925321Y-113868200D01*
X103848964Y-113484326D01*
X103631517Y-113158894D01*
X103306085Y-112941447D01*
X102922211Y-112865090D01*
X101344589Y-112865090D01*
X100960715Y-112941447D01*
X100635283Y-113158894D01*
X100417836Y-113484326D01*
X100341479Y-113868200D01*
X90711278Y-113868200D01*
X90711278Y-111208522D01*
X110270105Y-111208522D01*
X110353661Y-111410743D01*
X110508243Y-111565595D01*
X110710318Y-111649504D01*
X110929122Y-111649695D01*
X111131343Y-111566139D01*
X111286195Y-111411557D01*
X111370104Y-111209482D01*
X111370295Y-110990678D01*
X111286739Y-110788457D01*
X111195200Y-110696758D01*
X111195200Y-108744722D01*
X133041905Y-108744722D01*
X133125461Y-108946943D01*
X133280043Y-109101795D01*
X133482118Y-109185704D01*
X133611687Y-109185817D01*
X135007000Y-110581130D01*
X135007000Y-117500400D01*
X135035545Y-117643907D01*
X135116835Y-117765565D01*
X136127417Y-118776147D01*
X136127305Y-118904722D01*
X136210861Y-119106943D01*
X136365443Y-119261795D01*
X136567518Y-119345704D01*
X136786322Y-119345895D01*
X136988543Y-119262339D01*
X137143395Y-119107757D01*
X137227304Y-118905682D01*
X137227495Y-118686878D01*
X137143939Y-118484657D01*
X136989357Y-118329805D01*
X136787282Y-118245896D01*
X136657713Y-118245783D01*
X135778303Y-117366373D01*
X170149679Y-117366373D01*
X170430732Y-118046572D01*
X170950691Y-118567439D01*
X171630398Y-118849679D01*
X172366373Y-118850321D01*
X173046572Y-118569268D01*
X173567439Y-118049309D01*
X173849679Y-117369602D01*
X173850321Y-116633627D01*
X173569268Y-115953428D01*
X173049309Y-115432561D01*
X172369602Y-115150321D01*
X171633627Y-115149679D01*
X170953428Y-115430732D01*
X170432561Y-115950691D01*
X170150321Y-116630398D01*
X170149679Y-117366373D01*
X135778303Y-117366373D01*
X135757000Y-117345070D01*
X135757000Y-113288508D01*
X167234003Y-113288508D01*
X167234003Y-114488508D01*
X167251435Y-114581152D01*
X167306188Y-114666240D01*
X167389731Y-114723323D01*
X167488900Y-114743405D01*
X169188900Y-114743405D01*
X169281544Y-114725973D01*
X169366632Y-114671220D01*
X169388983Y-114638508D01*
X169804092Y-114638508D01*
X170091105Y-114581418D01*
X170334422Y-114418838D01*
X171218330Y-113534930D01*
X171336432Y-113358178D01*
X171380910Y-113291613D01*
X171438000Y-113004600D01*
X171438000Y-105143208D01*
X171380910Y-104856195D01*
X171218330Y-104612878D01*
X170375630Y-103770178D01*
X170132313Y-103607598D01*
X169845300Y-103550508D01*
X169414857Y-103550508D01*
X169397012Y-103522776D01*
X169313469Y-103465693D01*
X169214300Y-103445611D01*
X167514300Y-103445611D01*
X167421656Y-103463043D01*
X167336568Y-103517796D01*
X167279485Y-103601339D01*
X167259403Y-103700508D01*
X167259403Y-104900508D01*
X167276835Y-104993152D01*
X167331588Y-105078240D01*
X167415131Y-105135323D01*
X167514300Y-105155405D01*
X169214300Y-105155405D01*
X169306944Y-105137973D01*
X169392032Y-105083220D01*
X169414383Y-105050508D01*
X169534640Y-105050508D01*
X169938000Y-105453868D01*
X169938000Y-112693940D01*
X169493432Y-113138508D01*
X169389457Y-113138508D01*
X169371612Y-113110776D01*
X169288069Y-113053693D01*
X169188900Y-113033611D01*
X167488900Y-113033611D01*
X167396256Y-113051043D01*
X167311168Y-113105796D01*
X167254085Y-113189339D01*
X167234003Y-113288508D01*
X135757000Y-113288508D01*
X135757000Y-111888508D01*
X167217350Y-111888508D01*
X167282052Y-112213789D01*
X167466309Y-112489549D01*
X167742069Y-112673806D01*
X168067350Y-112738508D01*
X168610450Y-112738508D01*
X168935731Y-112673806D01*
X169211491Y-112489549D01*
X169395748Y-112213789D01*
X169460450Y-111888508D01*
X169395748Y-111563227D01*
X169211491Y-111287467D01*
X168935731Y-111103210D01*
X168610450Y-111038508D01*
X168067350Y-111038508D01*
X167742069Y-111103210D01*
X167466309Y-111287467D01*
X167282052Y-111563227D01*
X167217350Y-111888508D01*
X135757000Y-111888508D01*
X135757000Y-110425800D01*
X135728455Y-110282294D01*
X135728455Y-110282293D01*
X135647165Y-110160635D01*
X134141983Y-108655453D01*
X134142095Y-108526878D01*
X134058539Y-108324657D01*
X133903957Y-108169805D01*
X133701882Y-108085896D01*
X133483078Y-108085705D01*
X133280857Y-108169261D01*
X133126005Y-108323843D01*
X133042096Y-108525918D01*
X133041905Y-108744722D01*
X111195200Y-108744722D01*
X111195200Y-108211322D01*
X112810105Y-108211322D01*
X112893661Y-108413543D01*
X113048243Y-108568395D01*
X113250318Y-108652304D01*
X113469122Y-108652495D01*
X113671343Y-108568939D01*
X113763042Y-108477400D01*
X116941600Y-108477400D01*
X117085107Y-108448855D01*
X117206765Y-108367565D01*
X117531547Y-108042783D01*
X117660122Y-108042895D01*
X117862343Y-107959339D01*
X118017195Y-107804757D01*
X118101104Y-107602682D01*
X118101295Y-107383878D01*
X118017739Y-107181657D01*
X117863157Y-107026805D01*
X117661082Y-106942896D01*
X117442278Y-106942705D01*
X117240057Y-107026261D01*
X117085205Y-107180843D01*
X117001296Y-107382918D01*
X117001183Y-107512487D01*
X116786270Y-107727400D01*
X113762993Y-107727400D01*
X113672157Y-107636405D01*
X113470082Y-107552496D01*
X113251278Y-107552305D01*
X113049057Y-107635861D01*
X112894205Y-107790443D01*
X112810296Y-107992518D01*
X112810105Y-108211322D01*
X111195200Y-108211322D01*
X111195200Y-107782866D01*
X111195385Y-107782790D01*
X111350237Y-107628208D01*
X111434146Y-107426133D01*
X111434337Y-107207329D01*
X111350781Y-107005108D01*
X111196199Y-106850256D01*
X110994124Y-106766347D01*
X110775320Y-106766156D01*
X110573099Y-106849712D01*
X110418247Y-107004294D01*
X110334338Y-107206369D01*
X110334147Y-107425173D01*
X110417703Y-107627394D01*
X110445200Y-107654939D01*
X110445200Y-110696807D01*
X110354205Y-110787643D01*
X110270296Y-110989718D01*
X110270105Y-111208522D01*
X90711278Y-111208522D01*
X90711278Y-104172722D01*
X104910705Y-104172722D01*
X104994261Y-104374943D01*
X105148843Y-104529795D01*
X105350918Y-104613704D01*
X105569722Y-104613895D01*
X105720800Y-104551471D01*
X105720800Y-104902000D01*
X105749345Y-105045507D01*
X105830635Y-105167165D01*
X106364035Y-105700565D01*
X106485694Y-105781855D01*
X106629200Y-105810400D01*
X109575600Y-105810400D01*
X109719107Y-105781855D01*
X109840765Y-105700565D01*
X110292547Y-105248783D01*
X110421122Y-105248895D01*
X110623343Y-105165339D01*
X110778195Y-105010757D01*
X110862104Y-104808682D01*
X110862295Y-104589878D01*
X110778739Y-104387657D01*
X110624157Y-104232805D01*
X110422082Y-104148896D01*
X110203278Y-104148705D01*
X110001057Y-104232261D01*
X109846205Y-104386843D01*
X109762296Y-104588918D01*
X109762183Y-104718487D01*
X109420270Y-105060400D01*
X106784530Y-105060400D01*
X106470800Y-104746670D01*
X106470800Y-104274536D01*
X106442255Y-104131030D01*
X106360965Y-104009371D01*
X106150229Y-103798635D01*
X106028571Y-103717345D01*
X105885064Y-103688800D01*
X105863593Y-103688800D01*
X105772757Y-103597805D01*
X105570682Y-103513896D01*
X105351878Y-103513705D01*
X105149657Y-103597261D01*
X104994805Y-103751843D01*
X104910896Y-103953918D01*
X104910705Y-104172722D01*
X90711278Y-104172722D01*
X90711278Y-95049340D01*
X98685723Y-95049340D01*
X98685723Y-98549460D01*
X98703155Y-98642104D01*
X98757908Y-98727192D01*
X98841451Y-98784275D01*
X98940620Y-98804357D01*
X102440740Y-98804357D01*
X102533384Y-98786925D01*
X102618472Y-98732172D01*
X102675555Y-98648629D01*
X102695637Y-98549460D01*
X102695637Y-98356122D01*
X104885305Y-98356122D01*
X104968861Y-98558343D01*
X105123443Y-98713195D01*
X105325518Y-98797104D01*
X105490474Y-98797248D01*
X109810712Y-103117487D01*
X109860132Y-103150508D01*
X109924261Y-103193358D01*
X110058200Y-103220000D01*
X110087650Y-103220000D01*
X110203443Y-103335995D01*
X110405518Y-103419904D01*
X110624322Y-103420095D01*
X110826543Y-103336539D01*
X110981395Y-103181957D01*
X111065304Y-102979882D01*
X111065495Y-102761078D01*
X110981939Y-102558857D01*
X110827357Y-102404005D01*
X110625282Y-102320096D01*
X110406478Y-102319905D01*
X110204257Y-102403461D01*
X110145395Y-102462220D01*
X105985352Y-98302178D01*
X105985495Y-98138278D01*
X105901939Y-97936057D01*
X105747357Y-97781205D01*
X105545282Y-97697296D01*
X105326478Y-97697105D01*
X105124257Y-97780661D01*
X104969405Y-97935243D01*
X104885496Y-98137318D01*
X104885305Y-98356122D01*
X102695637Y-98356122D01*
X102695637Y-95409722D01*
X107272905Y-95409722D01*
X107356461Y-95611943D01*
X107511043Y-95766795D01*
X107713118Y-95850704D01*
X107878074Y-95850848D01*
X108702712Y-96675486D01*
X108816259Y-96751357D01*
X108838481Y-96755777D01*
X108950199Y-96777999D01*
X111344227Y-96777999D01*
X111943400Y-97377172D01*
X111943400Y-100838000D01*
X111970042Y-100971939D01*
X112045913Y-101085487D01*
X114958114Y-103997688D01*
X115071661Y-104073559D01*
X115093883Y-104077979D01*
X115205601Y-104100201D01*
X115390827Y-104100201D01*
X115731248Y-104440623D01*
X115731105Y-104604522D01*
X115814661Y-104806743D01*
X115969243Y-104961595D01*
X116171318Y-105045504D01*
X116340865Y-105045652D01*
X116340705Y-105228392D01*
X116424261Y-105430613D01*
X116578843Y-105585465D01*
X116780918Y-105669374D01*
X116945874Y-105669518D01*
X118293713Y-107017357D01*
X118407260Y-107093228D01*
X118429482Y-107097648D01*
X118541200Y-107119870D01*
X118799850Y-107119870D01*
X118915643Y-107235865D01*
X119117718Y-107319774D01*
X119336522Y-107319965D01*
X119538743Y-107236409D01*
X119693595Y-107081827D01*
X119777504Y-106879752D01*
X119777695Y-106660948D01*
X119694139Y-106458727D01*
X119539557Y-106303875D01*
X119337482Y-106219966D01*
X119118678Y-106219775D01*
X118916457Y-106303331D01*
X118799714Y-106419870D01*
X118686174Y-106419870D01*
X117440752Y-105174448D01*
X117440895Y-105010548D01*
X117357339Y-104808327D01*
X117202757Y-104653475D01*
X117000682Y-104569566D01*
X116831135Y-104569418D01*
X116831295Y-104386678D01*
X116747739Y-104184457D01*
X116593157Y-104029605D01*
X116391082Y-103945696D01*
X116226127Y-103945552D01*
X115910375Y-103629801D01*
X116079707Y-103700113D01*
X116278620Y-103700287D01*
X116462457Y-103624327D01*
X116603233Y-103483797D01*
X116679513Y-103300093D01*
X116679687Y-103101180D01*
X116603727Y-102917343D01*
X116554600Y-102868130D01*
X116554600Y-102300508D01*
X167242750Y-102300508D01*
X167307452Y-102625789D01*
X167491709Y-102901549D01*
X167767469Y-103085806D01*
X168092750Y-103150508D01*
X168635850Y-103150508D01*
X168961131Y-103085806D01*
X169236891Y-102901549D01*
X169421148Y-102625789D01*
X169485850Y-102300508D01*
X169421148Y-101975227D01*
X169236891Y-101699467D01*
X168961131Y-101515210D01*
X168635850Y-101450508D01*
X168092750Y-101450508D01*
X167767469Y-101515210D01*
X167491709Y-101699467D01*
X167307452Y-101975227D01*
X167242750Y-102300508D01*
X116554600Y-102300508D01*
X116554600Y-102158800D01*
X116526055Y-102015294D01*
X116444765Y-101893635D01*
X113859383Y-99308253D01*
X113859495Y-99179678D01*
X113775939Y-98977457D01*
X113621357Y-98822605D01*
X113419282Y-98738696D01*
X113200478Y-98738505D01*
X112998257Y-98822061D01*
X112843405Y-98976643D01*
X112759496Y-99178718D01*
X112759305Y-99397522D01*
X112842861Y-99599743D01*
X112997443Y-99754595D01*
X113199518Y-99838504D01*
X113329087Y-99838617D01*
X115804600Y-102314130D01*
X115804600Y-102868055D01*
X115755967Y-102916603D01*
X115679687Y-103100307D01*
X115679513Y-103299220D01*
X115755473Y-103483057D01*
X115758685Y-103486275D01*
X115669740Y-103426843D01*
X115535801Y-103400201D01*
X115350575Y-103400201D01*
X112643400Y-100693026D01*
X112643400Y-97232198D01*
X112616758Y-97098259D01*
X112616758Y-97098258D01*
X112540887Y-96984711D01*
X111736688Y-96180512D01*
X111623140Y-96104641D01*
X111489201Y-96077999D01*
X109095173Y-96077999D01*
X108372952Y-95355778D01*
X108373095Y-95191878D01*
X108289539Y-94989657D01*
X108134957Y-94834805D01*
X107932882Y-94750896D01*
X107714078Y-94750705D01*
X107511857Y-94834261D01*
X107357005Y-94988843D01*
X107273096Y-95190918D01*
X107272905Y-95409722D01*
X102695637Y-95409722D01*
X102695637Y-95049340D01*
X102678205Y-94956696D01*
X102623452Y-94871608D01*
X102539909Y-94814525D01*
X102440740Y-94794443D01*
X98940620Y-94794443D01*
X98847976Y-94811875D01*
X98762888Y-94866628D01*
X98705805Y-94950171D01*
X98685723Y-95049340D01*
X90711278Y-95049340D01*
X90711278Y-86775447D01*
X91230393Y-86775447D01*
X91412697Y-87216657D01*
X91749967Y-87554517D01*
X92190858Y-87737591D01*
X92668247Y-87738007D01*
X93109457Y-87555703D01*
X93447317Y-87218433D01*
X93522322Y-87037800D01*
X93874494Y-87037800D01*
X94419800Y-87583107D01*
X94419800Y-89306400D01*
X94453183Y-89474230D01*
X94457860Y-89497742D01*
X94566247Y-89659953D01*
X96054848Y-91148555D01*
X96152087Y-91213527D01*
X96217059Y-91256941D01*
X96408401Y-91295001D01*
X112252599Y-91295001D01*
X112443941Y-91256941D01*
X112606152Y-91148554D01*
X122350906Y-81403801D01*
X135987138Y-81403801D01*
X136033061Y-81514943D01*
X136187643Y-81669795D01*
X136389718Y-81753704D01*
X136608522Y-81753895D01*
X136729761Y-81703800D01*
X144395094Y-81703800D01*
X146540600Y-83849307D01*
X146540600Y-91262200D01*
X146559717Y-91358308D01*
X146578660Y-91453542D01*
X146687047Y-91615753D01*
X149108155Y-94036862D01*
X149270366Y-94145248D01*
X149461708Y-94183308D01*
X167259403Y-94183308D01*
X167259403Y-94283308D01*
X167276835Y-94375952D01*
X167331588Y-94461040D01*
X167415131Y-94518123D01*
X167514300Y-94538205D01*
X169214300Y-94538205D01*
X169306944Y-94520773D01*
X169392032Y-94466020D01*
X169449115Y-94382477D01*
X169469197Y-94283308D01*
X169469197Y-94182334D01*
X169655642Y-94145248D01*
X169817853Y-94036861D01*
X171320953Y-92533762D01*
X171429340Y-92371550D01*
X171446685Y-92284349D01*
X171467400Y-92180208D01*
X171467400Y-80060800D01*
X171429340Y-79869458D01*
X171320953Y-79707247D01*
X170975376Y-79361670D01*
X171049591Y-79182942D01*
X171050007Y-78705553D01*
X170867703Y-78264343D01*
X170530433Y-77926483D01*
X170089542Y-77743409D01*
X169612153Y-77742993D01*
X169306299Y-77869369D01*
X169248846Y-77811916D01*
X169246256Y-77798894D01*
X169164966Y-77677236D01*
X166584365Y-75096635D01*
X166462707Y-75015345D01*
X166319200Y-74986800D01*
X151278793Y-74986800D01*
X151187957Y-74895805D01*
X150985882Y-74811896D01*
X150767078Y-74811705D01*
X150564857Y-74895261D01*
X150410005Y-75049843D01*
X150326096Y-75251918D01*
X150325905Y-75470722D01*
X150409461Y-75672943D01*
X150564043Y-75827795D01*
X150766118Y-75911704D01*
X150984922Y-75911895D01*
X151187143Y-75828339D01*
X151278842Y-75736800D01*
X166163870Y-75736800D01*
X168550756Y-78123686D01*
X168553346Y-78136708D01*
X168634636Y-78258366D01*
X168776090Y-78399820D01*
X168650009Y-78703458D01*
X168649593Y-79180847D01*
X168831897Y-79622057D01*
X169169167Y-79959917D01*
X169610058Y-80142991D01*
X170087447Y-80143407D01*
X170268211Y-80068717D01*
X170467400Y-80267906D01*
X170467400Y-91973101D01*
X169451010Y-92989491D01*
X169397012Y-92905576D01*
X169313469Y-92848493D01*
X169214300Y-92828411D01*
X167514300Y-92828411D01*
X167421656Y-92845843D01*
X167336568Y-92900596D01*
X167279485Y-92984139D01*
X167259403Y-93083308D01*
X167259403Y-93183308D01*
X149668815Y-93183308D01*
X147540600Y-91055094D01*
X147540600Y-89732200D01*
X149763674Y-89732200D01*
X149804436Y-89740308D01*
X149825907Y-89740308D01*
X149916743Y-89831303D01*
X150118818Y-89915212D01*
X150337622Y-89915403D01*
X150539843Y-89831847D01*
X150694695Y-89677265D01*
X150778604Y-89475190D01*
X150778795Y-89256386D01*
X150695239Y-89054165D01*
X150540657Y-88899313D01*
X150338582Y-88815404D01*
X150119778Y-88815213D01*
X149917557Y-88898769D01*
X149827724Y-88988445D01*
X149796328Y-88982200D01*
X147540600Y-88982200D01*
X147540600Y-83642200D01*
X147502540Y-83450858D01*
X147394153Y-83288646D01*
X144955753Y-80850247D01*
X144793542Y-80741860D01*
X144602200Y-80703800D01*
X136729664Y-80703800D01*
X136690404Y-80687498D01*
X136553154Y-80550248D01*
X136390943Y-80441861D01*
X136381069Y-80439897D01*
X136199601Y-80403801D01*
X122143799Y-80403801D01*
X121962331Y-80439897D01*
X121952457Y-80441861D01*
X121790245Y-80550248D01*
X112045493Y-90295001D01*
X96615508Y-90295001D01*
X95635954Y-89315447D01*
X106470393Y-89315447D01*
X106652697Y-89756657D01*
X106989967Y-90094517D01*
X107430858Y-90277591D01*
X107908247Y-90278007D01*
X108349457Y-90095703D01*
X108687317Y-89758433D01*
X108870391Y-89317542D01*
X108870807Y-88840153D01*
X108688503Y-88398943D01*
X108351233Y-88061083D01*
X107910342Y-87878009D01*
X107432953Y-87877593D01*
X106991743Y-88059897D01*
X106653883Y-88397167D01*
X106470809Y-88838058D01*
X106470393Y-89315447D01*
X95635954Y-89315447D01*
X95419800Y-89099294D01*
X95419800Y-87376000D01*
X95381740Y-87184658D01*
X95313324Y-87082267D01*
X95273354Y-87022447D01*
X94435153Y-86184247D01*
X94272942Y-86075860D01*
X94081600Y-86037800D01*
X93522405Y-86037800D01*
X93448503Y-85858943D01*
X93111233Y-85521083D01*
X92670342Y-85338009D01*
X92192953Y-85337593D01*
X91751743Y-85519897D01*
X91413883Y-85857167D01*
X91230809Y-86298058D01*
X91230393Y-86775447D01*
X90711278Y-86775447D01*
X90711278Y-84235447D01*
X91230393Y-84235447D01*
X91412697Y-84676657D01*
X91749967Y-85014517D01*
X92190858Y-85197591D01*
X92668247Y-85198007D01*
X93109457Y-85015703D01*
X93447317Y-84678433D01*
X93630391Y-84237542D01*
X93630392Y-84235447D01*
X106470393Y-84235447D01*
X106652697Y-84676657D01*
X106989967Y-85014517D01*
X107430858Y-85197591D01*
X107908247Y-85198007D01*
X108349457Y-85015703D01*
X108687317Y-84678433D01*
X108870391Y-84237542D01*
X108870807Y-83760153D01*
X108688503Y-83318943D01*
X108351233Y-82981083D01*
X107910342Y-82798009D01*
X107432953Y-82797593D01*
X106991743Y-82979897D01*
X106653883Y-83317167D01*
X106470809Y-83758058D01*
X106470393Y-84235447D01*
X93630392Y-84235447D01*
X93630807Y-83760153D01*
X93448503Y-83318943D01*
X93111233Y-82981083D01*
X92670342Y-82798009D01*
X92192953Y-82797593D01*
X91751743Y-82979897D01*
X91413883Y-83317167D01*
X91230809Y-83758058D01*
X91230393Y-84235447D01*
X90711278Y-84235447D01*
X90711278Y-81695447D01*
X91230393Y-81695447D01*
X91412697Y-82136657D01*
X91749967Y-82474517D01*
X92190858Y-82657591D01*
X92668247Y-82658007D01*
X93109457Y-82475703D01*
X93447317Y-82138433D01*
X93630391Y-81697542D01*
X93630392Y-81695447D01*
X106470393Y-81695447D01*
X106652697Y-82136657D01*
X106989967Y-82474517D01*
X107430858Y-82657591D01*
X107908247Y-82658007D01*
X108349457Y-82475703D01*
X108687317Y-82138433D01*
X108870391Y-81697542D01*
X108870807Y-81220153D01*
X108688503Y-80778943D01*
X108351233Y-80441083D01*
X107910342Y-80258009D01*
X107432953Y-80257593D01*
X106991743Y-80439897D01*
X106653883Y-80777167D01*
X106470809Y-81218058D01*
X106470393Y-81695447D01*
X93630392Y-81695447D01*
X93630807Y-81220153D01*
X93448503Y-80778943D01*
X93111233Y-80441083D01*
X92670342Y-80258009D01*
X92192953Y-80257593D01*
X91751743Y-80439897D01*
X91413883Y-80777167D01*
X91230809Y-81218058D01*
X91230393Y-81695447D01*
X90711278Y-81695447D01*
X90711278Y-79155447D01*
X91230393Y-79155447D01*
X91412697Y-79596657D01*
X91749967Y-79934517D01*
X92190858Y-80117591D01*
X92668247Y-80118007D01*
X93109457Y-79935703D01*
X93447317Y-79598433D01*
X93630391Y-79157542D01*
X93630392Y-79155447D01*
X106470393Y-79155447D01*
X106652697Y-79596657D01*
X106989967Y-79934517D01*
X107430858Y-80117591D01*
X107908247Y-80118007D01*
X108349457Y-79935703D01*
X108687317Y-79598433D01*
X108860713Y-79180847D01*
X110229593Y-79180847D01*
X110411897Y-79622057D01*
X110749167Y-79959917D01*
X111190058Y-80142991D01*
X111667447Y-80143407D01*
X112108657Y-79961103D01*
X112446517Y-79623833D01*
X112629591Y-79182942D01*
X112629592Y-79180847D01*
X112769593Y-79180847D01*
X112951897Y-79622057D01*
X113289167Y-79959917D01*
X113730058Y-80142991D01*
X114207447Y-80143407D01*
X114648657Y-79961103D01*
X114986517Y-79623833D01*
X115169591Y-79182942D01*
X115169592Y-79180847D01*
X115309593Y-79180847D01*
X115491897Y-79622057D01*
X115829167Y-79959917D01*
X116270058Y-80142991D01*
X116747447Y-80143407D01*
X117188657Y-79961103D01*
X117526517Y-79623833D01*
X117709591Y-79182942D01*
X117709592Y-79180847D01*
X117849593Y-79180847D01*
X118031897Y-79622057D01*
X118369167Y-79959917D01*
X118810058Y-80142991D01*
X119287447Y-80143407D01*
X119728657Y-79961103D01*
X120066517Y-79623833D01*
X120249591Y-79182942D01*
X120249592Y-79180847D01*
X120389593Y-79180847D01*
X120571897Y-79622057D01*
X120909167Y-79959917D01*
X121350058Y-80142991D01*
X121827447Y-80143407D01*
X122268657Y-79961103D01*
X122606517Y-79623833D01*
X122789591Y-79182942D01*
X122789592Y-79180847D01*
X122929593Y-79180847D01*
X123111897Y-79622057D01*
X123449167Y-79959917D01*
X123890058Y-80142991D01*
X124367447Y-80143407D01*
X124808657Y-79961103D01*
X125146517Y-79623833D01*
X125329591Y-79182942D01*
X125329592Y-79180847D01*
X125469593Y-79180847D01*
X125651897Y-79622057D01*
X125989167Y-79959917D01*
X126430058Y-80142991D01*
X126907447Y-80143407D01*
X127348657Y-79961103D01*
X127686517Y-79623833D01*
X127869591Y-79182942D01*
X127869592Y-79180847D01*
X128009593Y-79180847D01*
X128191897Y-79622057D01*
X128529167Y-79959917D01*
X128970058Y-80142991D01*
X129447447Y-80143407D01*
X129888657Y-79961103D01*
X130226517Y-79623833D01*
X130409591Y-79182942D01*
X130409592Y-79180847D01*
X130549593Y-79180847D01*
X130731897Y-79622057D01*
X131069167Y-79959917D01*
X131510058Y-80142991D01*
X131987447Y-80143407D01*
X132428657Y-79961103D01*
X132766517Y-79623833D01*
X132949591Y-79182942D01*
X132949592Y-79180847D01*
X135629593Y-79180847D01*
X135811897Y-79622057D01*
X136149167Y-79959917D01*
X136590058Y-80142991D01*
X137067447Y-80143407D01*
X137508657Y-79961103D01*
X137846517Y-79623833D01*
X138029591Y-79182942D01*
X138029592Y-79180847D01*
X138169593Y-79180847D01*
X138351897Y-79622057D01*
X138689167Y-79959917D01*
X139130058Y-80142991D01*
X139607447Y-80143407D01*
X140048657Y-79961103D01*
X140386517Y-79623833D01*
X140569591Y-79182942D01*
X140569592Y-79180847D01*
X140709593Y-79180847D01*
X140891897Y-79622057D01*
X141229167Y-79959917D01*
X141670058Y-80142991D01*
X142147447Y-80143407D01*
X142588657Y-79961103D01*
X142926517Y-79623833D01*
X143109591Y-79182942D01*
X143109592Y-79180847D01*
X143249593Y-79180847D01*
X143431897Y-79622057D01*
X143769167Y-79959917D01*
X144210058Y-80142991D01*
X144687447Y-80143407D01*
X145128657Y-79961103D01*
X145466517Y-79623833D01*
X145649591Y-79182942D01*
X145649592Y-79180847D01*
X145789593Y-79180847D01*
X145971897Y-79622057D01*
X146309167Y-79959917D01*
X146750058Y-80142991D01*
X147227447Y-80143407D01*
X147668657Y-79961103D01*
X148006517Y-79623833D01*
X148189591Y-79182942D01*
X148189592Y-79180847D01*
X148329593Y-79180847D01*
X148511897Y-79622057D01*
X148849167Y-79959917D01*
X149290058Y-80142991D01*
X149767447Y-80143407D01*
X150123337Y-79996357D01*
X151630597Y-81503617D01*
X151630597Y-88828294D01*
X151489602Y-88969043D01*
X151405693Y-89171118D01*
X151405502Y-89389922D01*
X151489058Y-89592143D01*
X151637718Y-89741062D01*
X151655336Y-89829636D01*
X151725787Y-89935074D01*
X153703829Y-91913115D01*
X153703831Y-91913118D01*
X153809269Y-91983569D01*
X153933641Y-92008309D01*
X153933646Y-92008308D01*
X167307396Y-92008308D01*
X167307452Y-92008589D01*
X167491709Y-92284349D01*
X167767469Y-92468606D01*
X168092750Y-92533308D01*
X168635850Y-92533308D01*
X168961131Y-92468606D01*
X169236891Y-92284349D01*
X169421148Y-92008589D01*
X169485850Y-91683308D01*
X169421148Y-91358027D01*
X169236891Y-91082267D01*
X168961131Y-90898010D01*
X168635850Y-90833308D01*
X168092750Y-90833308D01*
X167767469Y-90898010D01*
X167491709Y-91082267D01*
X167307452Y-91358027D01*
X167307396Y-91358308D01*
X154068260Y-91358308D01*
X152466396Y-89756443D01*
X152645718Y-89830904D01*
X152864522Y-89831095D01*
X153066743Y-89747539D01*
X153208529Y-89606000D01*
X167258127Y-89606000D01*
X167242750Y-89683308D01*
X167307452Y-90008589D01*
X167491709Y-90284349D01*
X167767469Y-90468606D01*
X168092750Y-90533308D01*
X168635850Y-90533308D01*
X168961131Y-90468606D01*
X169236891Y-90284349D01*
X169421148Y-90008589D01*
X169485850Y-89683308D01*
X169421148Y-89358027D01*
X169236891Y-89082267D01*
X168961131Y-88898010D01*
X168635850Y-88833308D01*
X168092750Y-88833308D01*
X167767469Y-88898010D01*
X167680681Y-88956000D01*
X153208306Y-88956000D01*
X153080600Y-88828071D01*
X153080600Y-87975630D01*
X155520605Y-87975630D01*
X155604161Y-88177851D01*
X155758743Y-88332703D01*
X155960818Y-88416612D01*
X156179622Y-88416803D01*
X156381843Y-88333247D01*
X156536695Y-88178665D01*
X156620604Y-87976590D01*
X156620795Y-87757786D01*
X156590022Y-87683308D01*
X167242750Y-87683308D01*
X167307452Y-88008589D01*
X167491709Y-88284349D01*
X167767469Y-88468606D01*
X168092750Y-88533308D01*
X168635850Y-88533308D01*
X168961131Y-88468606D01*
X169236891Y-88284349D01*
X169421148Y-88008589D01*
X169485850Y-87683308D01*
X169421148Y-87358027D01*
X169236891Y-87082267D01*
X168961131Y-86898010D01*
X168635850Y-86833308D01*
X168092750Y-86833308D01*
X167767469Y-86898010D01*
X167491709Y-87082267D01*
X167307452Y-87358027D01*
X167242750Y-87683308D01*
X156590022Y-87683308D01*
X156537239Y-87555565D01*
X156382657Y-87400713D01*
X156180582Y-87316804D01*
X155961778Y-87316613D01*
X155759557Y-87400169D01*
X155604705Y-87554751D01*
X155520796Y-87756826D01*
X155520605Y-87975630D01*
X153080600Y-87975630D01*
X153080600Y-86705630D01*
X153641005Y-86705630D01*
X153724561Y-86907851D01*
X153879143Y-87062703D01*
X154081218Y-87146612D01*
X154300022Y-87146803D01*
X154502243Y-87063247D01*
X154657095Y-86908665D01*
X154741004Y-86706590D01*
X154741195Y-86487786D01*
X154657639Y-86285565D01*
X154503057Y-86130713D01*
X154300982Y-86046804D01*
X154082178Y-86046613D01*
X153879957Y-86130169D01*
X153725105Y-86284751D01*
X153641196Y-86486826D01*
X153641005Y-86705630D01*
X153080600Y-86705630D01*
X153080600Y-79629740D01*
X153086517Y-79623833D01*
X153269591Y-79182942D01*
X153269592Y-79180847D01*
X153409593Y-79180847D01*
X153591897Y-79622057D01*
X153929167Y-79959917D01*
X154370058Y-80142991D01*
X154847447Y-80143407D01*
X155288657Y-79961103D01*
X155626517Y-79623833D01*
X155809591Y-79182942D01*
X155809592Y-79180847D01*
X155949593Y-79180847D01*
X156131897Y-79622057D01*
X156469167Y-79959917D01*
X156910058Y-80142991D01*
X157387447Y-80143407D01*
X157828657Y-79961103D01*
X158166517Y-79623833D01*
X158349591Y-79182942D01*
X158349592Y-79180847D01*
X158489593Y-79180847D01*
X158671897Y-79622057D01*
X159009167Y-79959917D01*
X159450058Y-80142991D01*
X159927447Y-80143407D01*
X160368657Y-79961103D01*
X160706517Y-79623833D01*
X160889591Y-79182942D01*
X160889592Y-79180847D01*
X161029593Y-79180847D01*
X161211897Y-79622057D01*
X161549167Y-79959917D01*
X161990058Y-80142991D01*
X162467447Y-80143407D01*
X162908657Y-79961103D01*
X163246517Y-79623833D01*
X163429591Y-79182942D01*
X163429592Y-79180847D01*
X163569593Y-79180847D01*
X163751897Y-79622057D01*
X164089167Y-79959917D01*
X164530058Y-80142991D01*
X165007447Y-80143407D01*
X165448657Y-79961103D01*
X165786517Y-79623833D01*
X165969591Y-79182942D01*
X165969592Y-79180847D01*
X166109593Y-79180847D01*
X166291897Y-79622057D01*
X166629167Y-79959917D01*
X167070058Y-80142991D01*
X167547447Y-80143407D01*
X167988657Y-79961103D01*
X168326517Y-79623833D01*
X168509591Y-79182942D01*
X168510007Y-78705553D01*
X168327703Y-78264343D01*
X167990433Y-77926483D01*
X167549542Y-77743409D01*
X167072153Y-77742993D01*
X166630943Y-77925297D01*
X166293083Y-78262567D01*
X166110009Y-78703458D01*
X166109593Y-79180847D01*
X165969592Y-79180847D01*
X165970007Y-78705553D01*
X165787703Y-78264343D01*
X165450433Y-77926483D01*
X165009542Y-77743409D01*
X164532153Y-77742993D01*
X164090943Y-77925297D01*
X163753083Y-78262567D01*
X163570009Y-78703458D01*
X163569593Y-79180847D01*
X163429592Y-79180847D01*
X163430007Y-78705553D01*
X163247703Y-78264343D01*
X162910433Y-77926483D01*
X162469542Y-77743409D01*
X161992153Y-77742993D01*
X161550943Y-77925297D01*
X161213083Y-78262567D01*
X161030009Y-78703458D01*
X161029593Y-79180847D01*
X160889592Y-79180847D01*
X160890007Y-78705553D01*
X160707703Y-78264343D01*
X160370433Y-77926483D01*
X159929542Y-77743409D01*
X159452153Y-77742993D01*
X159010943Y-77925297D01*
X158673083Y-78262567D01*
X158490009Y-78703458D01*
X158489593Y-79180847D01*
X158349592Y-79180847D01*
X158350007Y-78705553D01*
X158167703Y-78264343D01*
X157830433Y-77926483D01*
X157389542Y-77743409D01*
X156912153Y-77742993D01*
X156470943Y-77925297D01*
X156133083Y-78262567D01*
X155950009Y-78703458D01*
X155949593Y-79180847D01*
X155809592Y-79180847D01*
X155810007Y-78705553D01*
X155627703Y-78264343D01*
X155290433Y-77926483D01*
X154849542Y-77743409D01*
X154372153Y-77742993D01*
X153930943Y-77925297D01*
X153593083Y-78262567D01*
X153410009Y-78703458D01*
X153409593Y-79180847D01*
X153269592Y-79180847D01*
X153270007Y-78705553D01*
X153087703Y-78264343D01*
X152750433Y-77926483D01*
X152309542Y-77743409D01*
X151832153Y-77742993D01*
X151390943Y-77925297D01*
X151053083Y-78262567D01*
X150870009Y-78703458D01*
X150869593Y-79180847D01*
X151051897Y-79622057D01*
X151389167Y-79959917D01*
X151830058Y-80142991D01*
X152307447Y-80143407D01*
X152430600Y-80092521D01*
X152430600Y-88828294D01*
X152355579Y-88903184D01*
X152280597Y-88828071D01*
X152280597Y-81368997D01*
X152255858Y-81244625D01*
X152185407Y-81139187D01*
X150582763Y-79536543D01*
X150729591Y-79182942D01*
X150730007Y-78705553D01*
X150547703Y-78264343D01*
X150210433Y-77926483D01*
X149769542Y-77743409D01*
X149292153Y-77742993D01*
X148850943Y-77925297D01*
X148513083Y-78262567D01*
X148330009Y-78703458D01*
X148329593Y-79180847D01*
X148189592Y-79180847D01*
X148190007Y-78705553D01*
X148007703Y-78264343D01*
X147670433Y-77926483D01*
X147229542Y-77743409D01*
X146752153Y-77742993D01*
X146310943Y-77925297D01*
X145973083Y-78262567D01*
X145790009Y-78703458D01*
X145789593Y-79180847D01*
X145649592Y-79180847D01*
X145650007Y-78705553D01*
X145467703Y-78264343D01*
X145130433Y-77926483D01*
X144689542Y-77743409D01*
X144212153Y-77742993D01*
X143770943Y-77925297D01*
X143433083Y-78262567D01*
X143250009Y-78703458D01*
X143249593Y-79180847D01*
X143109592Y-79180847D01*
X143110007Y-78705553D01*
X142927703Y-78264343D01*
X142590433Y-77926483D01*
X142149542Y-77743409D01*
X141672153Y-77742993D01*
X141230943Y-77925297D01*
X140893083Y-78262567D01*
X140710009Y-78703458D01*
X140709593Y-79180847D01*
X140569592Y-79180847D01*
X140570007Y-78705553D01*
X140387703Y-78264343D01*
X140050433Y-77926483D01*
X139609542Y-77743409D01*
X139132153Y-77742993D01*
X138690943Y-77925297D01*
X138353083Y-78262567D01*
X138170009Y-78703458D01*
X138169593Y-79180847D01*
X138029592Y-79180847D01*
X138030007Y-78705553D01*
X137847703Y-78264343D01*
X137510433Y-77926483D01*
X137069542Y-77743409D01*
X136592153Y-77742993D01*
X136150943Y-77925297D01*
X135813083Y-78262567D01*
X135630009Y-78703458D01*
X135629593Y-79180847D01*
X132949592Y-79180847D01*
X132950007Y-78705553D01*
X132767703Y-78264343D01*
X132430433Y-77926483D01*
X131989542Y-77743409D01*
X131512153Y-77742993D01*
X131070943Y-77925297D01*
X130733083Y-78262567D01*
X130550009Y-78703458D01*
X130549593Y-79180847D01*
X130409592Y-79180847D01*
X130410007Y-78705553D01*
X130227703Y-78264343D01*
X129890433Y-77926483D01*
X129449542Y-77743409D01*
X128972153Y-77742993D01*
X128530943Y-77925297D01*
X128193083Y-78262567D01*
X128010009Y-78703458D01*
X128009593Y-79180847D01*
X127869592Y-79180847D01*
X127870007Y-78705553D01*
X127687703Y-78264343D01*
X127350433Y-77926483D01*
X126909542Y-77743409D01*
X126432153Y-77742993D01*
X125990943Y-77925297D01*
X125653083Y-78262567D01*
X125470009Y-78703458D01*
X125469593Y-79180847D01*
X125329592Y-79180847D01*
X125330007Y-78705553D01*
X125147703Y-78264343D01*
X124810433Y-77926483D01*
X124369542Y-77743409D01*
X123892153Y-77742993D01*
X123450943Y-77925297D01*
X123113083Y-78262567D01*
X122930009Y-78703458D01*
X122929593Y-79180847D01*
X122789592Y-79180847D01*
X122790007Y-78705553D01*
X122607703Y-78264343D01*
X122270433Y-77926483D01*
X121829542Y-77743409D01*
X121352153Y-77742993D01*
X120910943Y-77925297D01*
X120573083Y-78262567D01*
X120390009Y-78703458D01*
X120389593Y-79180847D01*
X120249592Y-79180847D01*
X120250007Y-78705553D01*
X120067703Y-78264343D01*
X119730433Y-77926483D01*
X119289542Y-77743409D01*
X118812153Y-77742993D01*
X118370943Y-77925297D01*
X118033083Y-78262567D01*
X117850009Y-78703458D01*
X117849593Y-79180847D01*
X117709592Y-79180847D01*
X117710007Y-78705553D01*
X117527703Y-78264343D01*
X117190433Y-77926483D01*
X116749542Y-77743409D01*
X116272153Y-77742993D01*
X115830943Y-77925297D01*
X115493083Y-78262567D01*
X115310009Y-78703458D01*
X115309593Y-79180847D01*
X115169592Y-79180847D01*
X115170007Y-78705553D01*
X114987703Y-78264343D01*
X114650433Y-77926483D01*
X114209542Y-77743409D01*
X113732153Y-77742993D01*
X113290943Y-77925297D01*
X112953083Y-78262567D01*
X112770009Y-78703458D01*
X112769593Y-79180847D01*
X112629592Y-79180847D01*
X112630007Y-78705553D01*
X112447703Y-78264343D01*
X112110433Y-77926483D01*
X111669542Y-77743409D01*
X111192153Y-77742993D01*
X110750943Y-77925297D01*
X110413083Y-78262567D01*
X110230009Y-78703458D01*
X110229593Y-79180847D01*
X108860713Y-79180847D01*
X108870391Y-79157542D01*
X108870807Y-78680153D01*
X108688503Y-78238943D01*
X108351233Y-77901083D01*
X107910342Y-77718009D01*
X107432953Y-77717593D01*
X106991743Y-77899897D01*
X106653883Y-78237167D01*
X106470809Y-78678058D01*
X106470393Y-79155447D01*
X93630392Y-79155447D01*
X93630807Y-78680153D01*
X93448503Y-78238943D01*
X93111233Y-77901083D01*
X92670342Y-77718009D01*
X92192953Y-77717593D01*
X91751743Y-77899897D01*
X91413883Y-78237167D01*
X91230809Y-78678058D01*
X91230393Y-79155447D01*
X90711278Y-79155447D01*
X90711278Y-76615447D01*
X91230393Y-76615447D01*
X91412697Y-77056657D01*
X91749967Y-77394517D01*
X92190858Y-77577591D01*
X92668247Y-77578007D01*
X93109457Y-77395703D01*
X93447317Y-77058433D01*
X93630391Y-76617542D01*
X93630392Y-76615447D01*
X106470393Y-76615447D01*
X106652697Y-77056657D01*
X106989967Y-77394517D01*
X107430858Y-77577591D01*
X107908247Y-77578007D01*
X108349457Y-77395703D01*
X108687317Y-77058433D01*
X108870391Y-76617542D01*
X108870807Y-76140153D01*
X108688503Y-75698943D01*
X108351233Y-75361083D01*
X107910342Y-75178009D01*
X107432953Y-75177593D01*
X106991743Y-75359897D01*
X106653883Y-75697167D01*
X106470809Y-76138058D01*
X106470393Y-76615447D01*
X93630392Y-76615447D01*
X93630807Y-76140153D01*
X93448503Y-75698943D01*
X93111233Y-75361083D01*
X92670342Y-75178009D01*
X92192953Y-75177593D01*
X91751743Y-75359897D01*
X91413883Y-75697167D01*
X91230809Y-76138058D01*
X91230393Y-76615447D01*
X90711278Y-76615447D01*
X90711278Y-74075447D01*
X91230393Y-74075447D01*
X91412697Y-74516657D01*
X91749967Y-74854517D01*
X92190858Y-75037591D01*
X92668247Y-75038007D01*
X93109457Y-74855703D01*
X93447317Y-74518433D01*
X93630391Y-74077542D01*
X93630392Y-74075447D01*
X106470393Y-74075447D01*
X106652697Y-74516657D01*
X106989967Y-74854517D01*
X107430858Y-75037591D01*
X107908247Y-75038007D01*
X108349457Y-74855703D01*
X108687317Y-74518433D01*
X108870391Y-74077542D01*
X108870807Y-73600153D01*
X108688503Y-73158943D01*
X108351233Y-72821083D01*
X107910342Y-72638009D01*
X107432953Y-72637593D01*
X106991743Y-72819897D01*
X106653883Y-73157167D01*
X106470809Y-73598058D01*
X106470393Y-74075447D01*
X93630392Y-74075447D01*
X93630807Y-73600153D01*
X93448503Y-73158943D01*
X93111233Y-72821083D01*
X92670342Y-72638009D01*
X92192953Y-72637593D01*
X91751743Y-72819897D01*
X91413883Y-73157167D01*
X91230809Y-73598058D01*
X91230393Y-74075447D01*
X90711278Y-74075447D01*
X90711278Y-71535447D01*
X91230393Y-71535447D01*
X91412697Y-71976657D01*
X91749967Y-72314517D01*
X92190858Y-72497591D01*
X92668247Y-72498007D01*
X93109457Y-72315703D01*
X93447317Y-71978433D01*
X93630391Y-71537542D01*
X93630392Y-71535447D01*
X106470393Y-71535447D01*
X106652697Y-71976657D01*
X106989967Y-72314517D01*
X107430858Y-72497591D01*
X107908247Y-72498007D01*
X108349457Y-72315703D01*
X108687317Y-71978433D01*
X108870391Y-71537542D01*
X108870807Y-71060153D01*
X108688503Y-70618943D01*
X108351233Y-70281083D01*
X107910342Y-70098009D01*
X107432953Y-70097593D01*
X106991743Y-70279897D01*
X106653883Y-70617167D01*
X106470809Y-71058058D01*
X106470393Y-71535447D01*
X93630392Y-71535447D01*
X93630807Y-71060153D01*
X93448503Y-70618943D01*
X93111233Y-70281083D01*
X92670342Y-70098009D01*
X92192953Y-70097593D01*
X91751743Y-70279897D01*
X91413883Y-70617167D01*
X91230809Y-71058058D01*
X91230393Y-71535447D01*
X90711278Y-71535447D01*
X90711278Y-69366373D01*
X170149679Y-69366373D01*
X170430732Y-70046572D01*
X170950691Y-70567439D01*
X171630398Y-70849679D01*
X172366373Y-70850321D01*
X173046572Y-70569268D01*
X173567439Y-70049309D01*
X173849679Y-69369602D01*
X173850321Y-68633627D01*
X173569268Y-67953428D01*
X173049309Y-67432561D01*
X172369602Y-67150321D01*
X171633627Y-67149679D01*
X170953428Y-67430732D01*
X170432561Y-67950691D01*
X170150321Y-68630398D01*
X170149679Y-69366373D01*
X90711278Y-69366373D01*
X90711278Y-64366373D01*
X92149679Y-64366373D01*
X92430732Y-65046572D01*
X92950691Y-65567439D01*
X93630398Y-65849679D01*
X94366373Y-65850321D01*
X95046572Y-65569268D01*
X95567439Y-65049309D01*
X95849679Y-64369602D01*
X95850053Y-63940847D01*
X110229593Y-63940847D01*
X110411897Y-64382057D01*
X110749167Y-64719917D01*
X111190058Y-64902991D01*
X111667447Y-64903407D01*
X112108657Y-64721103D01*
X112446517Y-64383833D01*
X112629591Y-63942942D01*
X112629592Y-63940847D01*
X112769593Y-63940847D01*
X112951897Y-64382057D01*
X113289167Y-64719917D01*
X113730058Y-64902991D01*
X114207447Y-64903407D01*
X114648657Y-64721103D01*
X114986517Y-64383833D01*
X115169591Y-63942942D01*
X115169592Y-63940847D01*
X115309593Y-63940847D01*
X115491897Y-64382057D01*
X115829167Y-64719917D01*
X116270058Y-64902991D01*
X116747447Y-64903407D01*
X117188657Y-64721103D01*
X117526517Y-64383833D01*
X117709591Y-63942942D01*
X117709592Y-63940847D01*
X117849593Y-63940847D01*
X118031897Y-64382057D01*
X118369167Y-64719917D01*
X118810058Y-64902991D01*
X119287447Y-64903407D01*
X119728657Y-64721103D01*
X120066517Y-64383833D01*
X120249591Y-63942942D01*
X120249592Y-63940847D01*
X120389593Y-63940847D01*
X120571897Y-64382057D01*
X120909167Y-64719917D01*
X121350058Y-64902991D01*
X121827447Y-64903407D01*
X122268657Y-64721103D01*
X122606517Y-64383833D01*
X122789591Y-63942942D01*
X122789592Y-63940847D01*
X122929593Y-63940847D01*
X123111897Y-64382057D01*
X123449167Y-64719917D01*
X123890058Y-64902991D01*
X124367447Y-64903407D01*
X124808657Y-64721103D01*
X125146517Y-64383833D01*
X125329591Y-63942942D01*
X125329592Y-63940847D01*
X125469593Y-63940847D01*
X125651897Y-64382057D01*
X125989167Y-64719917D01*
X126430058Y-64902991D01*
X126907447Y-64903407D01*
X127348657Y-64721103D01*
X127686517Y-64383833D01*
X127869591Y-63942942D01*
X127869592Y-63940847D01*
X128009593Y-63940847D01*
X128191897Y-64382057D01*
X128529167Y-64719917D01*
X128970058Y-64902991D01*
X129447447Y-64903407D01*
X129888657Y-64721103D01*
X130226517Y-64383833D01*
X130409591Y-63942942D01*
X130409592Y-63940847D01*
X130549593Y-63940847D01*
X130731897Y-64382057D01*
X131069167Y-64719917D01*
X131510058Y-64902991D01*
X131987447Y-64903407D01*
X132428657Y-64721103D01*
X132766517Y-64383833D01*
X132949591Y-63942942D01*
X132949592Y-63940847D01*
X133089593Y-63940847D01*
X133271897Y-64382057D01*
X133609167Y-64719917D01*
X134050058Y-64902991D01*
X134527447Y-64903407D01*
X134968657Y-64721103D01*
X135306517Y-64383833D01*
X135489591Y-63942942D01*
X135489592Y-63940847D01*
X135629593Y-63940847D01*
X135811897Y-64382057D01*
X136149167Y-64719917D01*
X136590058Y-64902991D01*
X137067447Y-64903407D01*
X137508657Y-64721103D01*
X137846517Y-64383833D01*
X138029591Y-63942942D01*
X138029592Y-63940847D01*
X138169593Y-63940847D01*
X138351897Y-64382057D01*
X138689167Y-64719917D01*
X139130058Y-64902991D01*
X139607447Y-64903407D01*
X140048657Y-64721103D01*
X140386517Y-64383833D01*
X140569591Y-63942942D01*
X140569592Y-63940847D01*
X140709593Y-63940847D01*
X140891897Y-64382057D01*
X141229167Y-64719917D01*
X141670058Y-64902991D01*
X142147447Y-64903407D01*
X142588657Y-64721103D01*
X142926517Y-64383833D01*
X143109591Y-63942942D01*
X143109592Y-63940847D01*
X143249593Y-63940847D01*
X143431897Y-64382057D01*
X143769167Y-64719917D01*
X144210058Y-64902991D01*
X144687447Y-64903407D01*
X145128657Y-64721103D01*
X145466517Y-64383833D01*
X145649591Y-63942942D01*
X145649592Y-63940847D01*
X145789593Y-63940847D01*
X145971897Y-64382057D01*
X146309167Y-64719917D01*
X146750058Y-64902991D01*
X147227447Y-64903407D01*
X147668657Y-64721103D01*
X148006517Y-64383833D01*
X148189591Y-63942942D01*
X148189592Y-63940847D01*
X148329593Y-63940847D01*
X148511897Y-64382057D01*
X148849167Y-64719917D01*
X149290058Y-64902991D01*
X149767447Y-64903407D01*
X150208657Y-64721103D01*
X150546517Y-64383833D01*
X150729591Y-63942942D01*
X150729592Y-63940847D01*
X150869593Y-63940847D01*
X151051897Y-64382057D01*
X151389167Y-64719917D01*
X151830058Y-64902991D01*
X152307447Y-64903407D01*
X152748657Y-64721103D01*
X153086517Y-64383833D01*
X153269591Y-63942942D01*
X153269592Y-63940847D01*
X153409593Y-63940847D01*
X153591897Y-64382057D01*
X153929167Y-64719917D01*
X154370058Y-64902991D01*
X154847447Y-64903407D01*
X155288657Y-64721103D01*
X155626517Y-64383833D01*
X155809591Y-63942942D01*
X155809592Y-63940847D01*
X155949593Y-63940847D01*
X156131897Y-64382057D01*
X156469167Y-64719917D01*
X156910058Y-64902991D01*
X157387447Y-64903407D01*
X157828657Y-64721103D01*
X158166517Y-64383833D01*
X158349591Y-63942942D01*
X158349592Y-63940847D01*
X158489593Y-63940847D01*
X158671897Y-64382057D01*
X159009167Y-64719917D01*
X159450058Y-64902991D01*
X159927447Y-64903407D01*
X160368657Y-64721103D01*
X160706517Y-64383833D01*
X160889591Y-63942942D01*
X160889592Y-63940847D01*
X161029593Y-63940847D01*
X161211897Y-64382057D01*
X161549167Y-64719917D01*
X161990058Y-64902991D01*
X162467447Y-64903407D01*
X162908657Y-64721103D01*
X163246517Y-64383833D01*
X163429591Y-63942942D01*
X163429592Y-63940847D01*
X163569593Y-63940847D01*
X163751897Y-64382057D01*
X164089167Y-64719917D01*
X164530058Y-64902991D01*
X165007447Y-64903407D01*
X165448657Y-64721103D01*
X165786517Y-64383833D01*
X165969591Y-63942942D01*
X165969592Y-63940847D01*
X166109593Y-63940847D01*
X166291897Y-64382057D01*
X166629167Y-64719917D01*
X167070058Y-64902991D01*
X167547447Y-64903407D01*
X167988657Y-64721103D01*
X168326517Y-64383833D01*
X168509591Y-63942942D01*
X168510007Y-63465553D01*
X168327703Y-63024343D01*
X167990433Y-62686483D01*
X167549542Y-62503409D01*
X167072153Y-62502993D01*
X166630943Y-62685297D01*
X166293083Y-63022567D01*
X166110009Y-63463458D01*
X166109593Y-63940847D01*
X165969592Y-63940847D01*
X165970007Y-63465553D01*
X165787703Y-63024343D01*
X165450433Y-62686483D01*
X165009542Y-62503409D01*
X164532153Y-62502993D01*
X164090943Y-62685297D01*
X163753083Y-63022567D01*
X163570009Y-63463458D01*
X163569593Y-63940847D01*
X163429592Y-63940847D01*
X163430007Y-63465553D01*
X163247703Y-63024343D01*
X162910433Y-62686483D01*
X162469542Y-62503409D01*
X161992153Y-62502993D01*
X161550943Y-62685297D01*
X161213083Y-63022567D01*
X161030009Y-63463458D01*
X161029593Y-63940847D01*
X160889592Y-63940847D01*
X160890007Y-63465553D01*
X160707703Y-63024343D01*
X160370433Y-62686483D01*
X159929542Y-62503409D01*
X159452153Y-62502993D01*
X159010943Y-62685297D01*
X158673083Y-63022567D01*
X158490009Y-63463458D01*
X158489593Y-63940847D01*
X158349592Y-63940847D01*
X158350007Y-63465553D01*
X158167703Y-63024343D01*
X157830433Y-62686483D01*
X157389542Y-62503409D01*
X156912153Y-62502993D01*
X156470943Y-62685297D01*
X156133083Y-63022567D01*
X155950009Y-63463458D01*
X155949593Y-63940847D01*
X155809592Y-63940847D01*
X155810007Y-63465553D01*
X155627703Y-63024343D01*
X155290433Y-62686483D01*
X154849542Y-62503409D01*
X154372153Y-62502993D01*
X153930943Y-62685297D01*
X153593083Y-63022567D01*
X153410009Y-63463458D01*
X153409593Y-63940847D01*
X153269592Y-63940847D01*
X153270007Y-63465553D01*
X153087703Y-63024343D01*
X152750433Y-62686483D01*
X152309542Y-62503409D01*
X151832153Y-62502993D01*
X151390943Y-62685297D01*
X151053083Y-63022567D01*
X150870009Y-63463458D01*
X150869593Y-63940847D01*
X150729592Y-63940847D01*
X150730007Y-63465553D01*
X150547703Y-63024343D01*
X150210433Y-62686483D01*
X149769542Y-62503409D01*
X149292153Y-62502993D01*
X148850943Y-62685297D01*
X148513083Y-63022567D01*
X148330009Y-63463458D01*
X148329593Y-63940847D01*
X148189592Y-63940847D01*
X148190007Y-63465553D01*
X148007703Y-63024343D01*
X147670433Y-62686483D01*
X147229542Y-62503409D01*
X146752153Y-62502993D01*
X146310943Y-62685297D01*
X145973083Y-63022567D01*
X145790009Y-63463458D01*
X145789593Y-63940847D01*
X145649592Y-63940847D01*
X145650007Y-63465553D01*
X145467703Y-63024343D01*
X145130433Y-62686483D01*
X144689542Y-62503409D01*
X144212153Y-62502993D01*
X143770943Y-62685297D01*
X143433083Y-63022567D01*
X143250009Y-63463458D01*
X143249593Y-63940847D01*
X143109592Y-63940847D01*
X143110007Y-63465553D01*
X142927703Y-63024343D01*
X142590433Y-62686483D01*
X142149542Y-62503409D01*
X141672153Y-62502993D01*
X141230943Y-62685297D01*
X140893083Y-63022567D01*
X140710009Y-63463458D01*
X140709593Y-63940847D01*
X140569592Y-63940847D01*
X140570007Y-63465553D01*
X140387703Y-63024343D01*
X140050433Y-62686483D01*
X139609542Y-62503409D01*
X139132153Y-62502993D01*
X138690943Y-62685297D01*
X138353083Y-63022567D01*
X138170009Y-63463458D01*
X138169593Y-63940847D01*
X138029592Y-63940847D01*
X138030007Y-63465553D01*
X137847703Y-63024343D01*
X137510433Y-62686483D01*
X137069542Y-62503409D01*
X136592153Y-62502993D01*
X136150943Y-62685297D01*
X135813083Y-63022567D01*
X135630009Y-63463458D01*
X135629593Y-63940847D01*
X135489592Y-63940847D01*
X135490007Y-63465553D01*
X135307703Y-63024343D01*
X134970433Y-62686483D01*
X134529542Y-62503409D01*
X134052153Y-62502993D01*
X133610943Y-62685297D01*
X133273083Y-63022567D01*
X133090009Y-63463458D01*
X133089593Y-63940847D01*
X132949592Y-63940847D01*
X132950007Y-63465553D01*
X132767703Y-63024343D01*
X132430433Y-62686483D01*
X131989542Y-62503409D01*
X131512153Y-62502993D01*
X131070943Y-62685297D01*
X130733083Y-63022567D01*
X130550009Y-63463458D01*
X130549593Y-63940847D01*
X130409592Y-63940847D01*
X130410007Y-63465553D01*
X130227703Y-63024343D01*
X129890433Y-62686483D01*
X129449542Y-62503409D01*
X128972153Y-62502993D01*
X128530943Y-62685297D01*
X128193083Y-63022567D01*
X128010009Y-63463458D01*
X128009593Y-63940847D01*
X127869592Y-63940847D01*
X127870007Y-63465553D01*
X127687703Y-63024343D01*
X127350433Y-62686483D01*
X126909542Y-62503409D01*
X126432153Y-62502993D01*
X125990943Y-62685297D01*
X125653083Y-63022567D01*
X125470009Y-63463458D01*
X125469593Y-63940847D01*
X125329592Y-63940847D01*
X125330007Y-63465553D01*
X125147703Y-63024343D01*
X124810433Y-62686483D01*
X124369542Y-62503409D01*
X123892153Y-62502993D01*
X123450943Y-62685297D01*
X123113083Y-63022567D01*
X122930009Y-63463458D01*
X122929593Y-63940847D01*
X122789592Y-63940847D01*
X122790007Y-63465553D01*
X122607703Y-63024343D01*
X122270433Y-62686483D01*
X121829542Y-62503409D01*
X121352153Y-62502993D01*
X120910943Y-62685297D01*
X120573083Y-63022567D01*
X120390009Y-63463458D01*
X120389593Y-63940847D01*
X120249592Y-63940847D01*
X120250007Y-63465553D01*
X120067703Y-63024343D01*
X119730433Y-62686483D01*
X119289542Y-62503409D01*
X118812153Y-62502993D01*
X118370943Y-62685297D01*
X118033083Y-63022567D01*
X117850009Y-63463458D01*
X117849593Y-63940847D01*
X117709592Y-63940847D01*
X117710007Y-63465553D01*
X117527703Y-63024343D01*
X117190433Y-62686483D01*
X116749542Y-62503409D01*
X116272153Y-62502993D01*
X115830943Y-62685297D01*
X115493083Y-63022567D01*
X115310009Y-63463458D01*
X115309593Y-63940847D01*
X115169592Y-63940847D01*
X115170007Y-63465553D01*
X114987703Y-63024343D01*
X114650433Y-62686483D01*
X114209542Y-62503409D01*
X113732153Y-62502993D01*
X113290943Y-62685297D01*
X112953083Y-63022567D01*
X112770009Y-63463458D01*
X112769593Y-63940847D01*
X112629592Y-63940847D01*
X112630007Y-63465553D01*
X112447703Y-63024343D01*
X112110433Y-62686483D01*
X111669542Y-62503409D01*
X111192153Y-62502993D01*
X110750943Y-62685297D01*
X110413083Y-63022567D01*
X110230009Y-63463458D01*
X110229593Y-63940847D01*
X95850053Y-63940847D01*
X95850321Y-63633627D01*
X95569268Y-62953428D01*
X95049309Y-62432561D01*
X94369602Y-62150321D01*
X93633627Y-62149679D01*
X92953428Y-62430732D01*
X92432561Y-62950691D01*
X92150321Y-63630398D01*
X92149679Y-64366373D01*
X90711278Y-64366373D01*
X90711278Y-60759548D01*
X175261278Y-60759548D01*
X175261278Y-120309548D01*
M02*
