G04 #@! TF.FileFunction,Paste,Top*
%FSLAX46Y46*%
G04 Gerber Fmt 4.6, Leading zero omitted, Abs format (unit mm)*
G04 Created by KiCad (PCBNEW 4.0.2-stable) date 12/24/2016 3:16:37 PM*
%MOMM*%
G01*
G04 APERTURE LIST*
%ADD10C,0.100000*%
%ADD11R,1.250000X1.000000*%
%ADD12R,0.750000X0.800000*%
%ADD13R,1.000000X1.250000*%
%ADD14R,0.800000X0.750000*%
%ADD15R,1.600000X1.000000*%
%ADD16R,0.797560X0.797560*%
%ADD17R,0.900000X0.500000*%
%ADD18R,0.500000X0.900000*%
%ADD19R,1.700000X0.900000*%
%ADD20R,0.900000X1.700000*%
%ADD21R,1.600000X3.000000*%
%ADD22R,0.899160X0.300000*%
%ADD23R,0.300000X0.899160*%
%ADD24R,0.802640X0.551880*%
%ADD25R,0.802640X0.802640*%
%ADD26R,0.899160X0.238760*%
%ADD27R,0.400000X0.290000*%
%ADD28R,0.290000X0.400000*%
%ADD29R,0.400000X0.280000*%
%ADD30R,0.450000X1.450000*%
%ADD31R,1.240000X1.890000*%
%ADD32R,4.500000X1.800000*%
%ADD33R,2.600000X8.200000*%
%ADD34R,0.440000X1.240000*%
%ADD35R,0.440000X1.590000*%
%ADD36R,0.440000X3.040000*%
%ADD37R,0.440000X1.115000*%
%ADD38R,0.250000X0.600000*%
%ADD39R,0.600000X0.250000*%
%ADD40R,2.400000X2.500000*%
%ADD41R,0.350000X0.650000*%
%ADD42R,2.850000X1.580000*%
%ADD43R,0.775000X0.200000*%
%ADD44R,0.400000X0.455000*%
%ADD45R,1.050000X1.100000*%
%ADD46R,0.400000X0.850000*%
G04 APERTURE END LIST*
D10*
D11*
X128143000Y-109388400D03*
X128143000Y-111388400D03*
D12*
X104444800Y-97536000D03*
X104444800Y-96036000D03*
D13*
X135510620Y-96172724D03*
X133510620Y-96172724D03*
X135510620Y-93886724D03*
X133510620Y-93886724D03*
D12*
X131394200Y-111949800D03*
X131394200Y-113449800D03*
D14*
X114845400Y-112852200D03*
X116345400Y-112852200D03*
D12*
X138320620Y-86026124D03*
X138320620Y-84526124D03*
X132994400Y-118555200D03*
X132994400Y-117055200D03*
X109067600Y-103186800D03*
X109067600Y-104686800D03*
D13*
X135485220Y-85555524D03*
X133485220Y-85555524D03*
D11*
X108661200Y-100237800D03*
X108661200Y-98237800D03*
D13*
X135485220Y-83269524D03*
X133485220Y-83269524D03*
D11*
X140284200Y-113725200D03*
X140284200Y-111725200D03*
X142443200Y-113725200D03*
X142443200Y-111725200D03*
X110769400Y-98253800D03*
X110769400Y-100253800D03*
D14*
X124702000Y-102184200D03*
X123202000Y-102184200D03*
D15*
X130149600Y-96137600D03*
X130149600Y-99137600D03*
X127685800Y-96137600D03*
X127685800Y-99137600D03*
D14*
X156082700Y-90660708D03*
X157582700Y-90660708D03*
D11*
X103378000Y-88154000D03*
X103378000Y-90154000D03*
D12*
X153073500Y-86622108D03*
X153073500Y-85122108D03*
X151422500Y-86635508D03*
X151422500Y-85135508D03*
D14*
X156082700Y-89009708D03*
X157582700Y-89009708D03*
X156082700Y-86850708D03*
X157582700Y-86850708D03*
X140348400Y-93649800D03*
X138848400Y-93649800D03*
D16*
X108216700Y-108305600D03*
X109715300Y-108305600D03*
X141886957Y-84503443D03*
X141886957Y-83004843D03*
X143306800Y-116039900D03*
X143306800Y-117538500D03*
D17*
X149529800Y-75373800D03*
X149529800Y-76873800D03*
X152095200Y-75348400D03*
X152095200Y-76848400D03*
X104444800Y-100380800D03*
X104444800Y-98880800D03*
D18*
X138164000Y-116001800D03*
X136664000Y-116001800D03*
D17*
X106705400Y-97397000D03*
X106705400Y-95897000D03*
X106705400Y-94691200D03*
X106705400Y-93191200D03*
X112318800Y-110730600D03*
X112318800Y-112230600D03*
D18*
X110808200Y-112217200D03*
X109308200Y-112217200D03*
X136664000Y-117754400D03*
X138164000Y-117754400D03*
D17*
X133121400Y-111899000D03*
X133121400Y-113399000D03*
X114681000Y-110757400D03*
X114681000Y-109257400D03*
X116408200Y-109257400D03*
X116408200Y-110757400D03*
D18*
X118503000Y-107492800D03*
X120003000Y-107492800D03*
X120003000Y-109245400D03*
X118503000Y-109245400D03*
X104837800Y-107340400D03*
X106337800Y-107340400D03*
X103110600Y-103759000D03*
X104610600Y-103759000D03*
X109716000Y-109931200D03*
X108216000Y-109931200D03*
D19*
X106807000Y-105488400D03*
X106807000Y-102588400D03*
D17*
X134645400Y-118529800D03*
X134645400Y-117029800D03*
D18*
X134633400Y-115493800D03*
X133133400Y-115493800D03*
D17*
X140108957Y-82978743D03*
X140108957Y-84478743D03*
D18*
X140423200Y-116128800D03*
X141923200Y-116128800D03*
D20*
X125427400Y-99085400D03*
X122527400Y-99085400D03*
D19*
X100746456Y-91067230D03*
X100746456Y-88167230D03*
D14*
X138860400Y-96824800D03*
X140360400Y-96824800D03*
X140348400Y-95250000D03*
X138848400Y-95250000D03*
D21*
X161379300Y-114120508D03*
X161379300Y-109720508D03*
X161379300Y-104468508D03*
X161379300Y-100068508D03*
D22*
X111686340Y-102194360D03*
X111686340Y-102694740D03*
X111686340Y-103195120D03*
X111686340Y-103695500D03*
X111686340Y-104195880D03*
D23*
X112636300Y-107144820D03*
X114134900Y-107144820D03*
D22*
X115084860Y-106194860D03*
X115084860Y-105694480D03*
X115084860Y-105194100D03*
X115084860Y-104693720D03*
X115084860Y-104195880D03*
D23*
X114134900Y-101744780D03*
X112636300Y-101744780D03*
D24*
X112885600Y-105814800D03*
X112885220Y-103074800D03*
X113885600Y-103074800D03*
X113885600Y-105814800D03*
D22*
X111686340Y-104693720D03*
X115084860Y-103695500D03*
D25*
X113885980Y-103944420D03*
X112885220Y-103944420D03*
D22*
X111686340Y-105194100D03*
X111686340Y-105694480D03*
X115084860Y-103195120D03*
X115084860Y-102694740D03*
D25*
X113885980Y-104945180D03*
X112885220Y-104945180D03*
D22*
X111686340Y-106194860D03*
D26*
X111686340Y-106695240D03*
D22*
X115084860Y-106695240D03*
X115084860Y-102194360D03*
D27*
X153607700Y-91535708D03*
D28*
X153027700Y-91535708D03*
X152597700Y-91535708D03*
X152167700Y-91535708D03*
X151737700Y-91535708D03*
D29*
X151157700Y-91535708D03*
X151157700Y-91105708D03*
X151157700Y-90675708D03*
X151157700Y-90245708D03*
X151157700Y-89815708D03*
X151157700Y-89385708D03*
X151157700Y-88955708D03*
X151157700Y-88525708D03*
D28*
X151737700Y-88525708D03*
X152167700Y-88525708D03*
X152597700Y-88525708D03*
X153027700Y-88525708D03*
D29*
X153607700Y-88525708D03*
X153607700Y-88955708D03*
D27*
X153607700Y-89385708D03*
X153607700Y-89815708D03*
X153607700Y-90245708D03*
X153607700Y-90675708D03*
X153607700Y-91105708D03*
D30*
X152037900Y-105218508D03*
X152687900Y-105218508D03*
X153337900Y-105218508D03*
X153987900Y-105218508D03*
X154637900Y-105218508D03*
X155287900Y-105218508D03*
X155937900Y-105218508D03*
X155937900Y-99318508D03*
X155287900Y-99318508D03*
X154637900Y-99318508D03*
X153987900Y-99318508D03*
X153337900Y-99318508D03*
X152687900Y-99318508D03*
X152037900Y-99318508D03*
D14*
X117436200Y-103682800D03*
X118936200Y-103682800D03*
D12*
X113461800Y-96786000D03*
X113461800Y-98286000D03*
D14*
X152094900Y-97061508D03*
X153594900Y-97061508D03*
D31*
X119845200Y-99161600D03*
X115765200Y-99161600D03*
D32*
X128744820Y-88072124D03*
X128744820Y-91372124D03*
D33*
X131718400Y-104724200D03*
X137318400Y-104724200D03*
D34*
X137923000Y-111858200D03*
D35*
X137923000Y-113483200D03*
D36*
X137323000Y-112758200D03*
D37*
X137153000Y-112758200D03*
D38*
X136678000Y-113908200D03*
X136678000Y-111608200D03*
D39*
X136003000Y-113008200D03*
X136003000Y-113508200D03*
X136003000Y-112508200D03*
X136003000Y-112008200D03*
D40*
X115695000Y-93802200D03*
X121795000Y-93802200D03*
D41*
X135772620Y-88321124D03*
X135272620Y-88321124D03*
X136272620Y-88321124D03*
X136772620Y-88321124D03*
X137272620Y-88321124D03*
X134772620Y-88321124D03*
X134272620Y-88321124D03*
X135772620Y-91121124D03*
X136272620Y-91121124D03*
X136772620Y-91121124D03*
X137272620Y-91121124D03*
X135272620Y-91121124D03*
X134772620Y-91121124D03*
X134272620Y-91121124D03*
D42*
X135772620Y-89721124D03*
D43*
X137585120Y-89951124D03*
X137585120Y-90411124D03*
X137585120Y-89491124D03*
X137585120Y-89031124D03*
X133960120Y-90411124D03*
X133960120Y-89951124D03*
X133960120Y-89491124D03*
X133960120Y-89031124D03*
D44*
X103220400Y-105274900D03*
X103220400Y-107119900D03*
D45*
X102895400Y-106197400D03*
D44*
X102570400Y-105274900D03*
X103870400Y-105274900D03*
X103870400Y-107119900D03*
X102570400Y-107119900D03*
D46*
X103870400Y-106072400D03*
M02*
