M48
;DRILL file {KiCad 4.0.2-stable} date 12/24/2016 3:16:46 PM
;FORMAT={-:-/ absolute / inch / decimal}
FMAT,2
INCH,TZ
T1C0.012
T2C0.016
T3C0.028
T4C0.039
T5C0.039
T6C0.040
T7C0.126
%
G90
G05
M72
T1
X4.574Y-4.063
T2
X4.112Y-3.74
X4.126Y-3.542
X4.151Y-3.868
X4.152Y-4.097
X4.158Y-3.669
X4.245Y-3.752
X4.287Y-3.82
X4.303Y-4.373
X4.32Y-3.82
X4.343Y-4.122
X4.351Y-4.05
X4.353Y-3.82
X4.363Y-4.374
X4.3655Y-4.225
X4.378Y-3.82
X4.397Y-4.224
X4.461Y-3.909
X4.463Y-4.256
X4.562Y-4.22
X4.578Y-4.114
X4.602Y-4.1386
X4.604Y-4.01
X4.604Y-4.036
X4.626Y-4.36
X4.628Y-4.232
X4.63Y-4.01
X4.63Y-4.036
X4.694Y-4.2035
X4.724Y-4.062
X4.99Y-4.384
X5.173Y-4.507
X5.173Y-4.541
X5.1907Y-3.4923
X5.1907Y-3.5183
X5.1907Y-3.5453
X5.1907Y-3.5723
X5.2157Y-3.4923
X5.2157Y-3.5183
X5.2157Y-3.5463
X5.2157Y-3.5723
X5.2247Y-3.217
X5.2357Y-3.8463
X5.2595Y-4.277
X5.2757Y-3.8463
X5.285Y-3.216
X5.374Y-3.197
X5.381Y-4.677
X5.4Y-3.687
X5.4057Y-3.3273
X5.439Y-4.677
X5.4557Y-3.5023
X5.4557Y-3.5323
X5.4557Y-3.5623
X5.4807Y-3.4873
X5.4807Y-3.5173
X5.4807Y-3.5473
X5.4807Y-3.5773
X5.502Y-3.903
X5.505Y-3.994
X5.506Y-4.091
X5.506Y-4.226
X5.508Y-4.319
X5.569Y-3.851
X5.595Y-3.738
X5.599Y-3.635
X5.609Y-4.325
X5.627Y-3.268
X5.666Y-3.568
X5.671Y-4.376
X5.687Y-4.628
X5.729Y-4.41
X5.763Y-3.621
X5.786Y-3.726
X5.787Y-3.919
X5.789Y-3.821
X5.823Y-4.41
X5.841Y-3.99
X5.901Y-4.14
X5.907Y-4.058
X5.9145Y-3.5183
X5.932Y-4.414
X5.94Y-2.967
X5.9515Y-3.4583
X5.9825Y-3.515
X5.9825Y-4.2013
X5.9895Y-3.6343
X6.014Y-3.515
X6.05Y-4.415
X6.051Y-4.26
X6.066Y-3.188
X6.0695Y-3.3513
X6.0705Y-3.4093
X6.0875Y-3.8213
X6.0895Y-3.5843
X6.0925Y-4.1963
X6.1445Y-3.4593
X6.156Y-4.341
X6.157Y-4.258
X6.157Y-4.417
X6.163Y-3.187
X6.1825Y-4.1413
X6.2035Y-3.4593
X6.256Y-3.187
X6.345Y-3.187
X6.445Y-3.188
X6.551Y-3.187
X6.628Y-3.227
X6.629Y-3.302
T3
X6.6275Y-4.3263
X6.6275Y-4.4051
X6.6275Y-4.4838
X6.6285Y-3.3734
X6.6285Y-3.4521
X6.6285Y-3.5308
X6.6285Y-3.6096
X6.6285Y-3.6883
X6.6285Y-3.9488
X6.6285Y-4.0276
X6.6285Y-4.1063
T4
X4.021Y-4.383
X4.021Y-4.483
X4.795Y-4.592
X4.895Y-4.592
T6
X3.639Y-2.807
X3.639Y-2.907
X3.639Y-3.007
X3.639Y-3.107
X3.639Y-3.207
X3.639Y-3.307
X3.639Y-3.407
X3.639Y-3.507
X4.239Y-2.807
X4.239Y-2.907
X4.239Y-3.007
X4.239Y-3.107
X4.239Y-3.207
X4.239Y-3.307
X4.239Y-3.407
X4.239Y-3.507
X4.387Y-2.508
X4.387Y-3.108
X4.487Y-2.508
X4.487Y-3.108
X4.587Y-2.508
X4.587Y-3.108
X4.687Y-2.508
X4.687Y-3.108
X4.787Y-2.508
X4.787Y-3.108
X4.887Y-2.508
X4.887Y-3.108
X4.987Y-2.508
X4.987Y-3.108
X5.087Y-2.508
X5.087Y-3.108
X5.187Y-2.508
X5.187Y-3.108
X5.287Y-2.508
X5.287Y-3.108
X5.387Y-2.508
X5.387Y-3.108
X5.487Y-2.508
X5.487Y-3.108
X5.587Y-2.508
X5.587Y-3.108
X5.687Y-2.508
X5.687Y-3.108
X5.787Y-2.508
X5.787Y-3.108
X5.887Y-2.508
X5.887Y-3.108
X5.987Y-2.508
X5.987Y-3.108
X6.087Y-2.508
X6.087Y-3.108
X6.187Y-2.508
X6.187Y-3.108
X6.287Y-2.508
X6.287Y-3.108
X6.387Y-2.508
X6.387Y-3.108
X6.487Y-2.508
X6.487Y-3.108
X6.587Y-2.508
X6.587Y-3.108
X6.687Y-2.508
X6.687Y-3.108
T7
X3.7008Y-2.5197
X3.7008Y-4.6063
X6.7717Y-2.7165
X6.7717Y-4.6063
T5
X3.728Y-3.7716G85X3.728Y-3.8503
G05
X3.8068Y-3.996G85X3.8855Y-3.996
G05
X3.9642Y-3.7716G85X3.9642Y-3.8503
G05
T0
M30
