G04 #@! TF.FileFunction,Soldermask,Top*
%FSLAX46Y46*%
G04 Gerber Fmt 4.6, Leading zero omitted, Abs format (unit mm)*
G04 Created by KiCad (PCBNEW 4.0.2-stable) date 12/24/2016 3:16:37 PM*
%MOMM*%
G01*
G04 APERTURE LIST*
%ADD10C,0.100000*%
%ADD11C,3.600000*%
%ADD12R,1.650000X1.400000*%
%ADD13R,1.150000X1.200000*%
%ADD14R,1.400000X1.650000*%
%ADD15R,1.200000X1.150000*%
%ADD16R,2.000000X1.400000*%
%ADD17R,3.900120X3.900120*%
%ADD18R,1.197560X1.197560*%
%ADD19R,1.300000X0.900000*%
%ADD20R,0.900000X1.300000*%
%ADD21R,2.100000X1.300000*%
%ADD22R,1.300000X2.100000*%
%ADD23O,3.414980X1.906220*%
%ADD24R,2.000000X3.400000*%
%ADD25R,1.041400X0.442240*%
%ADD26R,0.442240X1.041400*%
%ADD27R,1.143000X0.892240*%
%ADD28R,1.143000X1.143000*%
%ADD29R,1.041400X0.381000*%
%ADD30R,0.600000X0.490000*%
%ADD31R,0.490000X0.600000*%
%ADD32R,0.600000X0.480000*%
%ADD33R,0.850000X1.850000*%
%ADD34R,2.100000X1.600000*%
%ADD35O,2.100000X1.600000*%
%ADD36R,1.640000X2.290000*%
%ADD37R,4.900000X2.200000*%
%ADD38R,3.000000X8.600000*%
%ADD39C,2.300000*%
%ADD40R,0.540000X1.340000*%
%ADD41R,0.540000X1.690000*%
%ADD42R,0.540000X3.140000*%
%ADD43R,0.540000X1.215000*%
%ADD44R,0.350000X0.700000*%
%ADD45R,0.700000X0.350000*%
%ADD46R,2.800000X2.900000*%
%ADD47R,0.450000X0.750000*%
%ADD48R,2.950000X1.680000*%
%ADD49R,0.875000X0.300000*%
%ADD50R,0.500000X0.555000*%
%ADD51R,0.500000X0.950000*%
%ADD52O,1.906220X3.414980*%
G04 APERTURE END LIST*
D10*
D11*
X172000000Y-69000000D03*
X94000000Y-64000000D03*
X94000000Y-117000000D03*
D12*
X128143000Y-109388400D03*
X128143000Y-111388400D03*
D13*
X104444800Y-97536000D03*
X104444800Y-96036000D03*
D14*
X135510620Y-96172724D03*
X133510620Y-96172724D03*
X135510620Y-93886724D03*
X133510620Y-93886724D03*
D13*
X131394200Y-111949800D03*
X131394200Y-113449800D03*
D15*
X114845400Y-112852200D03*
X116345400Y-112852200D03*
D13*
X138320620Y-86026124D03*
X138320620Y-84526124D03*
X132994400Y-118555200D03*
X132994400Y-117055200D03*
X109067600Y-103186800D03*
X109067600Y-104686800D03*
D14*
X135485220Y-85555524D03*
X133485220Y-85555524D03*
D12*
X108661200Y-100237800D03*
X108661200Y-98237800D03*
D14*
X135485220Y-83269524D03*
X133485220Y-83269524D03*
D12*
X140284200Y-113725200D03*
X140284200Y-111725200D03*
X142443200Y-113725200D03*
X142443200Y-111725200D03*
X110769400Y-98253800D03*
X110769400Y-100253800D03*
D15*
X124702000Y-102184200D03*
X123202000Y-102184200D03*
D16*
X130149600Y-96137600D03*
X130149600Y-99137600D03*
X127685800Y-96137600D03*
X127685800Y-99137600D03*
D15*
X156082700Y-90660708D03*
X157582700Y-90660708D03*
D12*
X103378000Y-88154000D03*
X103378000Y-90154000D03*
D13*
X153073500Y-86622108D03*
X153073500Y-85122108D03*
X151422500Y-86635508D03*
X151422500Y-85135508D03*
D15*
X156082700Y-89009708D03*
X157582700Y-89009708D03*
X156082700Y-86850708D03*
X157582700Y-86850708D03*
X140348400Y-93649800D03*
X138848400Y-93649800D03*
D17*
X100690680Y-96799400D03*
X94691200Y-96799400D03*
X97690940Y-101498400D03*
D18*
X108216700Y-108305600D03*
X109715300Y-108305600D03*
X141886957Y-84503443D03*
X141886957Y-83004843D03*
X143306800Y-116039900D03*
X143306800Y-117538500D03*
D19*
X149529800Y-75373800D03*
X149529800Y-76873800D03*
X152095200Y-75348400D03*
X152095200Y-76848400D03*
X104444800Y-100380800D03*
X104444800Y-98880800D03*
D20*
X138164000Y-116001800D03*
X136664000Y-116001800D03*
D19*
X106705400Y-97397000D03*
X106705400Y-95897000D03*
X106705400Y-94691200D03*
X106705400Y-93191200D03*
X112318800Y-110730600D03*
X112318800Y-112230600D03*
D20*
X110808200Y-112217200D03*
X109308200Y-112217200D03*
X136664000Y-117754400D03*
X138164000Y-117754400D03*
D19*
X133121400Y-111899000D03*
X133121400Y-113399000D03*
X114681000Y-110757400D03*
X114681000Y-109257400D03*
X116408200Y-109257400D03*
X116408200Y-110757400D03*
D20*
X118503000Y-107492800D03*
X120003000Y-107492800D03*
X120003000Y-109245400D03*
X118503000Y-109245400D03*
X104837800Y-107340400D03*
X106337800Y-107340400D03*
X103110600Y-103759000D03*
X104610600Y-103759000D03*
X109716000Y-109931200D03*
X108216000Y-109931200D03*
D21*
X106807000Y-105488400D03*
X106807000Y-102588400D03*
D19*
X134645400Y-118529800D03*
X134645400Y-117029800D03*
D20*
X134633400Y-115493800D03*
X133133400Y-115493800D03*
D19*
X140108957Y-82978743D03*
X140108957Y-84478743D03*
D20*
X140423200Y-116128800D03*
X141923200Y-116128800D03*
D22*
X125427400Y-99085400D03*
X122527400Y-99085400D03*
D21*
X100746456Y-91067230D03*
X100746456Y-88167230D03*
D15*
X138860400Y-96824800D03*
X140360400Y-96824800D03*
X140348400Y-95250000D03*
X138848400Y-95250000D03*
D23*
X102133400Y-113868200D03*
X102133400Y-111328200D03*
D24*
X161379300Y-114120508D03*
X161379300Y-109720508D03*
X161379300Y-104468508D03*
X161379300Y-100068508D03*
D25*
X111686340Y-102194360D03*
X111686340Y-102694740D03*
X111686340Y-103195120D03*
X111686340Y-103695500D03*
X111686340Y-104195880D03*
D26*
X112636300Y-107144820D03*
X114134900Y-107144820D03*
D25*
X115084860Y-106194860D03*
X115084860Y-105694480D03*
X115084860Y-105194100D03*
X115084860Y-104693720D03*
X115084860Y-104195880D03*
D26*
X114134900Y-101744780D03*
X112636300Y-101744780D03*
D27*
X112885600Y-105814800D03*
X112885220Y-103074800D03*
X113885600Y-103074800D03*
X113885600Y-105814800D03*
D25*
X111686340Y-104693720D03*
X115084860Y-103695500D03*
D28*
X113885980Y-103944420D03*
X112885220Y-103944420D03*
D25*
X111686340Y-105194100D03*
X111686340Y-105694480D03*
X115084860Y-103195120D03*
X115084860Y-102694740D03*
D28*
X113885980Y-104945180D03*
X112885220Y-104945180D03*
D25*
X111686340Y-106194860D03*
D29*
X111686340Y-106695240D03*
D25*
X115084860Y-106695240D03*
X115084860Y-102194360D03*
D30*
X153607700Y-91535708D03*
D31*
X153027700Y-91535708D03*
X152597700Y-91535708D03*
X152167700Y-91535708D03*
X151737700Y-91535708D03*
D32*
X151157700Y-91535708D03*
X151157700Y-91105708D03*
X151157700Y-90675708D03*
X151157700Y-90245708D03*
X151157700Y-89815708D03*
X151157700Y-89385708D03*
X151157700Y-88955708D03*
X151157700Y-88525708D03*
D31*
X151737700Y-88525708D03*
X152167700Y-88525708D03*
X152597700Y-88525708D03*
X153027700Y-88525708D03*
D32*
X153607700Y-88525708D03*
X153607700Y-88955708D03*
D30*
X153607700Y-89385708D03*
X153607700Y-89815708D03*
X153607700Y-90245708D03*
X153607700Y-90675708D03*
X153607700Y-91105708D03*
D33*
X152037900Y-105218508D03*
X152687900Y-105218508D03*
X153337900Y-105218508D03*
X153987900Y-105218508D03*
X154637900Y-105218508D03*
X155287900Y-105218508D03*
X155937900Y-105218508D03*
X155937900Y-99318508D03*
X155287900Y-99318508D03*
X154637900Y-99318508D03*
X153987900Y-99318508D03*
X153337900Y-99318508D03*
X152687900Y-99318508D03*
X152037900Y-99318508D03*
D34*
X168364300Y-93683308D03*
D35*
X168364300Y-91683308D03*
X168364300Y-89683308D03*
X168364300Y-87683308D03*
X168364300Y-85683308D03*
D34*
X168338900Y-113888508D03*
D35*
X168338900Y-111888508D03*
X168338900Y-109888508D03*
D34*
X168364300Y-104300508D03*
D35*
X168364300Y-102300508D03*
X168364300Y-100300508D03*
D15*
X117436200Y-103682800D03*
X118936200Y-103682800D03*
D13*
X113461800Y-96786000D03*
X113461800Y-98286000D03*
D15*
X152094900Y-97061508D03*
X153594900Y-97061508D03*
D36*
X119845200Y-99161600D03*
X115765200Y-99161600D03*
D37*
X128744820Y-88072124D03*
X128744820Y-91372124D03*
D38*
X131718400Y-104724200D03*
X137318400Y-104724200D03*
D39*
X167309800Y-63703200D03*
X164769800Y-63703200D03*
X162229800Y-63703200D03*
X159689800Y-63703200D03*
X157149800Y-63703200D03*
X154609800Y-63703200D03*
X152069800Y-63703200D03*
X149529800Y-63703200D03*
X146989800Y-63703200D03*
X144449800Y-63703200D03*
X141909800Y-63703200D03*
X139369800Y-63703200D03*
X136829800Y-63703200D03*
X136829800Y-78943200D03*
X139369800Y-78943200D03*
X141909800Y-78943200D03*
X144449800Y-78943200D03*
X146989800Y-78943200D03*
X149529800Y-78943200D03*
X152069800Y-78943200D03*
X154609800Y-78943200D03*
X157149800Y-78943200D03*
X159689800Y-78943200D03*
X162229800Y-78943200D03*
X164769800Y-78943200D03*
X167309800Y-78943200D03*
X169849800Y-78943200D03*
X169849800Y-63703200D03*
X134289800Y-78943200D03*
X134289800Y-63703200D03*
X131749800Y-78943200D03*
X129209800Y-78943200D03*
X126669800Y-78943200D03*
X124129800Y-78943200D03*
X121589800Y-78943200D03*
X119049800Y-78943200D03*
X116509800Y-78943200D03*
X113969800Y-78943200D03*
X111429800Y-78943200D03*
X131749800Y-63703200D03*
X129209800Y-63703200D03*
X126669800Y-63703200D03*
X124129800Y-63703200D03*
X121589800Y-63703200D03*
X119049800Y-63703200D03*
X116509800Y-63703200D03*
X113969800Y-63703200D03*
X111429800Y-63703200D03*
X107670600Y-89077800D03*
X107670600Y-86537800D03*
X107670600Y-83997800D03*
X107670600Y-81457800D03*
X107670600Y-78917800D03*
X107670600Y-76377800D03*
X107670600Y-73837800D03*
X107670600Y-71297800D03*
X92430600Y-89077800D03*
X92430600Y-86537800D03*
X92430600Y-83997800D03*
X92430600Y-81457800D03*
X92430600Y-78917800D03*
X92430600Y-76377800D03*
X92430600Y-73837800D03*
X92430600Y-71297800D03*
D40*
X137923000Y-111858200D03*
D41*
X137923000Y-113483200D03*
D42*
X137323000Y-112758200D03*
D43*
X137153000Y-112758200D03*
D44*
X136678000Y-113908200D03*
X136678000Y-111608200D03*
D45*
X136003000Y-113008200D03*
X136003000Y-113508200D03*
X136003000Y-112508200D03*
X136003000Y-112008200D03*
D46*
X115695000Y-93802200D03*
X121795000Y-93802200D03*
D47*
X135772620Y-88321124D03*
X135272620Y-88321124D03*
X136272620Y-88321124D03*
X136772620Y-88321124D03*
X137272620Y-88321124D03*
X134772620Y-88321124D03*
X134272620Y-88321124D03*
X135772620Y-91121124D03*
X136272620Y-91121124D03*
X136772620Y-91121124D03*
X137272620Y-91121124D03*
X135272620Y-91121124D03*
X134772620Y-91121124D03*
X134272620Y-91121124D03*
D48*
X135772620Y-89721124D03*
D49*
X137585120Y-89951124D03*
X137585120Y-90411124D03*
X137585120Y-89491124D03*
X137585120Y-89031124D03*
X133960120Y-90411124D03*
X133960120Y-89951124D03*
X133960120Y-89491124D03*
X133960120Y-89031124D03*
D50*
X103220400Y-105274900D03*
X103220400Y-107119900D03*
D13*
X102895400Y-106197400D03*
D50*
X102570400Y-105274900D03*
X103870400Y-105274900D03*
X103870400Y-107119900D03*
X102570400Y-107119900D03*
D51*
X103870400Y-106072400D03*
D52*
X124333000Y-116636800D03*
X121793000Y-116636800D03*
D11*
X172000000Y-117000000D03*
M02*
